<svg width="60" height="42" viewBox="0 0 60 42" fill="none" xmlns="http://www.w3.org/2000/svg">
<path d="M0.0237844 17.0364L0 17.0085C3.18303 14.2329 6.81798 17.9113 8.83866 20.2929L20.6184 34.1791C20.9689 34.5927 21.3681 35.0322 21.9038 35.1098C22.5243 35.1956 23.0837 34.7654 23.5584 34.3539C25.7722 32.4244 27.857 30.3517 29.7993 28.1491L35.4187 34.3849C35.8748 34.8916 36.4653 35.4469 37.1344 35.3156C37.516 35.2391 37.8138 34.9485 38.0868 34.6703C42.7197 29.9519 47.1168 25.0164 51.2781 19.8637C52.3474 18.54 53.4611 17.1533 55.0164 16.4604C56.5718 15.7675 58.7031 16.0405 59.5521 17.5162L41.0733 38.5803C40.2202 39.5534 39.2874 40.5762 38.032 40.8895C36.638 41.238 35.1664 40.6093 34.0475 39.7085C32.9286 38.8078 32.0527 37.6403 31.003 36.662C30.6804 36.3601 30.3091 36.0612 29.8655 36.024C29.306 35.9764 28.8066 36.359 28.4053 36.7478C27.4012 37.7323 26.6028 38.9195 25.547 39.8502C24.4912 40.7809 23.0517 41.4448 21.6918 41.0912C20.5667 40.7954 19.7321 39.875 18.9679 38.9991C12.6136 31.712 6.29885 24.3911 0.0237844 17.0364Z" fill="#FF6C08"/>
<path d="M49.5242 7.98137C49.095 7.25231 48.4994 6.62563 47.911 6.01136L42.1664 0C37.9823 4.44467 33.7986 8.8914 29.6152 13.3402V20.7942C33.6669 16.4808 38.3019 11.9731 42.3577 7.66079C42.9756 7.84175 43.5348 8.18259 43.9787 8.64889C44.4227 9.11518 44.7357 9.6904 44.8861 10.3164C45.3867 12.5139 43.7972 14.5874 42.3122 16.2823L33.7238 26.091L37.2636 29.2295C40.4839 25.4377 43.7038 21.6459 46.9234 17.8542C48.1447 16.4157 49.3939 14.9286 49.9813 13.1354C50.5304 11.4447 50.4249 9.51291 49.5242 7.98137Z" fill="#053772"/>
<path d="M9.69506 7.98137C10.1273 7.24818 10.7209 6.62563 11.3093 6.01033L17.058 0L29.6092 13.3402V20.7942C25.5575 16.4808 20.9225 11.9731 16.8667 7.66079C16.2488 7.84175 15.6896 8.18259 15.2457 8.64889C14.8017 9.11518 14.4887 9.6904 14.3383 10.3164C13.8378 12.5139 15.4272 14.5874 16.9122 16.2823L25.5006 26.091C24.3203 27.1375 23.1401 28.1837 21.9598 29.2295L12.3011 17.8542C11.0798 16.4157 9.8295 14.9286 9.24315 13.1354C8.69196 11.4447 8.79641 9.51291 9.69506 7.98137Z" fill="#053772"/>
<path d="M29.4692 4.10653L26.5566 7.01904L29.4692 9.93156L32.3817 7.01904L29.4692 4.10653Z" fill="#FF6C08"/>
</svg>
