<svg width="22" height="24" viewBox="0 0 22 24" fill="none" xmlns="http://www.w3.org/2000/svg">
<path d="M6.33301 16.6666C6.33301 19.9659 6.33301 21.6168 7.35851 22.6411C8.38284 23.6666 10.0337 23.6666 13.333 23.6666H14.4997C17.799 23.6666 19.4498 23.6666 20.4742 22.6411C21.4997 21.6168 21.4997 19.9659 21.4997 16.6666V7.33325C21.4997 4.03392 21.4997 2.38309 20.4742 1.35875C19.4498 0.333252 17.799 0.333252 14.4997 0.333252H13.333C10.0337 0.333252 8.38284 0.333252 7.35851 1.35875C6.33301 2.38309 6.33301 4.03392 6.33301 7.33325" stroke="black" stroke-width="1.25" stroke-linecap="round"/>
<path opacity="0.5" d="M6.33333 20.75C3.5835 20.75 2.208 20.75 1.354 19.896C0.5 19.0408 0.5 17.6665 0.5 14.9167V9.08333C0.5 6.3335 0.5 4.958 1.354 4.104C2.208 3.25 3.5835 3.25 6.33333 3.25" stroke="black" stroke-width="1.25"/>
<path d="M4 11.9999H14.5M14.5 11.9999L11.5833 14.9166M14.5 11.9999L11.5833 9.08325" stroke="black" stroke-width="1.25" stroke-linecap="round" stroke-linejoin="round"/>
</svg>
