<svg width="29" height="41" viewBox="0 0 29 41" fill="none" xmlns="http://www.w3.org/2000/svg">
<path d="M27.7659 11.606C27.1804 10.6113 26.3677 9.75635 25.5649 8.91828L17.7274 0.716797C12.019 6.78079 6.31102 12.8476 0.603516 18.9172V29.0869C6.13137 23.2021 12.455 17.052 17.9885 11.1686C18.8315 11.4155 19.5944 11.8806 20.2001 12.5167C20.8058 13.1529 21.2328 13.9377 21.4381 14.7918C22.1209 17.7899 19.9524 20.6188 17.9264 22.9312L6.20896 36.3135L11.0384 40.5955C15.4319 35.4223 19.825 30.249 24.2175 25.0758C25.8838 23.1132 27.5881 21.0844 28.3895 18.6379C29.1387 16.3311 28.9948 13.6955 27.7659 11.606Z" fill="#053772"/>
</svg>
