<svg width="82" height="35" viewBox="0 0 82 35" fill="none" xmlns="http://www.w3.org/2000/svg">
<path d="M0.230692 1.95982L0.198242 1.92173C4.54095 -1.86509 9.50022 3.15343 12.2571 6.4027L28.3285 25.3481C28.8068 25.9124 29.3514 26.5121 30.0822 26.6179C30.9288 26.735 31.6921 26.1481 32.3396 25.5865C35.36 22.9541 38.2044 20.1262 40.8543 17.1212L48.5211 25.6289C49.1433 26.3202 49.9489 27.0778 50.8618 26.8987C51.3824 26.7942 51.7887 26.3978 52.1612 26.0183C58.482 19.5809 64.481 12.8472 70.1585 5.81719C71.6173 4.01125 73.1368 2.11925 75.2588 1.17396C77.3808 0.228663 80.2886 0.601138 81.447 2.61447L56.2358 31.3528C55.0718 32.6805 53.7992 34.0758 52.0864 34.5033C50.1845 34.9788 48.1768 34.121 46.6503 32.8921C45.1237 31.6632 43.9287 30.0703 42.4966 28.7356C42.0564 28.3237 41.5499 27.9159 40.9446 27.8651C40.1814 27.8002 39.4999 28.3222 38.9525 28.8527C37.5825 30.1959 36.4933 31.8156 35.0528 33.0854C33.6123 34.3552 31.6483 35.261 29.793 34.7785C28.258 34.3749 27.1194 33.1193 26.0767 31.9242C17.4073 21.9822 8.79195 11.994 0.230692 1.95982Z" fill="#FF6C08"/>
</svg>
