<svg width="4" height="4" viewBox="0 0 4 4" fill="none" xmlns="http://www.w3.org/2000/svg">
<path d="M2.05599 1.3055L2.00043 1.66661L1.94488 1.3055L2.00043 0.222168L2.05599 1.3055ZM1.54043 0.282724L1.7671 1.34328L1.91432 1.67772L1.87432 1.31495L1.54043 0.282724ZM1.11154 0.460501L1.60488 1.42606L1.83377 1.71106L1.70155 1.3705L1.11154 0.460501ZM0.743212 0.742724L1.46988 1.54828L1.76488 1.76439L1.54877 1.46939L0.743212 0.742724ZM0.46099 1.11106L1.37099 1.70106L1.71154 1.83328L1.42654 1.60439L0.46099 1.11106ZM0.283212 1.53995L1.31543 1.87383L1.67821 1.91383L1.34377 1.76661L0.283212 1.53995ZM0.222656 1.99995L1.30599 2.0555L1.6671 1.99995L1.30599 1.94439L0.222656 1.99995ZM0.283212 2.45995L1.34377 2.23328L1.67821 2.08606L1.31543 2.12606L0.283212 2.45995ZM0.46099 2.88883L1.42654 2.3955L1.71154 2.16661L1.37099 2.29883L0.46099 2.88883ZM0.743212 3.25717L1.54877 2.5305L1.76488 2.2355L1.46988 2.45161L0.743212 3.25717ZM1.11154 3.53939L1.70155 2.62939L1.83377 2.28883L1.60488 2.57384L1.11154 3.53939ZM1.54043 3.71717L1.87432 2.68495L1.91432 2.32217L1.7671 2.65661L1.54043 3.71717ZM2.00043 3.77772L2.05599 2.69439L2.00043 2.33328L1.94488 2.69439L2.00043 3.77772ZM2.46043 3.71717L2.23377 2.65661L2.08655 2.32217L2.12654 2.68495L2.46043 3.71717ZM2.88932 3.53939L2.39599 2.57384L2.1671 2.28883L2.29932 2.62939L2.88932 3.53939ZM3.25766 3.25717L2.53099 2.45161L2.23599 2.2355L2.4521 2.5305L3.25766 3.25717ZM3.53988 2.88883L2.62988 2.29883L2.28932 2.16661L2.57432 2.3955L3.53988 2.88883ZM3.71766 2.45995L2.68543 2.12606L2.32266 2.08606L2.6571 2.23328L3.71766 2.45995ZM3.77821 1.99995L2.69488 1.94439L2.33377 1.99995L2.69488 2.0555L3.77821 1.99995ZM3.71766 1.53995L2.6571 1.76661L2.32266 1.91383L2.68543 1.87383L3.71766 1.53995ZM3.53988 1.11106L2.57432 1.60439L2.28932 1.83328L2.62988 1.70106L3.53988 1.11106ZM3.25766 0.742724L2.4521 1.46939L2.23599 1.76439L2.53099 1.54828L3.25766 0.742724ZM2.88932 0.460501L2.29932 1.3705L2.1671 1.71106L2.39599 1.42606L2.88932 0.460501ZM2.46043 0.282724L2.12654 1.31495L2.08655 1.67772L2.23377 1.34328L2.46043 0.282724Z" fill="#6666B3"/>
</svg>
