<svg width="29" height="41" viewBox="0 0 29 41" fill="none" xmlns="http://www.w3.org/2000/svg">
<path d="M1.42518 11.606C2.01494 10.6057 2.82478 9.75635 3.62758 8.91687L11.4707 0.716797L28.5946 18.9172V29.0869C23.0668 23.2021 16.7432 17.052 11.2097 11.1686C10.3667 11.4155 9.60378 11.8806 8.99807 12.5167C8.39236 13.1529 7.96531 13.9377 7.76007 14.7918C7.0772 17.7899 9.24573 20.6188 11.2718 22.9312L22.9892 36.3135C21.3789 37.7413 19.7686 39.1686 18.1583 40.5955L4.98062 25.0758C3.31436 23.1132 1.6086 21.0844 0.808628 18.6379C0.0566255 16.3311 0.199124 13.6955 1.42518 11.606Z" fill="#053772"/>
</svg>
