<svg width="33" height="9" viewBox="0 0 33 9" fill="none" xmlns="http://www.w3.org/2000/svg">
<path d="M30.4139 8.06998C29.8205 8.06998 29.3005 7.95331 28.8539 7.71998C28.4139 7.47998 28.0705 7.15331 27.8239 6.73998C27.5839 6.32664 27.4639 5.85664 27.4639 5.32998C27.4639 4.79664 27.5805 4.32664 27.8139 3.91998C28.0539 3.50664 28.3805 3.18331 28.7939 2.94998C29.2139 2.71664 29.6905 2.59998 30.2239 2.59998C30.7439 2.59998 31.2072 2.71331 31.6139 2.93998C32.0205 3.16664 32.3405 3.48664 32.5739 3.89998C32.8072 4.31331 32.9239 4.79998 32.9239 5.35998C32.9239 5.41331 32.9205 5.47331 32.9139 5.53998C32.9139 5.60664 32.9105 5.66998 32.9039 5.72998H28.4539V4.89998H32.2439L31.7539 5.15998C31.7605 4.85331 31.6972 4.58331 31.5639 4.34998C31.4305 4.11664 31.2472 3.93331 31.0139 3.79998C30.7872 3.66664 30.5239 3.59998 30.2239 3.59998C29.9172 3.59998 29.6472 3.66664 29.4139 3.79998C29.1872 3.93331 29.0072 4.11998 28.8739 4.35998C28.7472 4.59331 28.6839 4.86998 28.6839 5.18998V5.38998C28.6839 5.70998 28.7572 5.99331 28.9039 6.23998C29.0505 6.48664 29.2572 6.67664 29.5239 6.80998C29.7905 6.94331 30.0972 7.00998 30.4439 7.00998C30.7439 7.00998 31.0139 6.96331 31.2539 6.86998C31.4939 6.77664 31.7072 6.62998 31.8939 6.42998L32.5639 7.19998C32.3239 7.47998 32.0205 7.69664 31.6539 7.84998C31.2939 7.99664 30.8805 8.06998 30.4139 8.06998Z" fill="#008000"/>
<path d="M23.6894 7.99997L21.3994 2.65997H22.6994L24.6694 7.36997H24.0294L26.0694 2.65997H27.2694L24.9794 7.99997H23.6894Z" fill="#008000"/>
<path d="M19.379 8.00003V2.66003H20.629V8.00003H19.379ZM20.009 1.78003C19.7757 1.78003 19.5823 1.7067 19.429 1.56003C19.2823 1.41336 19.209 1.2367 19.209 1.03003C19.209 0.816696 19.2823 0.640029 19.429 0.500029C19.5823 0.353363 19.7757 0.280029 20.009 0.280029C20.2423 0.280029 20.4323 0.350029 20.579 0.490029C20.7323 0.623363 20.809 0.793363 20.809 1.00003C20.809 1.22003 20.7357 1.4067 20.589 1.56003C20.4423 1.7067 20.249 1.78003 20.009 1.78003Z" fill="#008000"/>
<path d="M17.1507 8.06998C16.564 8.06998 16.1107 7.91998 15.7907 7.61998C15.4707 7.31331 15.3107 6.86331 15.3107 6.26998V1.47998H16.5607V6.23998C16.5607 6.49331 16.624 6.68998 16.7507 6.82998C16.884 6.96998 17.0673 7.03998 17.3007 7.03998C17.5807 7.03998 17.814 6.96665 18.0007 6.81998L18.3507 7.70998C18.204 7.82998 18.024 7.91998 17.8107 7.97998C17.5973 8.03998 17.3773 8.06998 17.1507 8.06998ZM14.4307 3.69998V2.69998H17.9907V3.69998H14.4307Z" fill="#008000"/>
<path d="M11.7113 8.06998C11.1513 8.06998 10.6513 7.95331 10.2113 7.71998C9.77796 7.47998 9.43796 7.15331 9.19129 6.73998C8.94462 6.32664 8.82129 5.85664 8.82129 5.32998C8.82129 4.79664 8.94462 4.32664 9.19129 3.91998C9.43796 3.50664 9.77796 3.18331 10.2113 2.94998C10.6513 2.71664 11.1513 2.59998 11.7113 2.59998C12.2313 2.59998 12.688 2.70664 13.0813 2.91998C13.4813 3.12664 13.7846 3.43331 13.9913 3.83998L13.0313 4.39998C12.8713 4.14664 12.6746 3.95998 12.4413 3.83998C12.2146 3.71998 11.968 3.65998 11.7013 3.65998C11.3946 3.65998 11.118 3.72664 10.8713 3.85998C10.6246 3.99331 10.4313 4.18664 10.2913 4.43998C10.1513 4.68664 10.0813 4.98331 10.0813 5.32998C10.0813 5.67664 10.1513 5.97664 10.2913 6.22998C10.4313 6.47664 10.6246 6.66664 10.8713 6.79998C11.118 6.93331 11.3946 6.99998 11.7013 6.99998C11.968 6.99998 12.2146 6.93998 12.4413 6.81998C12.6746 6.69998 12.8713 6.51331 13.0313 6.25998L13.9913 6.81998C13.7846 7.21998 13.4813 7.52998 13.0813 7.74998C12.688 7.96331 12.2313 8.06998 11.7113 8.06998Z" fill="#008000"/>
<path d="M0.950195 8L4.1002 1H5.3802L8.5402 8H7.1802L4.4702 1.69H4.9902L2.2902 8H0.950195ZM2.4002 6.38L2.7502 5.36H6.5302L6.8802 6.38H2.4002Z" fill="#008000"/>
</svg>
