<svg width="20" height="20" viewBox="0 0 20 20" fill="none" xmlns="http://www.w3.org/2000/svg">
<path d="M12.2851 0.902528C12.3672 0.902381 12.4486 0.918424 12.5245 0.949738C12.6004 0.981053 12.6694 1.02703 12.7276 1.08503L18.9151 7.27253C19.0322 7.38973 19.0981 7.54868 19.0981 7.7144C19.0981 7.88013 19.0322 8.03907 18.9151 8.15628C18.3151 8.75628 17.5751 8.89128 17.0363 8.89128C16.8151 8.89128 16.6176 8.86878 16.4613 8.84253L12.5438 12.76C12.6465 13.1756 12.7134 13.5993 12.7438 14.0263C12.8013 14.9038 12.7038 16.135 11.8438 16.995C11.7266 17.1122 11.5677 17.178 11.4019 17.178C11.2362 17.178 11.0773 17.1122 10.9601 16.995L7.42382 13.46L3.44632 17.4375C3.20257 17.6813 1.92257 18.565 1.67882 18.3213C1.43507 18.0775 2.31882 16.7963 2.56257 16.5538L6.54007 12.5763L3.00507 9.04003C2.8879 8.92282 2.82208 8.76388 2.82208 8.59815C2.82208 8.43243 2.8879 8.27348 3.00507 8.15628C3.86507 7.29628 5.09632 7.19753 5.97382 7.25628C6.40083 7.28668 6.82446 7.35359 7.24007 7.45628L11.1576 3.54003C11.1261 3.34952 11.1094 3.15686 11.1076 2.96378C11.1076 2.42628 11.2426 1.68628 11.8438 1.08503C11.9609 0.968192 12.1196 0.902563 12.2851 0.902528Z" fill="#1FAF38"/>
</svg>
