<svg width="20" height="20" viewBox="0 0 20 20" fill="none" xmlns="http://www.w3.org/2000/svg">
<path d="M16.6668 5.00001C16.6668 3.19334 13.6143 1.66667 10.0002 1.66667C6.386 1.66667 3.3335 3.19334 3.3335 5.00001V6.66667C3.3335 8.47334 6.386 10 10.0002 10C13.6143 10 16.6668 8.47334 16.6668 6.66667V5.00001ZM10.0002 15.8333C6.386 15.8333 3.3335 14.3067 3.3335 12.5V15C3.3335 16.8067 6.386 18.3333 10.0002 18.3333C13.6143 18.3333 16.6668 16.8067 16.6668 15V12.5C16.6668 14.3067 13.6143 15.8333 10.0002 15.8333Z" fill="white"/>
<path d="M16.6668 8.33333C16.6668 10.14 13.6143 11.6667 10.0002 11.6667C6.386 11.6667 3.3335 10.14 3.3335 8.33333V10.8333C3.3335 12.64 6.386 14.1667 10.0002 14.1667C13.6143 14.1667 16.6668 12.64 16.6668 10.8333V8.33333Z" fill="white"/>
</svg>
