<svg width="19" height="19" viewBox="0 0 19 19" fill="none" xmlns="http://www.w3.org/2000/svg">
<path d="M15.8332 4.75C15.8332 3.03367 12.9333 1.58333 9.49984 1.58333C6.06638 1.58333 3.1665 3.03367 3.1665 4.75V6.33333C3.1665 8.04966 6.06638 9.5 9.49984 9.5C12.9333 9.5 15.8332 8.04966 15.8332 6.33333V4.75ZM9.49984 15.0417C6.06638 15.0417 3.1665 13.5913 3.1665 11.875V14.25C3.1665 15.9663 6.06638 17.4167 9.49984 17.4167C12.9333 17.4167 15.8332 15.9663 15.8332 14.25V11.875C15.8332 13.5913 12.9333 15.0417 9.49984 15.0417Z" fill="white"/>
<path d="M15.8332 7.91667C15.8332 9.633 12.9333 11.0833 9.49984 11.0833C6.06638 11.0833 3.1665 9.633 3.1665 7.91667V10.2917C3.1665 12.008 6.06638 13.4583 9.49984 13.4583C12.9333 13.4583 15.8332 12.008 15.8332 10.2917V7.91667Z" fill="white"/>
</svg>
