<svg width="20" height="20" viewBox="0 0 20 20" fill="none" xmlns="http://www.w3.org/2000/svg">
<path d="M2.5 17.5H4.19167V12.5H2.5V17.5ZM10.375 18.3333L7.93333 17.8L5.49167 17.2667C5.3548 17.2353 5.23223 17.1594 5.14323 17.0507C5.05423 16.9421 5.00384 16.807 5 16.6667V13.3333C4.99742 13.1898 5.04786 13.0503 5.14167 12.9417C5.23132 12.8273 5.35803 12.7477 5.5 12.7167L9.48333 12.225L13.475 11.6667L13.6 12.125L13.725 12.5833C13.7253 12.7395 13.6817 12.8926 13.5992 13.0252C13.5167 13.1579 13.3986 13.2646 13.2583 13.3333L11.5917 13.75L9.925 14.1667L11.275 14.7083L12.625 15.25L14.525 14.7167L16.375 14.1667C16.4552 14.1426 16.5396 14.1353 16.6228 14.1454C16.7059 14.1554 16.7861 14.1825 16.8583 14.225C16.9323 14.2665 16.997 14.3226 17.0486 14.39C17.1002 14.4573 17.1375 14.5344 17.1583 14.6167L17.3167 15.25L17.4833 15.8917C17.5033 15.9705 17.5074 16.0524 17.4956 16.1328C17.4838 16.2133 17.4561 16.2905 17.4143 16.3602C17.3725 16.4299 17.3173 16.4907 17.2519 16.539C17.1865 16.5873 17.1122 16.6222 17.0333 16.6417L14.0083 17.475L10.9833 18.3083C10.8854 18.3343 10.7847 18.3483 10.6833 18.35C10.5803 18.3564 10.4768 18.3508 10.375 18.3333ZM15.0167 7.08333L12.1 5.20833L9.18333 3.33333V10.8333L12.1 8.95833L15.0167 7.08333Z" fill="white"/>
</svg>
