<svg width="20" height="20" viewBox="0 0 20 20" fill="none" xmlns="http://www.w3.org/2000/svg">
<path d="M16.6665 6.66669H3.33317V5.00002H16.6665V6.66669ZM14.9998 1.66669H4.99984V3.33335H14.9998V1.66669ZM18.3332 10V16.6667C18.3332 17.1087 18.1576 17.5326 17.845 17.8452C17.5325 18.1578 17.1085 18.3334 16.6665 18.3334H3.33317C2.89155 18.332 2.46839 18.156 2.15612 17.8437C1.84384 17.5315 1.66782 17.1083 1.6665 16.6667V10C1.66782 9.5584 1.84384 9.13524 2.15612 8.82297C2.46839 8.51069 2.89155 8.33467 3.33317 8.33335H16.6665C17.1081 8.33467 17.5313 8.51069 17.8436 8.82297C18.1558 9.13524 18.3319 9.5584 18.3332 10ZM11.6057 14.2017L13.5415 12.5467L10.9923 12.3334L9.99984 10L9.00734 12.3334L6.45817 12.5467L8.394 14.2017L7.81067 16.6667L9.99984 15.3567L12.189 16.6667L11.6057 14.2017Z" fill="white"/>
</svg>
