<svg width="18" height="16" viewBox="0 0 18 16" fill="none" xmlns="http://www.w3.org/2000/svg">
<g clip-path="url(#clip0_136_622)">
<path d="M9.4625 9.75C10.4656 8.49687 12.75 5.45625 12.75 3.75C12.75 1.67812 11.0719 0 9 0C6.92812 0 5.25 1.67812 5.25 3.75C5.25 5.45625 7.53438 8.49687 8.5375 9.75C8.77813 10.05 9.225 10.05 9.4625 9.75ZM13 15.7188L17.5281 13.9062C17.8125 13.7937 18 13.5156 18 13.2094V4.75C18 4.21875 17.4656 3.85625 16.9719 4.05312L13.3469 5.50313C13.3313 5.54063 13.3156 5.58125 13.3 5.61875C13.2094 5.83125 13.1094 6.04688 13 6.2625V15.7188ZM0.471875 5.85313C0.1875 5.96875 0 6.24375 0 6.55V15.0125C0 15.5437 0.534375 15.9062 1.02813 15.7094L5 14.1187V6.2625C4.89062 6.04688 4.79062 5.83125 4.7 5.61875C4.525 5.20625 4.375 4.7625 4.3 4.32188L0.46875 5.85313H0.471875ZM12 7.96875C11.3594 8.94687 10.6781 9.83125 10.2437 10.375C9.60312 11.175 8.39688 11.175 7.75625 10.375C7.32188 9.83125 6.64062 8.94687 6 7.96875V14.0437L12 15.7594V7.96875Z" fill="white"/>
</g>
<defs>
<clipPath id="clip0_136_622">
<rect width="18" height="16" fill="white"/>
</clipPath>
</defs>
</svg>
