<svg width="25" height="20" viewBox="0 0 25 20" fill="none" xmlns="http://www.w3.org/2000/svg">
<g clip-path="url(#clip0_152_1763)">
<path d="M10 17.5C10.4219 17.5 10.8398 17.4805 11.25 17.4375C11.2617 16.8203 11.4219 16.1992 11.7539 15.625C12.3789 14.543 13.4609 13.8906 14.6133 13.7695L15.2656 12.6289C15.0977 12.1992 15.0039 11.7344 15.0039 11.2461C15.0039 9.17578 16.6836 7.49609 18.7539 7.49609C19.1094 7.49609 19.4492 7.54688 19.7773 7.63672C18.793 3.98828 14.7891 1.25 10 1.25C4.47656 1.25 0 4.88672 0 9.375C0 11.1367 0.691406 12.7656 1.86328 14.0977C1.78906 15.0547 1.41797 15.9062 1.02734 16.5547C0.8125 16.9141 0.59375 17.2031 0.433594 17.3984C0.351563 17.4961 0.289062 17.5703 0.242188 17.6211C0.234375 17.6328 0.226562 17.6406 0.21875 17.6484C0.207031 17.6602 0.199219 17.668 0.195312 17.6758L0.183594 17.6875C0.00390625 17.8672 -0.046875 18.1328 0.0507812 18.3672C0.148438 18.6016 0.375 18.7539 0.628906 18.7539C1.75 18.7539 2.87891 18.4062 3.81641 18C4.71094 17.6094 5.47266 17.1445 5.9375 16.8047C7.17969 17.2539 8.55469 17.5039 10.0039 17.5039L10 17.5ZM12.8359 16.25C12.1445 17.4453 12.5547 18.9727 13.75 19.6641C14.9453 20.3555 16.4727 19.9453 17.1641 18.75C17.2227 18.6484 17.2734 18.543 17.3164 18.4375H20.1797C20.2227 18.543 20.2734 18.6484 20.332 18.75C21.0234 19.9453 22.5508 20.3555 23.7461 19.6641C24.9414 18.9727 25.3516 17.4453 24.6602 16.25C24.1367 15.3438 23.1328 14.8906 22.1602 15.0234L21.4727 13.8242C21.043 14.2812 20.4961 14.6289 19.8867 14.8242L20.5312 15.9531C20.3828 16.1406 20.2656 16.3438 20.1797 16.5625H17.3125C17.2266 16.3438 17.1055 16.1406 16.9609 15.9531L18.25 13.6992C18.4102 13.7305 18.5781 13.75 18.75 13.75C20.1289 13.75 21.25 12.6289 21.25 11.25C21.25 9.87109 20.1289 8.75 18.75 8.75C17.3711 8.75 16.25 9.87109 16.25 11.25C16.25 11.7734 16.4102 12.2578 16.6875 12.6602L15.3359 15.0234C14.3594 14.8906 13.3594 15.3477 12.8359 16.25Z" fill="white"/>
</g>
<defs>
<clipPath id="clip0_152_1763">
<rect width="25" height="20" fill="white"/>
</clipPath>
</defs>
</svg>
