<svg width="20" height="25" viewBox="0 0 20 25" fill="none" xmlns="http://www.w3.org/2000/svg">
<g clip-path="url(#clip0_292_189)">
<path d="M14.2893 0.446429C14.2893 0.31622 14.3311 0.209263 14.4148 0.125558C14.4985 0.0418527 14.6055 0 14.7357 0H18.7536C18.9954 0 19.2046 0.0883557 19.3813 0.265067C19.5581 0.441778 19.6464 0.651042 19.6464 0.892857V4.91071C19.6464 5.04092 19.6046 5.14788 19.5209 5.23158C19.4372 5.31529 19.3302 5.35714 19.2 5.35714H18.3071C18.1769 5.35714 18.07 5.31529 17.9863 5.23158C17.9026 5.14788 17.8607 5.04092 17.8607 4.91071V3.04129L14.3172 6.59877C15.489 8.06827 16.075 9.73772 16.075 11.6071C16.075 13.6626 15.3891 15.4506 14.0172 16.9713C12.6454 18.4919 10.9504 19.3638 8.93213 19.5871V21.4286H10.2714C10.4016 21.4286 10.5086 21.4704 10.5923 21.5541C10.676 21.6378 10.7178 21.7448 10.7178 21.875V22.7679C10.7178 22.8981 10.676 23.005 10.5923 23.0887C10.5086 23.1724 10.4016 23.2143 10.2714 23.2143H8.93213V24.5536C8.93213 24.6838 8.89028 24.7907 8.80657 24.8744C8.72287 24.9581 8.61591 25 8.4857 25H7.59284C7.46264 25 7.35568 24.9581 7.27197 24.8744C7.18827 24.7907 7.14642 24.6838 7.14642 24.5536V23.2143H5.80713C5.67692 23.2143 5.56997 23.1724 5.48626 23.0887C5.40255 23.005 5.3607 22.8981 5.3607 22.7679V21.875C5.3607 21.7448 5.40255 21.6378 5.48626 21.5541C5.56997 21.4704 5.67692 21.4286 5.80713 21.4286H7.14642V19.5871C5.76063 19.4382 4.50272 18.9593 3.3727 18.1501C2.24268 17.341 1.3754 16.3016 0.770858 15.0321C0.16632 13.7626 -0.0801461 12.407 0.0314611 10.9654C0.180271 9.06808 0.924318 7.4242 2.2636 6.03376C3.60289 4.64332 5.21654 3.84115 7.10456 3.62723C8.20203 3.49702 9.2623 3.58538 10.2854 3.8923C11.3084 4.19922 12.2292 4.6782 13.0476 5.32924L16.6051 1.78571H14.7357C14.6055 1.78571 14.4985 1.74386 14.4148 1.66016C14.3311 1.57645 14.2893 1.46949 14.2893 1.33929V0.446429ZM8.03927 17.8571C9.75988 17.8571 11.2317 17.2456 12.4547 16.0226C13.6778 14.7996 14.2893 13.3278 14.2893 11.6071C14.2893 9.88653 13.6778 8.41471 12.4547 7.19169C11.2317 5.96866 9.75988 5.35714 8.03927 5.35714C6.31866 5.35714 4.84684 5.96866 3.62382 7.19169C2.40079 8.41471 1.78927 9.88653 1.78927 11.6071C1.78927 13.3278 2.40079 14.7996 3.62382 16.0226C4.84684 17.2456 6.31866 17.8571 8.03927 17.8571Z" fill="#EC4899"/>
</g>
<defs>
<clipPath id="clip0_292_189">
<rect width="19.65" height="25" fill="white"/>
</clipPath>
</defs>
</svg>
