<svg width="25" height="25" viewBox="0 0 25 25" fill="none" xmlns="http://www.w3.org/2000/svg">
<path d="M2.5 3.75C2.5 3.41848 2.6317 3.10054 2.86612 2.86612C3.10054 2.6317 3.41848 2.5 3.75 2.5C4.08152 2.5 4.39946 2.6317 4.63388 2.86612C4.8683 3.10054 5 3.41848 5 3.75H21.25C21.5815 3.75 21.8995 3.8817 22.1339 4.11612C22.3683 4.35054 22.5 4.66848 22.5 5C22.5 5.33152 22.3683 5.64946 22.1339 5.88388C21.8995 6.1183 21.5815 6.25 21.25 6.25H5V21.875C5 22.0408 4.93415 22.1997 4.81694 22.3169C4.69973 22.4342 4.54076 22.5 4.375 22.5H3.125C2.95924 22.5 2.80027 22.4342 2.68306 22.3169C2.56585 22.1997 2.5 22.0408 2.5 21.875V3.75ZM6.25 8.125C6.25 7.95924 6.31585 7.80027 6.43306 7.68306C6.55027 7.56585 6.70924 7.5 6.875 7.5H20.625C20.7908 7.5 20.9497 7.56585 21.0669 7.68306C21.1842 7.80027 21.25 7.95924 21.25 8.125V16.875C21.25 17.7038 20.9208 18.4987 20.3347 19.0847C19.7487 19.6708 18.9538 20 18.125 20H9.375C8.5462 20 7.75134 19.6708 7.16529 19.0847C6.57924 18.4987 6.25 17.7038 6.25 16.875V8.125ZM10 16.875C10 17.0408 10.0658 17.1997 10.1831 17.3169C10.3003 17.4342 10.4592 17.5 10.625 17.5H11.875C12.0408 17.5 12.1997 17.4342 12.3169 17.3169C12.4342 17.1997 12.5 17.0408 12.5 16.875V15.625C12.5 15.4592 12.5658 15.3003 12.6831 15.1831C12.8003 15.0658 12.9592 15 13.125 15H14.375C14.5408 15 14.6997 15.0658 14.8169 15.1831C14.9342 15.3003 15 15.4592 15 15.625V16.875C15 17.0408 15.0658 17.1997 15.1831 17.3169C15.3003 17.4342 15.4592 17.5 15.625 17.5H16.875C17.0408 17.5 17.1997 17.4342 17.3169 17.3169C17.4342 17.1997 17.5 17.0408 17.5 16.875V13.6875C17.5 13.5108 17.4626 13.3361 17.3902 13.175C17.3178 13.0138 17.2121 12.8698 17.08 12.7525L14.165 10.1625C14.0506 10.0609 13.903 10.0048 13.75 10.0048C13.597 10.0048 13.4494 10.0609 13.335 10.1625L10.42 12.75C10.2876 12.8676 10.1816 13.012 10.1092 13.1736C10.0368 13.3352 9.9996 13.5104 10 13.6875V16.875Z" fill="#1FAF38"/>
</svg>
