<svg width="23" height="23" viewBox="0 0 23 23" fill="none" xmlns="http://www.w3.org/2000/svg">
<path d="M9.38256 15.4991L9.38112 15.4948L9.108 15.4057C7.80901 14.9465 6.66936 14.1237 5.82475 13.0352C5.14177 12.1557 4.67248 11.1296 4.4539 10.0377C4.23532 8.94582 4.27343 7.8181 4.56521 6.74347C4.857 5.66884 5.39448 4.6767 6.13527 3.84531C6.87605 3.01393 7.79988 2.36603 8.83388 1.95274C9.86787 1.53944 10.9838 1.37204 12.0935 1.46375C13.2033 1.55546 14.2765 1.90376 15.2287 2.48119C16.1808 3.05862 16.9857 3.84937 17.58 4.79109C18.1743 5.7328 18.5416 6.79971 18.653 7.90766C18.6918 8.30297 18.3655 8.62497 17.9688 8.62497C17.572 8.62497 17.2543 8.30153 17.2069 7.90766C17.0786 6.8911 16.681 5.92729 16.0552 5.11595C15.4295 4.30462 14.5983 3.67523 13.6477 3.29291C12.697 2.91058 11.6615 2.78922 10.6483 2.94138C9.63501 3.09353 8.68081 3.51367 7.88441 4.15833C7.088 4.80299 6.47832 5.64874 6.11845 6.60808C5.75858 7.56742 5.66159 8.6055 5.83752 9.6149C6.01345 10.6243 6.4559 11.5684 7.1191 12.3494C7.7823 13.1304 8.64215 13.7201 9.60969 14.0573C9.85374 13.6122 10.247 13.2674 10.7203 13.0837C11.1935 12.9001 11.7164 12.8893 12.1968 13.0532C12.6773 13.2172 13.0845 13.5454 13.3467 13.9801C13.6089 14.4147 13.7094 14.928 13.6304 15.4294C13.5514 15.9309 13.298 16.3884 12.9148 16.7214C12.5317 17.0544 12.0433 17.2416 11.5358 17.2499C11.0282 17.2582 10.5339 17.0872 10.1401 16.7669C9.7462 16.4467 9.47795 15.9977 9.38256 15.4991ZM8.24263 16.6132C6.83475 16.0384 5.60386 15.1016 4.67475 13.8977C4.43859 14.2519 4.31255 14.668 4.3125 15.0937V15.8125C4.3125 18.6458 6.98625 21.5625 11.5 21.5625C16.0138 21.5625 18.6875 18.6458 18.6875 15.8125V15.0937C18.6875 14.5218 18.4603 13.9734 18.0559 13.569C17.6516 13.1646 17.1031 12.9375 16.5312 12.9375H14.375C14.6765 13.3401 14.8901 13.8016 15.002 14.292C15.1139 14.7824 15.1216 15.2909 15.0246 15.7845C14.9276 16.2781 14.7281 16.7458 14.4389 17.1574C14.1497 17.569 13.7774 17.9153 13.3459 18.1739C12.9144 18.4325 12.4335 18.5977 11.9342 18.6587C11.4349 18.7197 10.9283 18.6752 10.4473 18.5281C9.96624 18.381 9.52145 18.1345 9.14168 17.8046C8.76191 17.4748 8.45562 17.0689 8.24263 16.6132ZM15.8125 8.62497C15.8125 7.31109 15.2246 6.13378 14.2974 5.34316C13.8447 4.9597 13.3177 4.67378 12.7495 4.50327C12.1812 4.33276 11.5839 4.28134 10.9949 4.35221C10.4058 4.42309 9.83777 4.61474 9.32619 4.91518C8.81461 5.21562 8.37052 5.61838 8.0217 6.09828C7.67288 6.57818 7.42683 7.12489 7.29894 7.70422C7.17106 8.28356 7.16408 8.88304 7.27845 9.46519C7.39282 10.0473 7.62609 10.5996 7.96364 11.0875C8.3012 11.5754 8.7358 11.9884 9.24025 12.3007C9.87945 11.7825 10.6771 11.4993 11.5 11.4985C12.3225 11.4985 13.1202 11.7806 13.7597 12.2978C14.3871 11.9118 14.9051 11.3716 15.2644 10.7287C15.6238 10.0858 15.8125 9.36151 15.8125 8.62497Z" fill="white"/>
</svg>
