<svg width="17" height="17" viewBox="0 0 17 17" fill="none" xmlns="http://www.w3.org/2000/svg">
<path d="M9.69531 7.85254C9.9056 7.93555 10.1104 8.02686 10.3096 8.12646C10.5088 8.22607 10.7025 8.33952 10.8906 8.4668C10.7689 8.59961 10.6582 8.73796 10.5586 8.88184C10.459 9.02572 10.3677 9.18066 10.2847 9.34668C9.85856 9.06999 9.40479 8.8597 8.92334 8.71582C8.44189 8.57194 7.94661 8.5 7.4375 8.5C6.95052 8.5 6.48014 8.56364 6.02637 8.69092C5.57259 8.8182 5.14925 8.99528 4.75635 9.22217C4.36344 9.44906 4.00651 9.72575 3.68555 10.0522C3.36458 10.3787 3.08789 10.7384 2.85547 11.1313C2.62305 11.5243 2.4432 11.9476 2.31592 12.4014C2.18864 12.8551 2.125 13.3255 2.125 13.8125H1.0625C1.0625 13.1484 1.15934 12.5093 1.35303 11.895C1.54671 11.2808 1.82617 10.7135 2.19141 10.1934C2.55664 9.67318 2.98828 9.2111 3.48633 8.80713C3.98438 8.40316 4.54883 8.08496 5.17969 7.85254C4.55436 7.44303 4.06738 6.92839 3.71875 6.30859C3.37012 5.6888 3.19303 5.0026 3.1875 4.25C3.1875 3.66341 3.29818 3.11279 3.51953 2.59814C3.74089 2.0835 4.04248 1.63249 4.42432 1.24512C4.80615 0.857747 5.25716 0.553385 5.77734 0.332031C6.29753 0.110677 6.85091 0 7.4375 0C8.02409 0 8.57471 0.110677 9.08936 0.332031C9.604 0.553385 10.055 0.85498 10.4424 1.23682C10.8298 1.61865 11.1341 2.06966 11.3555 2.58984C11.5768 3.11003 11.6875 3.66341 11.6875 4.25C11.6875 4.61523 11.6432 4.97217 11.5547 5.3208C11.4661 5.66943 11.3333 5.9987 11.1562 6.30859C10.9792 6.61849 10.7716 6.90348 10.5337 7.16357C10.2957 7.42367 10.0163 7.65332 9.69531 7.85254ZM4.25 4.25C4.25 4.69271 4.33301 5.10498 4.49902 5.48682C4.66504 5.86865 4.89193 6.20622 5.17969 6.49951C5.46745 6.79281 5.80501 7.02246 6.19238 7.18848C6.57975 7.35449 6.99479 7.4375 7.4375 7.4375C7.87467 7.4375 8.28695 7.35449 8.67432 7.18848C9.06169 7.02246 9.39925 6.79557 9.68701 6.50781C9.97477 6.22005 10.2044 5.88249 10.376 5.49512C10.5475 5.10775 10.6305 4.69271 10.625 4.25C10.625 3.81283 10.542 3.40055 10.376 3.01318C10.21 2.62581 9.98307 2.28825 9.69531 2.00049C9.40755 1.71273 9.06722 1.48307 8.67432 1.31152C8.28141 1.13997 7.86914 1.05697 7.4375 1.0625C6.99479 1.0625 6.58252 1.14551 6.20068 1.31152C5.81885 1.47754 5.48128 1.70443 5.18799 1.99219C4.89469 2.27995 4.66504 2.62028 4.49902 3.01318C4.33301 3.40609 4.25 3.81836 4.25 4.25ZM16.4688 11.1562C16.4688 11.444 16.4245 11.7235 16.3359 11.9946C16.2474 12.2658 16.1146 12.5176 15.9375 12.75V17L13.8125 15.9375L11.6875 17V12.75C11.516 12.5176 11.3859 12.2658 11.2974 11.9946C11.2088 11.7235 11.1618 11.444 11.1562 11.1562C11.1562 10.791 11.2254 10.4479 11.3638 10.127C11.5021 9.80599 11.6903 9.52653 11.9282 9.28857C12.1662 9.05062 12.4484 8.8597 12.7749 8.71582C13.1014 8.57194 13.4473 8.5 13.8125 8.5C14.1777 8.5 14.5208 8.56917 14.8418 8.70752C15.1628 8.84587 15.4422 9.03678 15.6802 9.28027C15.9181 9.52376 16.109 9.80599 16.2529 10.127C16.3968 10.4479 16.4688 10.791 16.4688 11.1562ZM13.8125 9.5625C13.5911 9.5625 13.3836 9.604 13.1899 9.68701C12.9963 9.77002 12.8275 9.88346 12.6836 10.0273C12.5397 10.1712 12.4263 10.34 12.3433 10.5337C12.2603 10.7274 12.2188 10.9349 12.2188 11.1562C12.2188 11.3776 12.2603 11.5851 12.3433 11.7788C12.4263 11.9725 12.5397 12.1413 12.6836 12.2852C12.8275 12.429 12.9963 12.5425 13.1899 12.6255C13.3836 12.7085 13.5911 12.75 13.8125 12.75C14.0339 12.75 14.2414 12.7085 14.4351 12.6255C14.6287 12.5425 14.7975 12.429 14.9414 12.2852C15.0853 12.1413 15.1987 11.9725 15.2817 11.7788C15.3647 11.5851 15.4062 11.3776 15.4062 11.1562C15.4062 10.9349 15.3647 10.7274 15.2817 10.5337C15.1987 10.34 15.0853 10.1712 14.9414 10.0273C14.7975 9.88346 14.6287 9.77002 14.4351 9.68701C14.2414 9.604 14.0339 9.5625 13.8125 9.5625ZM14.875 15.2817V13.5884C14.543 13.7378 14.1888 13.8125 13.8125 13.8125C13.4362 13.8125 13.082 13.7378 12.75 13.5884V15.2817C12.9271 15.1932 13.1042 15.1074 13.2812 15.0244C13.4583 14.9414 13.6354 14.8501 13.8125 14.7505C13.9896 14.8446 14.1667 14.9331 14.3438 15.0161C14.5208 15.0991 14.6979 15.1877 14.875 15.2817Z" fill="white"/>
</svg>
