<svg width="20" height="20" viewBox="0 0 20 20" fill="none" xmlns="http://www.w3.org/2000/svg">
<path d="M12.6816 7.85717C13.3716 7.85717 13.9316 8.41717 13.9316 9.10717V13.9279C13.9316 14.97 13.5176 15.9694 12.7807 16.7063C12.0438 17.4432 11.0444 17.8572 10.0023 17.8572C8.96017 17.8572 7.96074 17.4432 7.22386 16.7063C6.48697 15.9694 6.073 14.97 6.073 13.9279V9.10717C6.073 8.41717 6.63228 7.85717 7.323 7.85717H12.6816ZM2.67871 7.85717L5.80871 7.85574C5.55132 8.1659 5.39635 8.54819 5.36514 8.95003L5.358 9.10717V13.9279C5.358 14.7372 5.56585 15.4986 5.92943 16.1615C5.44009 16.3752 4.90523 16.4636 4.37315 16.4188C3.84107 16.3739 3.32854 16.1973 2.88185 15.9047C2.43517 15.6121 2.06841 15.2129 1.81471 14.7431C1.561 14.2732 1.42834 13.7476 1.42871 13.2136V9.10717C1.42871 8.94296 1.46107 8.78035 1.52393 8.62865C1.58679 8.47695 1.67893 8.33912 1.79508 8.22303C1.91123 8.10695 2.04911 8.01489 2.20085 7.95212C2.35259 7.88934 2.5145 7.85708 2.67871 7.85717ZM14.1966 7.85574L17.3216 7.85717C18.0116 7.85717 18.5716 8.41717 18.5716 9.10717V13.2143C18.5718 13.748 18.4391 14.2733 18.1855 14.7429C17.9319 15.2125 17.5654 15.6116 17.119 15.9041C16.6726 16.1966 16.1604 16.3734 15.6287 16.4184C15.0969 16.4635 14.5622 16.3754 14.073 16.1622L14.113 16.0893C14.4194 15.5086 14.6059 14.8543 14.6401 14.1607L14.6459 13.9279V9.10717C14.6459 8.63145 14.4773 8.19574 14.1966 7.85574ZM10.0001 2.14288C10.3284 2.14288 10.6535 2.20755 10.9568 2.33318C11.2602 2.45882 11.5358 2.64297 11.7679 2.87512C12.0001 3.10726 12.1842 3.38286 12.3098 3.68617C12.4355 3.98949 12.5001 4.31458 12.5001 4.64288C12.5001 4.97119 12.4355 5.29628 12.3098 5.59959C12.1842 5.90291 12.0001 6.1785 11.7679 6.41065C11.5358 6.6428 11.2602 6.82695 10.9568 6.95258C10.6535 7.07822 10.3284 7.14288 10.0001 7.14288C9.3371 7.14288 8.70121 6.87949 8.23237 6.41065C7.76353 5.94181 7.50014 5.30592 7.50014 4.64288C7.50014 3.97984 7.76353 3.34396 8.23237 2.87512C8.70121 2.40628 9.3371 2.14288 10.0001 2.14288ZM15.7166 2.85717C15.998 2.85717 16.2766 2.9126 16.5366 3.02028C16.7966 3.12797 17.0328 3.28581 17.2318 3.4848C17.4308 3.68378 17.5886 3.92001 17.6963 4.17999C17.804 4.43997 17.8594 4.71862 17.8594 5.00003C17.8594 5.28143 17.804 5.56008 17.6963 5.82006C17.5886 6.08005 17.4308 6.31627 17.2318 6.51526C17.0328 6.71424 16.7966 6.87208 16.5366 6.97977C16.2766 7.08746 15.998 7.14288 15.7166 7.14288C15.1482 7.14288 14.6032 6.91712 14.2013 6.51526C13.7995 6.11339 13.5737 5.56835 13.5737 5.00003C13.5737 4.43171 13.7995 3.88666 14.2013 3.4848C14.6032 3.08293 15.1482 2.85717 15.7166 2.85717ZM4.28371 2.85717C4.56512 2.85717 4.84376 2.9126 5.10375 3.02028C5.36373 3.12797 5.59996 3.28581 5.79894 3.4848C5.99792 3.68378 6.15577 3.92001 6.26345 4.17999C6.37114 4.43997 6.42657 4.71862 6.42657 5.00003C6.42657 5.28143 6.37114 5.56008 6.26345 5.82006C6.15577 6.08005 5.99792 6.31627 5.79894 6.51526C5.59996 6.71424 5.36373 6.87208 5.10375 6.97977C4.84376 7.08746 4.56512 7.14288 4.28371 7.14288C3.71539 7.14288 3.17035 6.91712 2.76848 6.51526C2.36662 6.11339 2.14085 5.56835 2.14085 5.00003C2.14085 4.43171 2.36662 3.88666 2.76848 3.4848C3.17035 3.08293 3.71539 2.85717 4.28371 2.85717Z" fill="white"/>
</svg>
