<svg width="15" height="15" viewBox="0 0 15 15" fill="none" xmlns="http://www.w3.org/2000/svg">
<g clip-path="url(#clip0_293_233)">
<path d="M4.97696 11.6609C5.72928 11.949 6.57071 12.1296 7.50011 12.1296C11.0881 12.1296 13.3797 9.43284 14.2015 8.26386C14.5256 7.81247 14.5256 7.18747 14.2015 6.73608C13.6149 5.90218 12.9091 5.15892 12.1066 4.53006L10.1946 6.4421C10.4005 6.96633 10.449 7.53927 10.334 8.09065C10.2191 8.64202 9.94569 9.14787 9.54743 9.54613C9.14916 9.9444 8.64332 10.2178 8.09194 10.3327C7.54057 10.4477 6.96763 10.3992 6.4434 10.1933L4.97696 11.6609ZM7.40404 9.23377L7.50011 9.23608C7.73622 9.23613 7.96985 9.18801 8.18673 9.09468C8.40361 9.00135 8.59917 8.86476 8.76146 8.69326C8.92374 8.52177 9.04934 8.31898 9.13058 8.09728C9.21181 7.87559 9.24697 7.63965 9.2339 7.40391L7.40289 9.23261L7.40404 9.23377ZM7.59617 5.76617L5.76747 7.59719C5.7539 7.35333 5.79194 7.10936 5.8791 6.8812C5.96626 6.65305 6.10058 6.44585 6.27328 6.27315C6.44599 6.10045 6.65318 5.96613 6.88134 5.87897C7.10949 5.79181 7.35347 5.75377 7.59733 5.76733L7.59617 5.76617ZM8.55798 4.80553C8.03375 4.59958 7.46081 4.55111 6.90943 4.66607C6.35806 4.78102 5.85221 5.05439 5.45395 5.45265C5.05568 5.85092 4.78231 6.35676 4.66736 6.90814C4.55241 7.45951 4.60088 8.03245 4.80682 8.55668L2.89363 10.471C2.09104 9.84183 1.38521 9.09817 0.79872 8.26386C0.474646 7.81247 0.474646 7.19905 0.79872 6.73608C1.62048 5.5671 3.91215 2.87034 7.50011 2.87034C8.42951 2.87034 9.27094 3.0509 10.0233 3.33909L8.55798 4.80553ZM7.40404 9.23377L7.50011 9.23608C7.73622 9.23613 7.96985 9.18801 8.18673 9.09468C8.40361 9.00135 8.59917 8.86476 8.76146 8.69326C8.92374 8.52177 9.04934 8.31898 9.13058 8.09728C9.21181 7.87559 9.24697 7.63965 9.2339 7.40391L7.40289 9.23261L7.40404 9.23377ZM7.59617 5.76617C7.35231 5.75261 7.10834 5.79065 6.88018 5.87781C6.65203 5.96497 6.44483 6.09929 6.27213 6.27199C6.09943 6.44469 5.96511 6.65189 5.87795 6.88004C5.79079 7.1082 5.75275 7.35218 5.76631 7.59604L7.59733 5.76733L7.59617 5.76617ZM13.1332 2.61108C13.2242 2.51777 13.2774 2.39403 13.2824 2.26379C13.2874 2.13355 13.244 2.00607 13.1605 1.906C13.077 1.80593 12.9593 1.74039 12.8303 1.72204C12.7013 1.7037 12.57 1.73385 12.4619 1.80668L12.389 1.86687L1.86816 12.3889C1.77813 12.4823 1.72575 12.6056 1.72105 12.7353C1.71635 12.8649 1.75968 12.9917 1.84272 13.0914C1.92575 13.1911 2.04266 13.2566 2.17103 13.2754C2.29939 13.2942 2.43017 13.2649 2.5383 13.1933L2.61122 13.1331L13.1332 2.61108Z" fill="white"/>
</g>
<defs>
<clipPath id="clip0_293_233">
<rect width="13.8889" height="13.8889" fill="white" transform="translate(0.555664 0.555603)"/>
</clipPath>
</defs>
</svg>
