<svg width="19" height="20" viewBox="0 0 19 20" fill="none" xmlns="http://www.w3.org/2000/svg">
<path d="M7.74987 1.66671C8.79237 1.66671 9.7832 1.89171 10.674 2.29671C10.2442 2.67791 9.9587 3.19556 9.8657 3.76254C8.79417 3.30786 7.60467 3.21045 6.47344 3.48475C5.34222 3.75904 4.32944 4.39045 3.58517 5.28542C2.84089 6.18038 2.40471 7.2913 2.34125 8.45358C2.2778 9.61585 2.59044 10.7677 3.23285 11.7383C3.87527 12.709 4.81328 13.4469 5.90792 13.8427C7.00256 14.2386 8.19559 14.2712 9.31025 13.9359C10.4249 13.6006 11.4019 12.9151 12.0965 11.9811C12.7911 11.047 13.1663 9.91405 13.1665 8.75004L13.1624 8.52587C13.609 8.92587 14.1949 9.16337 14.8215 9.16671C14.7387 10.6129 14.2123 11.9986 13.314 13.135L16.3574 16.1784C16.5092 16.3355 16.5932 16.546 16.5913 16.7645C16.5894 16.983 16.5017 17.192 16.3472 17.3466C16.1927 17.5011 15.9837 17.5887 15.7652 17.5906C15.5467 17.5925 15.3362 17.5085 15.179 17.3567L12.1357 14.3134C11.2486 15.0125 10.2072 15.4893 9.09832 15.7041C7.98946 15.9189 6.84531 15.8654 5.76133 15.5481C4.67734 15.2308 3.68496 14.6589 2.86696 13.88C2.04896 13.1012 1.42906 12.138 1.05898 11.0709C0.688909 10.0038 0.579385 8.86365 0.739549 7.74559C0.899713 6.62753 1.32492 5.56399 1.9797 4.64368C2.63448 3.72337 3.49984 2.97298 4.5036 2.45512C5.50735 1.93726 6.62039 1.66694 7.74987 1.66671ZM7.74987 4.16671C8.52237 4.16671 9.2507 4.35837 9.88986 4.69587C9.98111 5.11705 10.1797 5.50748 10.4663 5.82929C10.7529 6.15109 11.1179 6.39335 11.5257 6.53254L11.8157 6.63171C12.2781 7.51887 12.4375 8.53296 12.2696 9.51919C12.1017 10.5054 11.6158 11.4097 10.8859 12.0939C10.156 12.7781 9.22231 13.2047 8.2273 13.3086C7.23228 13.4125 6.23059 13.188 5.37511 12.6693C4.51963 12.1507 3.85734 11.3664 3.48932 10.4361C3.1213 9.50581 3.06776 8.48067 3.33688 7.51712C3.60599 6.55357 4.18298 5.70453 4.97978 5.09958C5.77659 4.49464 6.74944 4.16701 7.74987 4.16671ZM14.8332 0.833374C14.9891 0.833374 15.1419 0.877106 15.2742 0.9596C15.4064 1.04209 15.5129 1.16004 15.5815 1.30004L15.6215 1.39754L15.7299 1.71254C15.8442 2.04769 16.0284 2.35473 16.2704 2.61333C16.5123 2.87192 16.8064 3.07617 17.1332 3.21254L17.2874 3.27087L17.6024 3.37837C17.7584 3.43159 17.8951 3.52987 17.9952 3.66079C18.0953 3.7917 18.1544 3.94937 18.1649 4.11385C18.1755 4.27834 18.137 4.44225 18.0543 4.58486C17.9717 4.72747 17.8486 4.84237 17.7007 4.91504L17.6024 4.95504L17.2874 5.06337C16.9522 5.17771 16.6452 5.36194 16.3866 5.60387C16.128 5.8458 15.9237 6.1399 15.7874 6.46671L15.729 6.62087L15.6215 6.93587C15.5682 7.09182 15.4699 7.22846 15.3389 7.32851C15.2079 7.42856 15.0502 7.48753 14.8858 7.49797C14.7213 7.50841 14.5574 7.46984 14.4149 7.38714C14.2723 7.30444 14.1575 7.18133 14.0849 7.03337L14.0449 6.93587L13.9365 6.62087C13.8222 6.28572 13.638 5.97868 13.396 5.72009C13.1541 5.46149 12.86 5.25725 12.5332 5.12087L12.379 5.06254L12.064 4.95504C11.908 4.90182 11.7713 4.80354 11.6712 4.67263C11.5711 4.54171 11.512 4.38404 11.5015 4.21956C11.4909 4.05508 11.5294 3.89117 11.6121 3.74856C11.6947 3.60595 11.8178 3.49104 11.9657 3.41837L12.064 3.37837L12.379 3.27004C12.7142 3.15571 13.0212 2.97147 13.2798 2.72955C13.5384 2.48762 13.7427 2.19351 13.879 1.86671L13.9374 1.71254L14.0449 1.39754C14.101 1.23303 14.2072 1.09019 14.3486 0.989032C14.4899 0.887869 14.6594 0.833443 14.8332 0.833374Z" fill="white"/>
</svg>
