<svg width="14" height="19" viewBox="0 0 14 19" fill="none" xmlns="http://www.w3.org/2000/svg">
<path fill-rule="evenodd" clip-rule="evenodd" d="M7.00014 4.83334C8.29379 4.83329 9.5371 5.33464 10.4689 6.23206C11.4006 7.12948 11.9483 8.3531 11.9968 9.64584L12.0001 9.83334V15.6667H12.8335C13.0459 15.6669 13.2502 15.7482 13.4046 15.894C13.5591 16.0399 13.652 16.2391 13.6644 16.4512C13.6769 16.6632 13.6079 16.872 13.4716 17.0349C13.3353 17.1977 13.1419 17.3024 12.931 17.3275L12.8335 17.3333H1.1668C0.954403 17.3331 0.750109 17.2518 0.595662 17.106C0.441216 16.9602 0.348274 16.7609 0.335826 16.5488C0.323379 16.3368 0.392365 16.128 0.52869 15.9651C0.665015 15.8023 0.858389 15.6976 1.0693 15.6725L1.1668 15.6667H2.00014V9.83334C2.00014 8.50726 2.52692 7.23549 3.4646 6.2978C4.40228 5.36012 5.67405 4.83334 7.00014 4.83334ZM6.28597 8.98834L5.04347 11.0583C4.96676 11.1861 4.92534 11.3319 4.92342 11.4808C4.9215 11.6298 4.95915 11.7766 5.03254 11.9063C5.10593 12.0359 5.21241 12.1438 5.34112 12.2188C5.46983 12.2938 5.61615 12.3334 5.76514 12.3333H6.77847L6.28597 13.1542C6.17687 13.3434 6.14641 13.5679 6.20115 13.7793C6.25589 13.9907 6.39144 14.1722 6.57865 14.2847C6.76586 14.3972 6.98974 14.4317 7.20214 14.3808C7.41453 14.3299 7.59844 14.1976 7.7143 14.0125L8.9568 11.9417C9.03351 11.814 9.07493 11.6682 9.07686 11.5192C9.07878 11.3702 9.04112 11.2234 8.96773 11.0937C8.89435 10.9641 8.78786 10.8562 8.65915 10.7812C8.53044 10.7062 8.38412 10.6666 8.23514 10.6667H7.2218L7.7143 9.84584C7.8234 9.65663 7.85386 9.43216 7.79912 9.22072C7.74439 9.00928 7.60883 8.82778 7.42162 8.71529C7.23442 8.60279 7.01053 8.56828 6.79814 8.61919C6.58574 8.6701 6.40183 8.80236 6.28597 8.9875V8.98834ZM1.61847 3.28251L1.6968 3.35167L2.28597 3.94084C2.43543 4.0908 2.5222 4.29203 2.52866 4.50366C2.53512 4.71528 2.46079 4.92143 2.32076 5.08024C2.18073 5.23904 1.98551 5.33859 1.77474 5.35867C1.56397 5.37875 1.35346 5.31785 1.18597 5.18834L1.10764 5.11917L0.518469 4.53001C0.369013 4.38004 0.282241 4.17881 0.275779 3.96719C0.269317 3.75556 0.343649 3.54941 0.483677 3.39061C0.623705 3.2318 0.818929 3.13225 1.0297 3.11217C1.24047 3.09209 1.45098 3.153 1.61847 3.28251ZM13.4818 3.35167C13.638 3.50794 13.7258 3.71987 13.7258 3.94084C13.7258 4.16181 13.638 4.37373 13.4818 4.53001L12.8926 5.11917C12.8158 5.19876 12.7238 5.26225 12.6221 5.30592C12.5205 5.3496 12.4111 5.37259 12.3005 5.37355C12.1898 5.37451 12.0801 5.35342 11.9777 5.31152C11.8753 5.26962 11.7822 5.20774 11.704 5.1295C11.6257 5.05126 11.5639 4.95821 11.522 4.8558C11.4801 4.75339 11.459 4.64365 11.4599 4.533C11.4609 4.42235 11.4839 4.313 11.5276 4.21133C11.5712 4.10966 11.6347 4.01771 11.7143 3.94084L12.3035 3.35167C12.4597 3.19545 12.6717 3.10768 12.8926 3.10768C13.1136 3.10768 13.3255 3.19545 13.4818 3.35167ZM7.00014 0.666672C7.22115 0.666672 7.43311 0.754469 7.58939 0.910749C7.74567 1.06703 7.83347 1.27899 7.83347 1.50001V2.33334C7.83347 2.55435 7.74567 2.76631 7.58939 2.92259C7.43311 3.07887 7.22115 3.16667 7.00014 3.16667C6.77912 3.16667 6.56716 3.07887 6.41088 2.92259C6.2546 2.76631 6.1668 2.55435 6.1668 2.33334V1.50001C6.1668 1.27899 6.2546 1.06703 6.41088 0.910749C6.56716 0.754469 6.77912 0.666672 7.00014 0.666672Z" fill="white"/>
</svg>
