<svg width="21" height="21" viewBox="0 0 21 21" fill="none" xmlns="http://www.w3.org/2000/svg">
<path d="M20.9169 3.72919C20.9169 3.72919 20.9168 16.7825 20.9168 17.7917C20.9168 19.5176 16.2531 20.9167 10.5002 20.9167C4.74719 20.9167 0.0835117 19.5176 0.0835117 17.7917C0.0835117 16.8241 0.0834961 3.72919 0.0834961 3.72919" stroke="black" stroke-width="1.66667" stroke-linecap="round" stroke-linejoin="round"/>
<path d="M20.9168 13.1042C20.9168 14.8301 16.2531 16.2292 10.5002 16.2292C4.74719 16.2292 0.0834961 14.8301 0.0834961 13.1042" stroke="black" stroke-width="1.66667" stroke-linecap="round" stroke-linejoin="round"/>
<path d="M20.9168 8.41669C20.9168 10.1426 16.2531 11.5417 10.5002 11.5417C4.74719 11.5417 0.0834961 10.1426 0.0834961 8.41669" stroke="black" stroke-width="1.66667" stroke-linecap="round" stroke-linejoin="round"/>
<path d="M10.5002 6.33334C16.2531 6.33334 20.9168 4.93423 20.9168 3.20834C20.9168 1.48245 16.2531 0.0833435 10.5002 0.0833435C4.7472 0.0833435 0.0834961 1.48245 0.0834961 3.20834C0.0834961 4.93423 4.7472 6.33334 10.5002 6.33334Z" fill="#2F88FF" stroke="black" stroke-width="1.66667" stroke-linecap="round" stroke-linejoin="round"/>
</svg>
