<svg width="20" height="20" viewBox="0 0 20 20" fill="none" xmlns="http://www.w3.org/2000/svg">
<path d="M17.5002 4.16667C16.5752 3.875 15.5585 3.75 14.5835 3.75C12.9585 3.75 11.2085 4.08333 10.0002 5C8.79183 4.08333 7.04183 3.75 5.41683 3.75C3.79183 3.75 2.04183 4.08333 0.833496 5V17.2083C0.833496 17.4167 1.04183 17.625 1.25016 17.625C1.3335 17.625 1.37516 17.5833 1.4585 17.5833C2.5835 17.0417 4.2085 16.6667 5.41683 16.6667C7.04183 16.6667 8.79183 17 10.0002 17.9167C11.1252 17.2083 13.1668 16.6667 14.5835 16.6667C15.9585 16.6667 17.3752 16.9167 18.5418 17.5417C18.6252 17.5833 18.6668 17.5833 18.7502 17.5833C18.9585 17.5833 19.1668 17.375 19.1668 17.1667V5C18.6668 4.625 18.1252 4.375 17.5002 4.16667ZM2.50016 15.4167V5.83333C3.41683 5.54167 4.41683 5.41667 5.41683 5.41667C6.5335 5.41667 8.02516 5.75833 9.16683 6.24167V15.825C8.02516 15.3417 6.5335 15 5.41683 15C4.41683 15 3.41683 15.125 2.50016 15.4167ZM17.5002 15.4167C16.5835 15.125 15.5835 15 14.5835 15C13.4668 15 11.9752 15.3417 10.8335 15.825V6.24167C11.9752 5.75 13.4668 5.41667 14.5835 5.41667C15.5835 5.41667 16.5835 5.54167 17.5002 5.83333V15.4167Z" fill="white"/>
<path opacity="0.3" d="M9.16667 6.24163C8.025 5.75829 6.53333 5.41663 5.41667 5.41663C4.41667 5.41663 3.41667 5.54163 2.5 5.83329V15.4166C3.41667 15.125 4.41667 15 5.41667 15C6.53333 15 8.025 15.3416 9.16667 15.825V6.24163Z" fill="white"/>
<path d="M14.5832 8.75C15.3165 8.75 16.0248 8.825 16.6665 8.96667V7.7C16.0082 7.575 15.2998 7.5 14.5832 7.5C13.5165 7.5 12.5332 7.63333 11.6665 7.89167V9.2C12.4915 8.90833 13.4832 8.75 14.5832 8.75ZM14.5832 10.9667C15.3165 10.9667 16.0248 11.0417 16.6665 11.1833V9.91667C16.0082 9.79167 15.2998 9.71667 14.5832 9.71667C13.5165 9.71667 12.5332 9.85 11.6665 10.1083V11.4167C12.4915 11.1333 13.4832 10.9667 14.5832 10.9667ZM14.5832 13.1917C15.3165 13.1917 16.0248 13.2667 16.6665 13.4083V12.1417C16.0082 12.0167 15.2998 11.9417 14.5832 11.9417C13.5165 11.9417 12.5332 12.075 11.6665 12.3333V13.6417C12.4915 13.35 13.4832 13.1917 14.5832 13.1917Z" fill="white"/>
</svg>
