<svg width="25" height="25" viewBox="0 0 25 25" fill="none" xmlns="http://www.w3.org/2000/svg">
<path opacity="0.3" d="M12.5003 4.16666C9.62533 4.16666 7.29199 6.49999 7.29199 9.37499C7.29199 12.3437 10.3337 16.8854 12.5003 19.6667C14.6982 16.8646 17.7087 12.375 17.7087 9.37499C17.7087 6.49999 15.3753 4.16666 12.5003 4.16666ZM12.5003 11.9792C11.8097 11.9792 11.1473 11.7048 10.6589 11.2164C10.1705 10.728 9.89616 10.0657 9.89616 9.37499C9.89616 8.68432 10.1705 8.02194 10.6589 7.53357C11.1473 7.04519 11.8097 6.77082 12.5003 6.77082C13.191 6.77082 13.8534 7.04519 14.3417 7.53357C14.8301 8.02194 15.1045 8.68432 15.1045 9.37499C15.1045 10.0657 14.8301 10.728 14.3417 11.2164C13.8534 11.7048 13.191 11.9792 12.5003 11.9792Z" fill="#008000"/>
<path d="M12.4997 2.08334C8.46842 2.08334 5.20801 5.34376 5.20801 9.37501C5.20801 14.8438 12.4997 22.9167 12.4997 22.9167C12.4997 22.9167 19.7913 14.8438 19.7913 9.37501C19.7913 5.34376 16.5309 2.08334 12.4997 2.08334ZM7.29134 9.37501C7.29134 6.50001 9.62467 4.16668 12.4997 4.16668C15.3747 4.16668 17.708 6.50001 17.708 9.37501C17.708 12.375 14.708 16.8646 12.4997 19.6667C10.333 16.8854 7.29134 12.3438 7.29134 9.37501Z" fill="#008000"/>
<path d="M12.4997 11.9792C13.9379 11.9792 15.1038 10.8133 15.1038 9.37501C15.1038 7.93677 13.9379 6.77084 12.4997 6.77084C11.0614 6.77084 9.89551 7.93677 9.89551 9.37501C9.89551 10.8133 11.0614 11.9792 12.4997 11.9792Z" fill="#008000"/>
</svg>
