<svg width="20" height="20" viewBox="0 0 20 20" fill="none" xmlns="http://www.w3.org/2000/svg">
<path opacity="0.3" d="M12.5002 14.1667H7.50016V13.3333H4.16683V15.8333H15.8335V13.3333H12.5002V14.1667ZM3.3335 11.6667H7.50016V9.16667H12.5002V11.6667H16.6668V7.5H3.3335V11.6667Z" fill="white"/>
<path d="M16.6665 5.83333H13.3332V4.16667L11.6665 2.5H8.33317L6.6665 4.16667V5.83333H3.33317C2.4165 5.83333 1.6665 6.58333 1.6665 7.5V11.6667C1.6665 12.2917 1.99984 12.8167 2.49984 13.1083V15.8333C2.49984 16.7583 3.2415 17.5 4.1665 17.5H15.8332C16.7582 17.5 17.4998 16.7583 17.4998 15.8333V13.1C17.9915 12.8083 18.3332 12.275 18.3332 11.6667V7.5C18.3332 6.58333 17.5832 5.83333 16.6665 5.83333ZM8.33317 4.16667H11.6665V5.83333H8.33317V4.16667ZM15.8332 15.8333H4.1665V13.3333H7.49984V14.1667H12.4998V13.3333H15.8332V15.8333ZM9.1665 12.5V10.8333H10.8332V12.5H9.1665ZM16.6665 11.6667H12.4998V9.16667H7.49984V11.6667H3.33317V7.5H16.6665V11.6667Z" fill="white"/>
</svg>
