<svg width="20" height="20" viewBox="0 0 20 20" fill="none" xmlns="http://www.w3.org/2000/svg">
<path opacity="0.3" d="M13.3332 6.31665L8.74984 4.31665L4.1665 6.31665V9.31665C4.1665 12.2333 6.10817 14.9333 8.74984 15.7667C8.95817 15.7 9.15817 15.6 9.35817 15.5167C9.23317 15.0917 9.1665 14.6333 9.1665 14.1666C9.1665 11.6916 10.9665 9.64165 13.3332 9.24165V6.31665Z" fill="white"/>
<path opacity="0.3" d="M14.1668 10.8334C12.3252 10.8334 10.8335 12.325 10.8335 14.1667C10.8335 16.0084 12.3252 17.5 14.1668 17.5C16.0085 17.5 17.5002 16.0084 17.5002 14.1667C17.5002 12.325 16.0085 10.8334 14.1668 10.8334ZM14.1668 11.9834C14.6835 11.9834 15.1002 12.4084 15.1002 12.9167C15.1002 13.425 14.6752 13.85 14.1668 13.85C13.6585 13.85 13.2335 13.425 13.2335 12.9167C13.2335 12.4084 13.6502 11.9834 14.1668 11.9834ZM14.1668 16.4584C13.3918 16.4584 12.7168 16.075 12.3002 15.4834C12.3418 14.8834 13.5585 14.5834 14.1668 14.5834C14.7752 14.5834 15.9918 14.8834 16.0335 15.4834C15.6168 16.075 14.9418 16.4584 14.1668 16.4584Z" fill="white"/>
<path d="M14.1667 13.8499C14.6822 13.8499 15.1001 13.4321 15.1001 12.9166C15.1001 12.4011 14.6822 11.9833 14.1667 11.9833C13.6513 11.9833 13.2334 12.4011 13.2334 12.9166C13.2334 13.4321 13.6513 13.8499 14.1667 13.8499Z" fill="white"/>
<path d="M15 9.24167V5.225L8.75 2.5L2.5 5.225V9.31667C2.5 13.1 5.16667 16.6417 8.75 17.5C9.20833 17.3917 9.65 17.2333 10.0833 17.0417C10.5425 17.6986 11.1535 18.2349 11.8644 18.6048C12.5754 18.9748 13.3652 19.1676 14.1667 19.1667C16.925 19.1667 19.1667 16.925 19.1667 14.1667C19.1667 11.6917 17.3667 9.64167 15 9.24167ZM9.16667 14.1667C9.16667 14.6333 9.23333 15.0917 9.35833 15.5167C9.15833 15.6083 8.95833 15.7 8.75 15.7667C6.10833 14.9333 4.16667 12.2333 4.16667 9.31667V6.31667L8.75 4.31667L13.3333 6.31667V9.24167C10.9667 9.64167 9.16667 11.6917 9.16667 14.1667ZM14.1667 17.5C12.325 17.5 10.8333 16.0083 10.8333 14.1667C10.8333 12.325 12.325 10.8333 14.1667 10.8333C16.0083 10.8333 17.5 12.325 17.5 14.1667C17.5 16.0083 16.0083 17.5 14.1667 17.5Z" fill="white"/>
<path d="M14.1665 14.5834C13.5581 14.5834 12.3415 14.8834 12.2998 15.4834C12.7165 16.075 13.3998 16.4584 14.1665 16.4584C14.9331 16.4584 15.6165 16.075 16.0331 15.4834C15.9915 14.8834 14.7748 14.5834 14.1665 14.5834Z" fill="white"/>
</svg>
