<svg width="20" height="20" viewBox="0 0 20 20" fill="none" xmlns="http://www.w3.org/2000/svg">
<path opacity="0.3" d="M16.6668 5H3.3335L10.0002 9.15833L16.6668 5ZM3.3335 6.66667V15H16.6668V6.66667L10.0002 10.8333L3.3335 6.66667Z" fill="white"/>
<path d="M16.6665 3.33333H3.33317C2.4165 3.33333 1.6665 4.08333 1.6665 4.99999V15C1.6665 15.9167 2.4165 16.6667 3.33317 16.6667H16.6665C17.5832 16.6667 18.3332 15.9167 18.3332 15V4.99999C18.3332 4.08333 17.5832 3.33333 16.6665 3.33333ZM16.6665 4.99999L9.99984 9.15833L3.33317 4.99999H16.6665ZM16.6665 15H3.33317V6.66666L9.99984 10.8333L16.6665 6.66666V15Z" fill="white"/>
</svg>
