<svg width="25" height="25" viewBox="0 0 25 25" fill="none" xmlns="http://www.w3.org/2000/svg">
<g clip-path="url(#clip0_292_183)">
<path d="M0.532423 12.3504C0.531842 14.4509 1.08068 16.5018 2.12428 18.3096L0.432617 24.4861L6.75355 22.8288C8.50184 23.7805 10.4607 24.2792 12.4512 24.2794H12.4565C19.0277 24.2794 24.3768 18.9322 24.3796 12.3598C24.3809 9.175 23.1417 6.18023 20.8904 3.92713C18.6394 1.67423 15.6457 0.43285 12.456 0.431396C5.88398 0.431396 0.535233 5.7783 0.53252 12.3504" fill="url(#paint0_linear_292_183)"/>
<path d="M0.106612 12.3465C0.105934 14.5226 0.674441 16.6469 1.75526 18.5194L0.00292969 24.9173L6.55051 23.2006C8.35458 24.1842 10.3858 24.7028 12.4526 24.7036H12.458C19.2649 24.7036 24.8062 19.1641 24.8091 12.3564C24.8103 9.05717 23.5266 5.95475 21.1948 3.62093C18.8627 1.2874 15.7619 0.00135659 12.458 0C5.64983 0 0.109325 5.53876 0.106612 12.3465ZM4.00593 18.1969L3.76146 17.8088C2.73374 16.1747 2.1913 14.2863 2.19208 12.3473C2.19421 6.68886 6.79925 2.08527 12.4618 2.08527C15.2041 2.08643 17.7812 3.15543 19.7196 5.09496C21.6579 7.03469 22.7244 9.61318 22.7238 12.3556C22.7212 18.0141 18.1161 22.6182 12.458 22.6182H12.4539C10.6116 22.6172 8.80467 22.1225 7.2289 21.1875L6.8539 20.9651L2.96843 21.9838L4.00593 18.1969Z" fill="url(#paint1_linear_292_183)"/>
<path d="M9.37108 7.18489C9.13988 6.67103 8.89657 6.66066 8.6767 6.65165C8.49666 6.6439 8.29085 6.64448 8.08523 6.64448C7.87942 6.64448 7.54502 6.7219 7.26236 7.03053C6.97942 7.33944 6.18213 8.08595 6.18213 9.60427C6.18213 11.1226 7.28804 12.59 7.44221 12.7961C7.59657 13.0018 9.57719 16.2173 12.714 17.4544C15.321 18.4824 15.8515 18.2779 16.4173 18.2264C16.9832 18.175 18.2433 17.48 18.5003 16.7594C18.7576 16.0389 18.7576 15.4212 18.6805 15.2922C18.6033 15.1636 18.3975 15.0863 18.0889 14.9321C17.7803 14.7778 16.2629 14.0311 15.9801 13.9281C15.6971 13.8252 15.4914 13.7738 15.2856 14.0829C15.0798 14.3914 14.4888 15.0863 14.3087 15.2922C14.1287 15.4985 13.9486 15.5241 13.6401 15.3698C13.3313 15.2149 12.3374 14.8894 11.1582 13.8382C10.2408 13.0202 9.62137 12.01 9.44133 11.701C9.2613 11.3924 9.42205 11.2252 9.5768 11.0714C9.71546 10.9331 9.88552 10.7111 10.04 10.5309C10.1939 10.3507 10.2452 10.2221 10.3481 10.0163C10.4511 9.81027 10.3996 9.63004 10.3225 9.47568C10.2452 9.32132 9.6455 7.79506 9.37108 7.18489Z" fill="white"/>
</g>
<defs>
<linearGradient id="paint0_linear_292_183" x1="1197.78" y1="2405.91" x2="1197.78" y2="0.431396" gradientUnits="userSpaceOnUse">
<stop stop-color="#1FAF38"/>
<stop offset="1" stop-color="#60D669"/>
</linearGradient>
<linearGradient id="paint1_linear_292_183" x1="1240.31" y1="2491.73" x2="1240.31" y2="0" gradientUnits="userSpaceOnUse">
<stop stop-color="#F9F9F9"/>
<stop offset="1" stop-color="white"/>
</linearGradient>
<clipPath id="clip0_292_183">
<rect width="24.8125" height="25" fill="white"/>
</clipPath>
</defs>
</svg>
