<svg width="14" height="14" viewBox="0 0 14 14" fill="none" xmlns="http://www.w3.org/2000/svg">
<path d="M12.4424 11.1037C12.3692 11.4322 12.1875 11.7264 11.9268 11.9391C11.6419 12.228 11.3024 12.4575 10.9281 12.6141C10.5537 12.7707 10.152 12.8514 9.74626 12.8514H9.55668C8.70502 12.8052 7.87113 12.5896 7.10376 12.2173H7.09793C6.92001 12.1345 6.73626 12.0517 6.55834 11.9507C5.66258 11.4485 4.84097 10.8242 4.11709 10.0957C3.17767 9.21335 2.40676 8.1673 1.84209 7.00874C1.542 6.3738 1.3417 5.69636 1.24826 5.00032C1.11086 4.27174 1.19351 3.51875 1.48568 2.83732C1.67012 2.52989 1.8954 2.24889 2.15534 2.00199C2.27231 1.86971 2.41531 1.763 2.57541 1.68853C2.7355 1.61405 2.90924 1.57341 3.08576 1.56915C3.27774 1.59037 3.46359 1.64951 3.63252 1.74314C3.80145 1.83677 3.9501 1.96302 4.06984 2.11457C4.33643 2.40449 4.66193 2.70665 4.92909 2.98549L5.29659 3.34715C5.51243 3.53849 5.64601 3.80565 5.66993 4.09382C5.66993 4.35807 5.57251 4.61299 5.39693 4.81074C5.28321 4.94904 5.1625 5.08143 5.03526 5.2074L4.91684 5.33165C4.84801 5.39582 4.79551 5.47515 4.76284 5.56324C4.73368 5.64996 4.72201 5.73882 4.72784 5.82982C4.82176 6.08124 4.96934 6.3099 5.15951 6.49949C5.45643 6.90199 5.75276 7.25199 6.05493 7.63115C6.60148 8.26566 7.25012 8.80448 7.97409 9.2254C8.04818 9.27965 8.13334 9.31582 8.22376 9.33157C8.30193 9.3374 8.38126 9.32574 8.45476 9.29657C8.66184 9.17465 8.84559 9.01832 8.99959 8.83399C9.20669 8.58037 9.504 8.41687 9.82909 8.37782C10.1419 8.38212 10.4404 8.51004 10.6592 8.73365C10.7776 8.83398 10.9077 8.97049 11.0325 9.10115L11.2098 9.28432L11.3936 9.46223L11.708 9.7819C11.8955 9.94835 12.0712 10.1263 12.2353 10.3157C12.3998 10.5432 12.4739 10.8249 12.4424 11.1037ZM10.3156 7.04432C10.1981 7.0431 10.0857 6.99588 10.0026 6.91278C9.91953 6.82969 9.87231 6.71733 9.87109 6.59982C9.87171 6.26427 9.80607 5.9319 9.67795 5.62178C9.54982 5.31166 9.36173 5.02988 9.12446 4.79261C8.8872 4.55535 8.60542 4.36726 8.2953 4.23913C7.98517 4.11101 7.65281 4.04537 7.31726 4.04599C7.19937 4.04599 7.08631 3.99915 7.00295 3.91579C6.91959 3.83243 6.87276 3.71937 6.87276 3.60149C6.87276 3.4836 6.91959 3.37054 7.00295 3.28718C7.08631 3.20382 7.19937 3.15699 7.31726 3.15699C7.76957 3.15629 8.21758 3.24487 8.63559 3.41765C9.05361 3.59042 9.43342 3.84399 9.75325 4.16383C10.0731 4.48366 10.3267 4.86347 10.4994 5.28149C10.6722 5.6995 10.7608 6.14751 10.7601 6.59982C10.7602 6.65824 10.7489 6.7161 10.7266 6.7701C10.7043 6.8241 10.6716 6.87317 10.6302 6.91447C10.5889 6.95578 10.5399 6.98851 10.4859 7.0108C10.4319 7.03308 10.374 7.04447 10.3156 7.04432Z" fill="white"/>
<path d="M12.3716 6.83669C12.2542 6.83548 12.1419 6.78834 12.0589 6.70536C11.9758 6.62239 11.9285 6.51018 11.9271 6.39277C11.928 5.82105 11.8162 5.25476 11.598 4.72629C11.3799 4.19783 11.0596 3.71758 10.6557 3.31301C10.2517 2.90844 9.77192 2.5875 9.24378 2.36855C8.71564 2.1496 8.14951 2.03695 7.57779 2.03702C7.5181 2.03919 7.45859 2.0293 7.4028 2.00795C7.34702 1.9866 7.29612 1.95423 7.25312 1.91277C7.21013 1.8713 7.17594 1.8216 7.15258 1.76663C7.12922 1.71166 7.11719 1.65254 7.11719 1.59282C7.11719 1.53309 7.12922 1.47397 7.15258 1.419C7.17594 1.36403 7.21013 1.31433 7.25312 1.27286C7.29612 1.2314 7.34702 1.19903 7.4028 1.17768C7.45859 1.15633 7.5181 1.14644 7.57779 1.14861C8.26619 1.14861 8.94783 1.28429 9.58376 1.54791C10.2197 1.81152 10.7974 2.1979 11.2839 2.68494C11.7704 3.17198 12.1561 3.75014 12.4191 4.38636C12.682 5.02258 12.8169 5.70437 12.8161 6.39277C12.8163 6.45119 12.8049 6.50906 12.7826 6.56306C12.7603 6.61706 12.7276 6.66612 12.6863 6.70743C12.645 6.74873 12.5959 6.78147 12.5419 6.80375C12.4879 6.82603 12.43 6.83684 12.3716 6.83669Z" fill="white"/>
</svg>
