<svg width="15" height="15" viewBox="0 0 15 15" fill="none" xmlns="http://www.w3.org/2000/svg">
<path d="M7.30485 7.87433C6.67822 7.87433 6.14179 7.65121 5.69556 7.20498C5.24932 6.75874 5.0262 6.22231 5.0262 5.59568V3.60187C5.0262 3.36451 5.10937 3.16285 5.27572 2.99689C5.44206 2.83093 5.64372 2.74776 5.8807 2.74738C6.02311 2.74738 6.1585 2.78061 6.28687 2.84707C6.41523 2.91353 6.5172 3.00847 6.59277 3.1319C6.66873 3.00847 6.77089 2.91353 6.89925 2.84707C7.02762 2.78061 7.16281 2.74738 7.30485 2.74738C7.44689 2.74738 7.58228 2.78061 7.71102 2.84707C7.83976 2.91353 7.94173 3.00847 8.01693 3.1319C8.09288 3.00847 8.19504 2.91353 8.3234 2.84707C8.45177 2.78061 8.58697 2.74738 8.729 2.74738C8.96636 2.74738 9.16821 2.83055 9.33455 2.99689C9.5009 3.16323 9.58388 3.36489 9.5835 3.60187V5.59568C9.5835 6.22231 9.36038 6.75874 8.91414 7.20498C8.46791 7.65121 7.93148 7.87433 7.30485 7.87433ZM2.74756 12.4316V10.8366C2.74756 10.5138 2.83073 10.2172 2.99707 9.94676C3.16341 9.67636 3.38406 9.46976 3.65902 9.32697C4.24767 9.03264 4.84581 8.81199 5.45345 8.66502C6.06109 8.51805 6.67822 8.44437 7.30485 8.44399C7.93148 8.44361 8.54861 8.51729 9.15625 8.66502C9.76389 8.81275 10.362 9.0334 10.9507 9.32697C11.226 9.46938 11.4469 9.67598 11.6132 9.94676C11.7795 10.2175 11.8625 10.5141 11.8621 10.8366V12.4316H2.74756Z" fill="white"/>
</svg>
