<svg width="17" height="17" viewBox="0 0 17 17" fill="none" xmlns="http://www.w3.org/2000/svg">
<path d="M12.0413 12.75C11.2551 12.75 10.6247 13.3804 10.6247 14.1667C10.6247 14.5424 10.7739 14.9027 11.0396 15.1684C11.3053 15.4341 11.6656 15.5833 12.0413 15.5833C12.4171 15.5833 12.7774 15.4341 13.0431 15.1684C13.3088 14.9027 13.458 14.5424 13.458 14.1667C13.458 13.7909 13.3088 13.4306 13.0431 13.1649C12.7774 12.8993 12.4171 12.75 12.0413 12.75ZM0.708008 1.41667V2.83333H2.12467L4.67467 8.20958L3.71134 9.945C3.60509 10.1433 3.54134 10.3771 3.54134 10.625C3.54134 11.0007 3.6906 11.3611 3.95627 11.6267C4.22195 11.8924 4.58228 12.0417 4.95801 12.0417H13.458V10.625H5.25551C5.20854 10.625 5.1635 10.6063 5.13029 10.5731C5.09708 10.5399 5.07842 10.4949 5.07842 10.4479C5.07842 10.4125 5.08551 10.3842 5.09967 10.3629L5.73717 9.20833H11.0143C11.5455 9.20833 12.013 8.91083 12.2538 8.47875L14.7897 3.89583C14.8393 3.7825 14.8747 3.66208 14.8747 3.54167C14.8747 3.35381 14.8 3.17364 14.6672 3.0408C14.5344 2.90796 14.3542 2.83333 14.1663 2.83333H3.69009L3.02426 1.41667M4.95801 12.75C4.17176 12.75 3.54134 13.3804 3.54134 14.1667C3.54134 14.5424 3.6906 14.9027 3.95627 15.1684C4.22195 15.4341 4.58228 15.5833 4.95801 15.5833C5.33373 15.5833 5.69407 15.4341 5.95974 15.1684C6.22542 14.9027 6.37467 14.5424 6.37467 14.1667C6.37467 13.7909 6.22542 13.4306 5.95974 13.1649C5.69407 12.8993 5.33373 12.75 4.95801 12.75Z" fill="white"/>
</svg>
