<svg width="26" height="26" viewBox="0 0 26 26" fill="none" xmlns="http://www.w3.org/2000/svg">
<path d="M17.7237 15.1667C17.8103 14.4517 17.8753 13.7367 17.8753 13C17.8753 12.2633 17.8103 11.5483 17.7237 10.8333H21.3853C21.5587 11.5267 21.667 12.2525 21.667 13C21.667 13.7475 21.5587 14.4733 21.3853 15.1667M15.8062 21.19C16.4562 19.9875 16.9545 18.6875 17.3012 17.3333H20.497C19.4474 19.1406 17.7823 20.5097 15.8062 21.19ZM15.5353 15.1667H10.4653C10.357 14.4517 10.292 13.7367 10.292 13C10.292 12.2633 10.357 11.5375 10.4653 10.8333H15.5353C15.6328 11.5375 15.7087 12.2633 15.7087 13C15.7087 13.7367 15.6328 14.4517 15.5353 15.1667ZM13.0003 21.6233C12.1012 20.3233 11.3753 18.8825 10.9312 17.3333H15.0695C14.6253 18.8825 13.8995 20.3233 13.0003 21.6233ZM8.66699 8.66666H5.50366C6.54219 6.85428 8.20621 5.483 10.1837 4.80999C9.53366 6.01249 9.04616 7.31249 8.66699 8.66666ZM5.50366 17.3333H8.66699C9.04616 18.6875 9.53366 19.9875 10.1837 21.19C8.21011 20.51 6.5483 19.1405 5.50366 17.3333ZM4.61533 15.1667C4.44199 14.4733 4.33366 13.7475 4.33366 13C4.33366 12.2525 4.44199 11.5267 4.61533 10.8333H8.27699C8.19032 11.5483 8.12533 12.2633 8.12533 13C8.12533 13.7367 8.19032 14.4517 8.27699 15.1667M13.0003 4.36582C13.8995 5.66582 14.6253 7.11749 15.0695 8.66666H10.9312C11.3753 7.11749 12.1012 5.66582 13.0003 4.36582ZM20.497 8.66666H17.3012C16.9616 7.32507 16.4595 6.02994 15.8062 4.80999C17.7995 5.49249 19.457 6.86832 20.497 8.66666ZM13.0003 2.16666C7.00949 2.16666 2.16699 7.04166 2.16699 13C2.16699 15.8732 3.30836 18.6287 5.34 20.6603C6.34597 21.6663 7.54023 22.4643 8.85459 23.0087C10.1689 23.5531 11.5777 23.8333 13.0003 23.8333C15.8735 23.8333 18.629 22.692 20.6606 20.6603C22.6923 18.6287 23.8337 15.8732 23.8337 13C23.8337 11.5773 23.5534 10.1686 23.009 8.85425C22.4646 7.53989 21.6666 6.34563 20.6606 5.33967C19.6547 4.3337 18.4604 3.53572 17.1461 2.99129C15.8317 2.44687 14.423 2.16666 13.0003 2.16666Z" fill="#1FAF38"/>
</svg>
