<svg width="25" height="25" viewBox="0 0 25 25" fill="none" xmlns="http://www.w3.org/2000/svg">
<path d="M12.5003 2.08331C15.9482 2.08331 18.7503 4.85415 18.7503 8.28123C18.7503 12.9271 12.5003 19.7916 12.5003 19.7916C12.5003 19.7916 6.25033 12.9271 6.25033 8.28123C6.25033 4.85415 9.05241 2.08331 12.5003 2.08331ZM12.5003 6.24998C11.9478 6.24998 11.4179 6.46947 11.0272 6.86017C10.6365 7.25087 10.417 7.78078 10.417 8.33331C10.417 8.88585 10.6365 9.41575 11.0272 9.80645C11.4179 10.1972 11.9478 10.4166 12.5003 10.4166C13.0529 10.4166 13.5828 10.1972 13.9735 9.80645C14.3642 9.41575 14.5837 8.88585 14.5837 8.33331C14.5837 7.78078 14.3642 7.25087 13.9735 6.86017C13.5828 6.46947 13.0529 6.24998 12.5003 6.24998ZM20.8337 19.7916C20.8337 22.0937 17.1045 23.9583 12.5003 23.9583C7.89616 23.9583 4.16699 22.0937 4.16699 19.7916C4.16699 18.4479 5.43783 17.25 7.40658 16.4896L8.07324 17.4375C6.94824 17.9062 6.25033 18.5521 6.25033 19.2708C6.25033 20.7083 9.05241 21.875 12.5003 21.875C15.9482 21.875 18.7503 20.7083 18.7503 19.2708C18.7503 18.5521 18.0524 17.9062 16.9274 17.4375L17.5941 16.4896C19.5628 17.25 20.8337 18.4479 20.8337 19.7916Z" fill="#1FAF38"/>
</svg>
