<svg width="17" height="17" viewBox="0 0 17 17" fill="none" xmlns="http://www.w3.org/2000/svg">
<path d="M16.2212 15.0167L13.317 12.1125C13.6003 11.4042 13.4587 10.4833 12.8212 9.91667C12.1837 9.27917 11.2628 9.1375 10.4837 9.49166L11.8295 10.8375L10.8378 11.8292L9.42116 10.4125C9.06699 11.1917 9.20866 12.1125 9.84616 12.8208C10.4837 13.4583 11.3337 13.6 12.042 13.3167L14.9462 16.2208C15.0878 16.3625 15.3003 16.3625 15.3712 16.2208L16.0795 15.5125C16.292 15.3 16.292 15.0875 16.2212 15.0167ZM9.20866 14.1667H1.41699V12.75C1.41699 11.1917 3.96699 9.91667 7.08366 9.91667C7.43783 9.91667 7.79199 9.91667 8.07533 9.9875C7.86282 10.4125 7.79199 10.8375 7.79199 11.3333C7.79199 12.4667 8.35866 13.5292 9.20866 14.1667ZM7.08366 2.83333C5.52533 2.83333 4.25033 4.10833 4.25033 5.66667C4.25033 7.225 5.52533 8.5 7.08366 8.5C8.64199 8.5 9.91699 7.225 9.91699 5.66667C9.91699 4.10833 8.64199 2.83333 7.08366 2.83333Z" fill="white"/>
</svg>
