<svg width="25" height="25" viewBox="0 0 25 25" fill="none" xmlns="http://www.w3.org/2000/svg">
<path d="M13.5418 19.7917C13.5418 16.3437 16.3439 13.5417 19.7918 13.5417C20.9377 13.5417 22.0002 13.8542 22.9168 14.3854V6.24999C22.9168 5.69746 22.6973 5.16755 22.3066 4.77685C21.9159 4.38615 21.386 4.16666 20.8335 4.16666H4.16683C3.01058 4.16666 2.0835 5.09374 2.0835 6.24999V18.75C2.0835 19.3025 2.30299 19.8324 2.69369 20.2231C3.08439 20.6138 3.61429 20.8333 4.16683 20.8333H13.6356C13.5835 20.4896 13.5418 20.1458 13.5418 19.7917ZM4.16683 8.33332V6.24999L12.5002 11.4583L20.8335 6.24999V8.33332L12.5002 13.5417L4.16683 8.33332ZM18.4897 23.0833L15.6252 19.9583L16.8335 18.75L18.4897 20.4062L22.2293 16.6667L23.4377 18.1354L18.4897 23.0833Z" fill="#4F3E99"/>
</svg>
