<svg width="20" height="20" viewBox="0 0 20 20" fill="none" xmlns="http://www.w3.org/2000/svg">
<path opacity="0.5" d="M12.1302 12.9567L11.751 13.3567C11.751 13.3567 10.8485 14.3058 8.38604 11.7133C5.92354 9.12084 6.82604 8.17167 6.82604 8.17167L7.06521 7.91917C7.65354 7.29917 7.70937 6.30417 7.19521 5.5775L6.14521 4.09167C5.50854 3.19167 4.27937 3.07334 3.55021 3.84084L2.24271 5.21667C1.88187 5.5975 1.64021 6.09 1.66937 6.6375C1.74437 8.0375 2.34271 11.0483 5.67937 14.5625C9.21854 18.2875 12.5394 18.4358 13.8969 18.3017C14.3269 18.26 14.7002 18.0275 15.001 17.7108L16.1844 16.4642C16.9844 15.6225 16.7594 14.1808 15.736 13.5925L14.1444 12.6758C13.4727 12.29 12.6552 12.4033 12.1302 12.9558" fill="white"/>
<path d="M14.1664 9.99999C15.0725 9.99984 15.9539 9.70432 16.6769 9.15822C17.4 8.61211 17.9253 7.8452 18.1733 6.97369C18.4213 6.10217 18.3784 5.17358 18.0512 4.32862C17.724 3.48366 17.1302 2.7684 16.3599 2.29123C15.5896 1.81406 14.6848 1.60099 13.7825 1.68432C12.8803 1.76764 12.0298 2.14281 11.3599 2.75298C10.69 3.36314 10.2373 4.17504 10.0704 5.06564C9.90341 5.95623 10.0313 6.87697 10.4347 7.68833C10.5108 7.83571 10.5306 8.00572 10.4906 8.16666L10.2422 9.09416C10.2176 9.18599 10.2177 9.28268 10.2423 9.3745C10.2669 9.46632 10.3152 9.55005 10.3825 9.61728C10.4497 9.6845 10.5334 9.73284 10.6252 9.75746C10.717 9.78207 10.8137 9.78208 10.9056 9.75749L11.8331 9.50916C11.994 9.46911 12.164 9.48895 12.3114 9.56499C12.8878 9.85132 13.5228 10.0002 14.1664 9.99999Z" fill="white"/>
</svg>
