<svg width="20" height="20" viewBox="0 0 20 20" fill="none" xmlns="http://www.w3.org/2000/svg">
<path fill-rule="evenodd" clip-rule="evenodd" d="M10.0001 16.5475C8.44598 16.5475 6.92678 16.0867 5.6346 15.2232C4.34242 14.3598 3.33531 13.1326 2.74062 11.6967C2.14593 10.2609 1.99037 8.68101 2.29362 7.15678C2.59687 5.63255 3.34531 4.23248 4.44428 3.13362C5.54326 2.03476 6.94341 1.28648 8.46767 0.983386C9.99193 0.680297 11.5718 0.83602 13.0076 1.43086C14.4434 2.02571 15.6705 3.03295 16.5338 4.32522C17.3971 5.61749 17.8577 7.13674 17.8576 8.69084C17.8576 14.2775 12.6192 18.0025 10.0001 19.1667V16.5475ZM5.83341 6.66667V10.8333C5.83341 11.0544 5.92121 11.2663 6.07749 11.4226C6.23377 11.5789 6.44573 11.6667 6.66675 11.6667H11.6667C11.8878 11.6667 12.0997 11.5789 12.256 11.4226C12.4123 11.2663 12.5001 11.0544 12.5001 10.8333V9.58334L14.5834 11.25V6.25001L12.5001 7.91667V6.66667C12.5001 6.44566 12.4123 6.2337 12.256 6.07742C12.0997 5.92114 11.8878 5.83334 11.6667 5.83334H6.66675C6.44573 5.83334 6.23377 5.92114 6.07749 6.07742C5.92121 6.2337 5.83341 6.44566 5.83341 6.66667Z" fill="white"/>
</svg>
