<svg width="20" height="20" viewBox="0 0 20 20" fill="none" xmlns="http://www.w3.org/2000/svg">
<g clip-path="url(#clip0_152_1663)">
<path d="M11.0334 8.25831C11.1874 8.4142 11.3735 8.53485 11.5786 8.61196C11.7838 8.68906 12.0032 8.72078 12.2218 8.70494C12.4404 8.6891 12.653 8.62608 12.8449 8.5202C13.0367 8.41432 13.2034 8.26812 13.3334 8.09164L15.9917 4.55831C16.0574 4.47076 16.1052 4.37114 16.1323 4.26513C16.1595 4.15912 16.1655 4.04879 16.15 3.94046C16.1345 3.83212 16.0979 3.7279 16.0421 3.63373C15.9864 3.53957 15.9126 3.4573 15.8251 3.39164C15.7375 3.32598 15.6379 3.27821 15.5319 3.25105C15.4259 3.22389 15.3155 3.21787 15.2072 3.23335C15.0989 3.24883 14.9946 3.28549 14.9005 3.34125C14.8063 3.397 14.7241 3.47076 14.6584 3.55831L12.0834 6.95831L10.8334 5.70831C10.674 5.57179 10.4689 5.50045 10.2592 5.50855C10.0494 5.51665 9.8505 5.60359 9.70209 5.75201C9.55367 5.90042 9.46673 6.09937 9.45863 6.3091C9.45053 6.51883 9.52187 6.72389 9.65839 6.88331L11.0334 8.25831Z" fill="white"/>
<path d="M18.3334 0H7.50003C7.058 0 6.63408 0.175595 6.32152 0.488155C6.00896 0.800716 5.83336 1.22464 5.83336 1.66667V10.8333C5.83336 11.2754 6.00896 11.6993 6.32152 12.0118C6.63408 12.3244 7.058 12.5 7.50003 12.5H7.9167V14.5833C7.91573 14.7489 7.96409 14.9109 8.05559 15.0488C8.14709 15.1868 8.27759 15.2943 8.43046 15.3578C8.58333 15.4213 8.75164 15.4378 8.91393 15.4052C9.07622 15.3727 9.22514 15.2925 9.3417 15.175L12.0084 12.5H18.3334C18.7754 12.5 19.1993 12.3244 19.5119 12.0118C19.8244 11.6993 20 11.2754 20 10.8333V1.66667C20 1.22464 19.8244 0.800716 19.5119 0.488155C19.1993 0.175595 18.7754 0 18.3334 0ZM18.3334 10.625C18.3334 10.6803 18.3114 10.7332 18.2723 10.7723C18.2333 10.8114 18.1803 10.8333 18.125 10.8333H11.6667C11.557 10.8327 11.4483 10.8537 11.3468 10.8952C11.2452 10.9367 11.1529 10.9978 11.075 11.075L9.58336 12.575V11.6667C9.58336 11.4457 9.49557 11.2337 9.33928 11.0774C9.183 10.9211 8.97104 10.8333 8.75003 10.8333H7.70836C7.65311 10.8333 7.60012 10.8114 7.56105 10.7723C7.52198 10.7332 7.50003 10.6803 7.50003 10.625V1.875C7.50003 1.81975 7.52198 1.76676 7.56105 1.72769C7.60012 1.68862 7.65311 1.66667 7.70836 1.66667H18.125C18.1803 1.66667 18.2333 1.68862 18.2723 1.72769C18.3114 1.76676 18.3334 1.81975 18.3334 1.875V10.625ZM2.9167 10.8333C3.36994 10.8333 3.81301 10.6989 4.18988 10.4471C4.56674 10.1953 4.86047 9.8374 5.03392 9.41865C5.20737 8.9999 5.25275 8.53912 5.16433 8.09458C5.0759 7.65004 4.85764 7.24171 4.53715 6.92121C4.21665 6.60072 3.80832 6.38246 3.36378 6.29403C2.91924 6.20561 2.45846 6.25099 2.03971 6.42444C1.62097 6.59789 1.26306 6.89162 1.01124 7.26849C0.759433 7.64535 0.625029 8.08842 0.625029 8.54167C0.625029 9.14945 0.866472 9.73235 1.29624 10.1621C1.72601 10.5919 2.30891 10.8333 2.9167 10.8333C2.14315 10.8333 1.40128 11.1406 0.854301 11.6876C0.30732 12.2346 2.91035e-05 12.9765 2.91035e-05 13.75V15.4167C-0.000637081 15.4713 0.0101403 15.5255 0.0316682 15.5757C0.0531961 15.626 0.0849981 15.6711 0.125029 15.7083C0.162234 15.7484 0.207405 15.7802 0.257636 15.8017C0.307868 15.8232 0.362049 15.834 0.416696 15.8333H1.10003C1.15251 15.8332 1.20313 15.8528 1.24175 15.8883C1.28037 15.9239 1.30416 15.9727 1.30836 16.025L1.6667 19.625C1.67706 19.7281 1.72549 19.8237 1.80254 19.893C1.87958 19.9624 1.97971 20.0005 2.08336 20H3.75003C3.85368 20.0005 3.95381 19.9624 4.03085 19.893C4.1079 19.8237 4.15633 19.7281 4.1667 19.625L4.52503 16.025C4.52923 15.9727 4.55302 15.9239 4.59164 15.8883C4.63027 15.8528 4.68088 15.8332 4.73336 15.8333H5.4167C5.5272 15.8333 5.63318 15.7894 5.71132 15.7113C5.78946 15.6332 5.83336 15.5272 5.83336 15.4167V13.75C5.83336 12.9765 5.52607 12.2346 4.97909 11.6876C4.43211 11.1406 3.69024 10.8333 2.9167 10.8333Z" fill="white"/>
</g>
<defs>
<clipPath id="clip0_152_1663">
<rect width="20" height="20" fill="white"/>
</clipPath>
</defs>
</svg>
