<svg width="17" height="17" viewBox="0 0 17 17" fill="none" xmlns="http://www.w3.org/2000/svg">
<g clip-path="url(#clip0_152_1670)">
<path d="M7.43735 14.3438C6.36312 14.3441 5.30097 14.1172 4.32068 13.6779C4.29443 13.6643 4.26527 13.6571 4.23568 13.6571C4.20609 13.6571 4.17693 13.6643 4.15068 13.6779C4.1264 13.6943 4.10657 13.7165 4.09297 13.7425C4.07937 13.7684 4.07243 13.7974 4.07277 13.8267V15.2434C4.07277 15.3373 4.11008 15.4274 4.1765 15.4938C4.24292 15.5602 4.333 15.5975 4.42693 15.5975H5.31235C5.35931 15.5975 5.40436 15.6162 5.43757 15.6494C5.47078 15.6826 5.48943 15.7276 5.48943 15.7746V16.6459C5.48943 16.7398 5.52675 16.8299 5.59317 16.8963C5.65958 16.9627 5.74967 17 5.8436 17H9.38527C9.4792 17 9.56928 16.9627 9.6357 16.8963C9.70212 16.8299 9.73943 16.7398 9.73943 16.6459V15.7604C9.73943 15.7135 9.75809 15.6684 9.7913 15.6352C9.82451 15.602 9.86955 15.5834 9.91652 15.5834H10.8019C10.8959 15.5834 10.9859 15.546 11.0524 15.4796C11.1188 15.4132 11.1561 15.3231 11.1561 15.2292V13.6709C11.1564 13.6408 11.1486 13.6111 11.1337 13.585C11.1188 13.5589 11.0972 13.5372 11.0711 13.5221C11.0455 13.5065 11.0161 13.4982 10.9861 13.4982C10.9561 13.4982 10.9267 13.5065 10.9011 13.5221C9.82812 14.0671 8.64079 14.3488 7.43735 14.3438Z" fill="white"/>
<path d="M15.8027 13.4159L12.8773 10.4904C12.8494 10.4593 12.834 10.4189 12.834 10.3771C12.834 10.3353 12.8494 10.2949 12.8773 10.2638C13.8007 8.91491 14.1872 7.26986 13.961 5.65091C13.7348 4.03197 12.9123 2.55583 11.6545 1.51171C10.3968 0.46759 8.79445 -0.0692569 7.16154 0.00635454C5.52862 0.081966 3.98279 0.764586 2.8269 1.92047C1.67102 3.07635 0.988399 4.62219 0.912788 6.25511C0.837176 7.88802 1.37402 9.49033 2.41814 10.7481C3.46226 12.0058 4.93841 12.8284 6.55735 13.0546C8.17629 13.2808 9.82135 12.8943 11.1702 11.9709C11.2014 11.943 11.2417 11.9276 11.2835 11.9276C11.3254 11.9276 11.3657 11.943 11.3969 11.9709L14.3223 14.8963C14.5215 15.0952 14.7916 15.207 15.0731 15.207C15.3547 15.207 15.6247 15.0952 15.824 14.8963C16.0154 14.6961 16.1204 14.4287 16.1165 14.1517C16.1125 13.8748 15.9998 13.6105 15.8027 13.4159ZM6.03479 5.36211C6.04231 5.33505 6.0567 5.3104 6.07656 5.29054C6.09641 5.27068 6.12107 5.2563 6.14812 5.24877C6.17095 5.23638 6.19652 5.22988 6.2225 5.22988C6.24848 5.22988 6.27404 5.23638 6.29687 5.24877C6.90397 5.62932 7.6062 5.83066 8.32271 5.82961C8.56038 5.82585 8.79733 5.80215 9.03104 5.75877C9.04093 5.75379 9.05184 5.7512 9.06291 5.7512C9.07399 5.7512 9.0849 5.75379 9.09479 5.75877C9.10127 5.77711 9.10127 5.79711 9.09479 5.81544C9.09479 6.23813 8.92688 6.64351 8.62799 6.94239C8.32911 7.24128 7.92373 7.40919 7.50104 7.40919C7.07835 7.40919 6.67298 7.24128 6.37409 6.94239C6.0752 6.64351 5.90729 6.23813 5.90729 5.81544C5.92658 5.65874 5.96957 5.50589 6.03479 5.36211ZM2.30187 6.55919C2.30149 5.7074 2.51269 4.86885 2.91652 4.11887C3.32034 3.36889 3.90414 2.73096 4.61546 2.26239C5.32679 1.79381 6.14337 1.50927 6.99186 1.43432C7.84034 1.35936 8.69416 1.49635 9.47662 1.83296C10.2591 2.16958 10.9457 2.69528 11.4747 3.36286C12.0038 4.03043 12.3587 4.81897 12.5076 5.65763C12.6566 6.4963 12.5949 7.35883 12.3281 8.16775C12.0612 8.97667 11.5977 9.70665 10.979 10.2921C10.9629 10.3092 10.9428 10.322 10.9206 10.3294C10.8983 10.3369 10.8746 10.3386 10.8515 10.3346C10.8286 10.3315 10.8067 10.3236 10.7872 10.3113C10.7677 10.2991 10.7509 10.2829 10.7381 10.2638C10.3239 9.6139 9.72434 9.10315 9.01687 8.79752C8.98693 8.78302 8.96168 8.76038 8.94402 8.7322C8.92635 8.70401 8.91698 8.67142 8.91698 8.63815C8.91698 8.60488 8.92635 8.57229 8.94402 8.5441C8.96168 8.51592 8.98693 8.49327 9.01687 8.47877C9.60134 8.158 10.0625 7.65187 10.3276 7.04014C10.5927 6.42841 10.6467 5.74586 10.4811 5.10004C10.3155 4.45422 9.93979 3.88186 9.41306 3.47314C8.88633 3.06441 8.23858 2.84257 7.57187 2.84257C6.90517 2.84257 6.25742 3.06441 5.73069 3.47314C5.20396 3.88186 4.8282 4.45422 4.66263 5.10004C4.49706 5.74586 4.55108 6.42841 4.81619 7.04014C5.08129 7.65187 5.54241 8.158 6.12687 8.47877C6.15648 8.49394 6.18098 8.51746 6.19735 8.54642C6.21372 8.57538 6.22123 8.6085 6.21896 8.64169C6.21713 8.67583 6.20545 8.70872 6.18534 8.73637C6.16523 8.76402 6.13754 8.78526 6.10562 8.79752C5.34321 9.08054 4.71244 9.63561 4.33479 10.3559C4.32368 10.3798 4.30692 10.4007 4.28594 10.4168C4.26497 10.4328 4.24041 10.4435 4.21437 10.4479C4.19012 10.4598 4.16347 10.466 4.13646 10.466C4.10945 10.466 4.0828 10.4598 4.05854 10.4479C3.50445 9.96325 3.06089 9.36525 2.75783 8.69437C2.45477 8.02348 2.29928 7.29535 2.30187 6.55919Z" fill="white"/>
</g>
<defs>
<clipPath id="clip0_152_1670">
<rect width="17" height="17" fill="white"/>
</clipPath>
</defs>
</svg>
