<svg width="25" height="25" viewBox="0 0 25 25" fill="none" xmlns="http://www.w3.org/2000/svg">
<path d="M10.417 20.8333C10.417 21.3859 10.6365 21.9158 11.0272 22.3065C11.4179 22.6972 11.9478 22.9167 12.5003 22.9167C13.0529 22.9167 13.5828 22.6972 13.9735 22.3065C14.3642 21.9158 14.5837 21.3859 14.5837 20.8333M10.417 20.8333C10.417 20.2808 10.6365 19.7509 11.0272 19.3602C11.4179 18.9695 11.9478 18.75 12.5003 18.75C13.0529 18.75 13.5828 18.9695 13.9735 19.3602C14.3642 19.7509 14.5837 20.2808 14.5837 20.8333M10.417 20.8333H4.16699M14.5837 20.8333H20.8337M9.37533 6.25H15.6253M9.37533 9.375H12.5003M12.5003 15.625L10.417 13.5417H7.29199C7.01572 13.5417 6.75077 13.4319 6.55542 13.2366C6.36007 13.0412 6.25033 12.7763 6.25033 12.5V4.16667C6.25033 3.8904 6.36007 3.62545 6.55542 3.4301C6.75077 3.23475 7.01572 3.125 7.29199 3.125H17.7087C17.9849 3.125 18.2499 3.23475 18.4452 3.4301C18.6406 3.62545 18.7503 3.8904 18.7503 4.16667V12.5C18.7503 12.7763 18.6406 13.0412 18.4452 13.2366C18.2499 13.4319 17.9849 13.5417 17.7087 13.5417H14.5837L12.5003 15.625Z" stroke="#0058FF" stroke-width="1.66667" stroke-linecap="round" stroke-linejoin="round"/>
</svg>
