<svg width="26" height="26" viewBox="0 0 26 26" fill="none" xmlns="http://www.w3.org/2000/svg">
<path d="M13.0003 15.1667C13.2146 15.1667 13.424 15.1031 13.6022 14.9841C13.7803 14.865 13.9192 14.6958 14.0012 14.4979C14.0832 14.2999 14.1046 14.0821 14.0628 13.872C14.021 13.6618 13.9179 13.4688 13.7664 13.3173C13.6149 13.1658 13.4218 13.0626 13.2117 13.0208C13.0015 12.979 12.7837 13.0005 12.5858 13.0825C12.3878 13.1644 12.2186 13.3033 12.0996 13.4815C11.9805 13.6596 11.917 13.8691 11.917 14.0833C11.917 14.3706 12.0311 14.6462 12.2343 14.8494C12.4375 15.0525 12.713 15.1667 13.0003 15.1667ZM18.417 15.1667C18.6313 15.1667 18.8407 15.1031 19.0189 14.9841C19.197 14.865 19.3359 14.6958 19.4179 14.4979C19.4999 14.2999 19.5213 14.0821 19.4795 13.872C19.4377 13.6618 19.3345 13.4688 19.183 13.3173C19.0315 13.1658 18.8385 13.0626 18.6283 13.0208C18.4182 12.979 18.2004 13.0005 18.0024 13.0825C17.8045 13.1644 17.6353 13.3033 17.5162 13.4815C17.3972 13.6596 17.3337 13.8691 17.3337 14.0833C17.3337 14.3706 17.4478 14.6462 17.651 14.8494C17.8541 15.0525 18.1297 15.1667 18.417 15.1667ZM13.0003 19.5C13.2146 19.5 13.424 19.4365 13.6022 19.3174C13.7803 19.1984 13.9192 19.0292 14.0012 18.8312C14.0832 18.6333 14.1046 18.4155 14.0628 18.2053C14.021 17.9952 13.9179 17.8021 13.7664 17.6506C13.6149 17.4991 13.4218 17.3959 13.2117 17.3541C13.0015 17.3123 12.7837 17.3338 12.5858 17.4158C12.3878 17.4978 12.2186 17.6366 12.0996 17.8148C11.9805 17.9929 11.917 18.2024 11.917 18.4167C11.917 18.704 12.0311 18.9795 12.2343 19.1827C12.4375 19.3859 12.713 19.5 13.0003 19.5ZM18.417 19.5C18.6313 19.5 18.8407 19.4365 19.0189 19.3174C19.197 19.1984 19.3359 19.0292 19.4179 18.8312C19.4999 18.6333 19.5213 18.4155 19.4795 18.2053C19.4377 17.9952 19.3345 17.8021 19.183 17.6506C19.0315 17.4991 18.8385 17.3959 18.6283 17.3541C18.4182 17.3123 18.2004 17.3338 18.0024 17.4158C17.8045 17.4978 17.6353 17.6366 17.5162 17.8148C17.3972 17.9929 17.3337 18.2024 17.3337 18.4167C17.3337 18.704 17.4478 18.9795 17.651 19.1827C17.8541 19.3859 18.1297 19.5 18.417 19.5ZM7.58366 15.1667C7.79792 15.1667 8.00737 15.1031 8.18553 14.9841C8.36368 14.865 8.50253 14.6958 8.58453 14.4979C8.66652 14.2999 8.68798 14.0821 8.64618 13.872C8.60438 13.6618 8.5012 13.4688 8.34969 13.3173C8.19818 13.1658 8.00515 13.0626 7.79501 13.0208C7.58486 12.979 7.36704 13.0005 7.16909 13.0825C6.97113 13.1644 6.80194 13.3033 6.6829 13.4815C6.56386 13.6596 6.50033 13.8691 6.50033 14.0833C6.50033 14.3706 6.61446 14.6462 6.81763 14.8494C7.02079 15.0525 7.29634 15.1667 7.58366 15.1667ZM20.5837 4.33332H19.5003V3.24999C19.5003 2.96267 19.3862 2.68712 19.183 2.48396C18.9799 2.28079 18.7043 2.16666 18.417 2.16666C18.1297 2.16666 17.8541 2.28079 17.651 2.48396C17.4478 2.68712 17.3337 2.96267 17.3337 3.24999V4.33332H8.66699V3.24999C8.66699 2.96267 8.55286 2.68712 8.34969 2.48396C8.14653 2.28079 7.87098 2.16666 7.58366 2.16666C7.29634 2.16666 7.02079 2.28079 6.81763 2.48396C6.61446 2.68712 6.50033 2.96267 6.50033 3.24999V4.33332H5.41699C4.55504 4.33332 3.72839 4.67573 3.1189 5.28523C2.5094 5.89472 2.16699 6.72137 2.16699 7.58332V20.5833C2.16699 21.4453 2.5094 22.2719 3.1189 22.8814C3.72839 23.4909 4.55504 23.8333 5.41699 23.8333H20.5837C21.4456 23.8333 22.2723 23.4909 22.8818 22.8814C23.4912 22.2719 23.8337 21.4453 23.8337 20.5833V7.58332C23.8337 6.72137 23.4912 5.89472 22.8818 5.28523C22.2723 4.67573 21.4456 4.33332 20.5837 4.33332ZM21.667 20.5833C21.667 20.8706 21.5529 21.1462 21.3497 21.3494C21.1465 21.5525 20.871 21.6667 20.5837 21.6667H5.41699C5.12967 21.6667 4.85412 21.5525 4.65096 21.3494C4.4478 21.1462 4.33366 20.8706 4.33366 20.5833V10.8333H21.667V20.5833ZM21.667 8.66666H4.33366V7.58332C4.33366 7.296 4.4478 7.02045 4.65096 6.81729C4.85412 6.61413 5.12967 6.49999 5.41699 6.49999H20.5837C20.871 6.49999 21.1465 6.61413 21.3497 6.81729C21.5529 7.02045 21.667 7.296 21.667 7.58332V8.66666ZM7.58366 19.5C7.79792 19.5 8.00737 19.4365 8.18553 19.3174C8.36368 19.1984 8.50253 19.0292 8.58453 18.8312C8.66652 18.6333 8.68798 18.4155 8.64618 18.2053C8.60438 17.9952 8.5012 17.8021 8.34969 17.6506C8.19818 17.4991 8.00515 17.3959 7.79501 17.3541C7.58486 17.3123 7.36704 17.3338 7.16909 17.4158C6.97113 17.4978 6.80194 17.6366 6.6829 17.8148C6.56386 17.9929 6.50033 18.2024 6.50033 18.4167C6.50033 18.704 6.61446 18.9795 6.81763 19.1827C7.02079 19.3859 7.29634 19.5 7.58366 19.5Z" fill="#FF6700"/>
</svg>
