<svg width="16" height="16" viewBox="0 0 16 16" fill="none" xmlns="http://www.w3.org/2000/svg">
<rect width="16" height="16" fill="white"/>
<path opacity="0.5" d="M14.6668 6.66666H1.3335V12.6667C1.3335 13.1971 1.54421 13.7058 1.91928 14.0809C2.29436 14.4559 2.80306 14.6667 3.3335 14.6667H12.6668C13.1973 14.6667 13.706 14.4559 14.081 14.0809C14.4561 13.7058 14.6668 13.1971 14.6668 12.6667V6.66666ZM4.66683 5.33333C4.49002 5.33333 4.32045 5.26309 4.19542 5.13807C4.0704 5.01304 4.00016 4.84347 4.00016 4.66666V1.99999C4.00016 1.82318 4.0704 1.65361 4.19542 1.52859C4.32045 1.40357 4.49002 1.33333 4.66683 1.33333C4.84364 1.33333 5.01321 1.40357 5.13823 1.52859C5.26326 1.65361 5.3335 1.82318 5.3335 1.99999V4.66666C5.3335 4.84347 5.26326 5.01304 5.13823 5.13807C5.01321 5.26309 4.84364 5.33333 4.66683 5.33333ZM11.3335 5.33333C11.1567 5.33333 10.9871 5.26309 10.8621 5.13807C10.7371 5.01304 10.6668 4.84347 10.6668 4.66666V1.99999C10.6668 1.82318 10.7371 1.65361 10.8621 1.52859C10.9871 1.40357 11.1567 1.33333 11.3335 1.33333C11.5103 1.33333 11.6799 1.40357 11.8049 1.52859C11.9299 1.65361 12.0002 1.82318 12.0002 1.99999V4.66666C12.0002 4.84347 11.9299 5.01304 11.8049 5.13807C11.6799 5.26309 11.5103 5.33333 11.3335 5.33333Z" fill="black" fill-opacity="0.61"/>
<path d="M12.6668 2.66667H12.0002V4.66667C12.0002 4.84348 11.9299 5.01305 11.8049 5.13808C11.6799 5.2631 11.5103 5.33334 11.3335 5.33334C11.1567 5.33334 10.9871 5.2631 10.8621 5.13808C10.7371 5.01305 10.6668 4.84348 10.6668 4.66667V2.66667H5.3335V4.66667C5.3335 4.84348 5.26326 5.01305 5.13823 5.13808C5.01321 5.2631 4.84364 5.33334 4.66683 5.33334C4.49002 5.33334 4.32045 5.2631 4.19542 5.13808C4.0704 5.01305 4.00016 4.84348 4.00016 4.66667V2.66667H3.3335C2.80306 2.66667 2.29436 2.87739 1.91928 3.25246C1.54421 3.62753 1.3335 4.13624 1.3335 4.66667V6.66667H14.6668V4.66667C14.6668 4.13624 14.4561 3.62753 14.081 3.25246C13.706 2.87739 13.1973 2.66667 12.6668 2.66667Z" fill="black" fill-opacity="0.61"/>
</svg>
