<svg width="16" height="16" viewBox="0 0 16 16" fill="none" xmlns="http://www.w3.org/2000/svg">
<rect width="16" height="16" fill="white"/>
<path opacity="0.5" d="M14.6663 6.66666H1.33301V12.6667C1.33301 13.1971 1.54372 13.7058 1.91879 14.0809C2.29387 14.4559 2.80257 14.6667 3.33301 14.6667H12.6663C13.1968 14.6667 13.7055 14.4559 14.0806 14.0809C14.4556 13.7058 14.6663 13.1971 14.6663 12.6667V6.66666ZM4.66634 5.33333C4.48953 5.33333 4.31996 5.26309 4.19494 5.13807C4.06991 5.01304 3.99967 4.84347 3.99967 4.66666V1.99999C3.99967 1.82318 4.06991 1.65361 4.19494 1.52859C4.31996 1.40357 4.48953 1.33333 4.66634 1.33333C4.84315 1.33333 5.01272 1.40357 5.13775 1.52859C5.26277 1.65361 5.33301 1.82318 5.33301 1.99999V4.66666C5.33301 4.84347 5.26277 5.01304 5.13775 5.13807C5.01272 5.26309 4.84315 5.33333 4.66634 5.33333ZM11.333 5.33333C11.1562 5.33333 10.9866 5.26309 10.8616 5.13807C10.7366 5.01304 10.6663 4.84347 10.6663 4.66666V1.99999C10.6663 1.82318 10.7366 1.65361 10.8616 1.52859C10.9866 1.40357 11.1562 1.33333 11.333 1.33333C11.5098 1.33333 11.6794 1.40357 11.8044 1.52859C11.9294 1.65361 11.9997 1.82318 11.9997 1.99999V4.66666C11.9997 4.84347 11.9294 5.01304 11.8044 5.13807C11.6794 5.26309 11.5098 5.33333 11.333 5.33333Z" fill="black" fill-opacity="0.61"/>
<path d="M12.6663 2.66667H11.9997V4.66667C11.9997 4.84348 11.9294 5.01305 11.8044 5.13808C11.6794 5.2631 11.5098 5.33334 11.333 5.33334C11.1562 5.33334 10.9866 5.2631 10.8616 5.13808C10.7366 5.01305 10.6663 4.84348 10.6663 4.66667V2.66667H5.33301V4.66667C5.33301 4.84348 5.26277 5.01305 5.13775 5.13808C5.01272 5.2631 4.84315 5.33334 4.66634 5.33334C4.48953 5.33334 4.31996 5.2631 4.19494 5.13808C4.06991 5.01305 3.99967 4.84348 3.99967 4.66667V2.66667H3.33301C2.80257 2.66667 2.29387 2.87739 1.91879 3.25246C1.54372 3.62753 1.33301 4.13624 1.33301 4.66667V6.66667H14.6663V4.66667C14.6663 4.13624 14.4556 3.62753 14.0806 3.25246C13.7055 2.87739 13.1968 2.66667 12.6663 2.66667Z" fill="black" fill-opacity="0.61"/>
</svg>
