<svg width="29" height="41" viewBox="0 0 29 41" fill="none" xmlns="http://www.w3.org/2000/svg">
<path d="M1.14237 11.4361C1.72726 10.444 2.53043 9.60169 3.32661 8.76913L11.1051 0.636669L28.0878 18.687V28.7729C22.6055 22.9366 16.3341 16.8372 10.8462 11.0023C10.0101 11.2472 9.25354 11.7084 8.65282 12.3393C8.05211 12.9702 7.62857 13.7486 7.42502 14.5956C6.74778 17.569 8.89844 20.3745 10.9078 22.6679L22.5286 35.9398C20.9316 37.3559 19.3345 38.7715 17.7375 40.1866L4.6685 24.7948C3.01598 22.8484 1.32428 20.8363 0.530901 18.41C-0.214901 16.1222 -0.0735767 13.5084 1.14237 11.4361Z" fill="#0968D8"/>
</svg>
