<svg width="22" height="24" viewBox="0 0 22 24" fill="none" xmlns="http://www.w3.org/2000/svg">
<path d="M6.3335 16.6666C6.3335 19.9659 6.3335 21.6168 7.359 22.6411C8.38333 23.6666 10.0342 23.6666 13.3335 23.6666H14.5002C17.7995 23.6666 19.4503 23.6666 20.4747 22.6411C21.5002 21.6168 21.5002 19.9659 21.5002 16.6666V7.33325C21.5002 4.03392 21.5002 2.38309 20.4747 1.35875C19.4503 0.333252 17.7995 0.333252 14.5002 0.333252H13.3335C10.0342 0.333252 8.38333 0.333252 7.359 1.35875C6.3335 2.38309 6.3335 4.03392 6.3335 7.33325" stroke="black" stroke-width="1.25" stroke-linecap="round"/>
<path opacity="0.5" d="M6.33333 20.75C3.5835 20.75 2.208 20.75 1.354 19.896C0.5 19.0408 0.5 17.6665 0.5 14.9167V9.08333C0.5 6.3335 0.5 4.958 1.354 4.104C2.208 3.25 3.5835 3.25 6.33333 3.25" stroke="black" stroke-width="1.25"/>
<path d="M4 11.9999H14.5M14.5 11.9999L11.5833 14.9166M14.5 11.9999L11.5833 9.08325" stroke="black" stroke-width="1.25" stroke-linecap="round" stroke-linejoin="round"/>
</svg>
