<svg width="22" height="18" viewBox="0 0 22 18" fill="none" xmlns="http://www.w3.org/2000/svg">
<path d="M21.4688 4.6626V14.6693C21.4688 15.4783 21.1597 16.2567 20.6047 16.8453C20.0497 17.4339 19.2908 17.7882 18.4832 17.8357L18.2971 17.8409H3.4959C2.6869 17.841 1.90846 17.5319 1.31985 16.9769C0.731244 16.4219 0.376966 15.6629 0.329505 14.8553L0.324219 14.6693V4.6626L10.3097 11.32L10.4324 11.3897C10.5769 11.4604 10.7356 11.4971 10.8965 11.4971C11.0574 11.4971 11.2161 11.4604 11.3606 11.3897L11.4833 11.32L21.4688 4.6626Z" fill="black"/>
<path d="M18.2968 0.925293C19.4387 0.925293 20.4398 1.52791 20.9981 2.43396L10.8962 9.1685L0.794434 2.43396C1.05958 2.00348 1.42379 1.64262 1.85671 1.38148C2.28962 1.12033 2.77869 0.966459 3.28315 0.932694L3.49565 0.925293H18.2968Z" fill="black"/>
</svg>
