<svg width="60" height="42" viewBox="0 0 60 42" fill="none" xmlns="http://www.w3.org/2000/svg">
<path d="M0.165386 17.6978L0.141602 17.6699C3.32464 14.8943 6.95958 18.5727 8.98026 20.9542L20.76 34.8405C21.1105 35.2541 21.5097 35.6936 22.0454 35.7712C22.6659 35.857 23.2253 35.4268 23.7 35.0152C25.9138 33.0858 27.9986 31.0131 29.9409 28.8105L35.5603 35.0462C36.0164 35.553 36.6069 36.1083 37.276 35.977C37.6576 35.9004 37.9554 35.6098 38.2284 35.3317C42.8613 30.6133 47.2584 25.6778 51.4197 20.5251C52.489 19.2014 53.6027 17.8146 55.158 17.1218C56.7134 16.4289 58.8447 16.7019 59.6937 18.1776L41.2149 39.2417C40.3618 40.2148 39.429 41.2376 38.1736 41.5509C36.7796 41.8994 35.308 41.2706 34.1891 40.3699C33.0702 39.4692 32.1943 38.3017 31.1446 37.3234C30.822 37.0214 30.4507 36.7226 30.0071 36.6853C29.4476 36.6378 28.9482 37.0204 28.5469 37.4092C27.5428 38.3937 26.7444 39.5809 25.6886 40.5116C24.6328 41.4423 23.1933 42.1062 21.8334 41.7525C20.7083 41.4568 19.8737 40.5364 19.1095 39.6605C12.7552 32.3734 6.44045 25.0525 0.165386 17.6978Z" fill="#FF6C08"/>
<path d="M49.6653 8.64275C49.2361 7.91369 48.6405 7.28701 48.0521 6.67274L42.3075 0.661377C38.1234 5.10604 33.9397 9.55278 29.7563 14.0016V21.4555C33.808 17.1422 38.443 12.6345 42.4988 8.32217C43.1167 8.50312 43.6759 8.84397 44.1199 9.31027C44.5638 9.77656 44.8768 10.3518 45.0273 10.9778C45.5278 13.1753 43.9383 15.2487 42.4533 16.9437L33.8649 26.7523L37.4047 29.8909C40.625 26.0991 43.8449 22.3073 47.0645 18.5155C48.2858 17.0771 49.535 15.59 50.1224 13.7968C50.6715 12.106 50.566 10.1743 49.6653 8.64275Z" fill="#053772"/>
<path d="M9.83617 8.64275C10.2684 7.90955 10.862 7.28701 11.4504 6.67171L17.1991 0.661377L29.7503 14.0016V21.4555C25.6986 17.1422 21.0637 12.6345 17.0078 8.32217C16.3899 8.50312 15.8308 8.84397 15.3868 9.31027C14.9428 9.77656 14.6298 10.3518 14.4794 10.9778C13.9789 13.1753 15.5683 15.2487 17.0533 16.9437L25.6417 26.7523C24.4614 27.7989 23.2812 28.8451 22.1009 29.8909L12.4422 18.5155C11.2209 17.0771 9.97061 15.59 9.38426 13.7968C8.83307 12.106 8.93752 10.1743 9.83617 8.64275Z" fill="#053772"/>
<path d="M29.6112 4.76791L26.6987 7.68042L29.6112 10.5929L32.5238 7.68042L29.6112 4.76791Z" fill="#FF6C08"/>
</svg>
