<svg width="16" height="18" viewBox="0 0 16 18" fill="none" xmlns="http://www.w3.org/2000/svg">
<path d="M10.8292 17.25C9.6011 17.3067 8.37187 17.3345 7.1425 17.3333C5.91313 17.3342 4.68391 17.3064 3.45583 17.25C2.0575 17.1867 0.909167 16.0958 0.7225 14.7042C0.6 13.7958 0.5 12.865 0.5 11.9167C0.5 10.9683 0.6 10.0375 0.7225 9.12917C0.909167 7.7375 2.0575 6.64667 3.45583 6.5825C4.63167 6.52833 5.82667 6.5 7.14167 6.5C8.45667 6.5 9.6525 6.52833 10.8283 6.58333C11.7117 6.62333 12.495 7.07333 12.9992 7.75" stroke="black" stroke-width="1.25" stroke-linecap="round" stroke-linejoin="round"/>
<path d="M12.1665 11.4817C12.1691 11.0422 12.3462 10.6217 12.6587 10.3126C12.9712 10.0036 13.3936 9.8312 13.8332 9.83341C14.754 9.83341 15.4998 10.5717 15.4998 11.4817C15.4998 11.8101 15.4032 12.1151 15.2357 12.3726C14.7373 13.1384 13.8332 13.8684 13.8332 14.7784V15.1909M13.8332 17.3334H13.8432M3.4165 6.50008V4.41675C3.4165 3.42219 3.81159 2.46836 4.51485 1.7651C5.21811 1.06184 6.17194 0.666748 7.1665 0.666748C8.16107 0.666748 9.11489 1.06184 9.81815 1.7651C10.5214 2.46836 10.9165 3.42219 10.9165 4.41675V6.50008M7.99984 11.9084V11.9167M4.6665 11.9084V11.9167" stroke="black" stroke-width="1.25" stroke-linecap="round" stroke-linejoin="round"/>
</svg>
