<svg width="34" height="34" viewBox="0 0 34 34" fill="none" xmlns="http://www.w3.org/2000/svg">
<path opacity="0.3" d="M27.2144 17.0567L25.0469 16.9008L24.6219 14.7758C24.2757 13.0085 23.3264 11.4163 21.9361 10.2716C20.5459 9.12679 18.8011 8.50058 17.0002 8.5C14.0819 8.5 11.4469 10.115 10.0869 12.6933L9.37853 14.0392L7.8627 14.195C6.47649 14.3488 5.19608 15.0096 4.2677 16.0505C3.33932 17.0913 2.82852 18.4386 2.83353 19.8333C2.83353 22.9642 5.36937 25.5 8.5002 25.5H26.9169C29.2544 25.5 31.1669 23.5875 31.1669 21.25C31.1669 19.0542 29.4385 17.1983 27.2144 17.0567ZM17.0002 24.0833L11.3335 18.4167H14.946V14.1667H19.0685V18.4167H22.6669L17.0002 24.0833Z" fill="black"/>
<path d="M27.4125 14.2234C26.9366 11.8118 25.6383 9.6403 23.7392 8.07968C21.8401 6.51906 19.4581 5.66619 17 5.66675C12.9058 5.66675 9.35 7.99008 7.57917 11.3901C5.497 11.6151 3.57143 12.6016 2.17244 14.1601C0.773459 15.7186 -0.000243244 17.7391 5.73647e-08 19.8334C5.73647e-08 24.5226 3.81083 28.3334 8.5 28.3334H26.9167C30.8267 28.3334 34 25.1601 34 21.2501C34 17.5101 31.0958 14.4784 27.4125 14.2234ZM26.9167 25.5001H8.5C5.36917 25.5001 2.83333 22.9642 2.83333 19.8334C2.83333 16.9292 5.00083 14.5067 7.87667 14.2092L9.3925 14.0534L10.1008 12.7076C10.7525 11.4395 11.7413 10.3757 12.9586 9.63333C14.1758 8.89099 15.5742 8.49885 17 8.50008C20.7117 8.50008 23.9133 11.1351 24.6358 14.7759L25.0608 16.9009L27.2283 17.0567C28.2933 17.1284 29.2916 17.6007 30.0223 18.3788C30.753 19.1568 31.1619 20.1827 31.1667 21.2501C31.1667 23.5876 29.2542 25.5001 26.9167 25.5001ZM19.0542 14.1667H14.9458V18.4167H11.3333L17 24.0834L22.6667 18.4167H19.0542V14.1667Z" fill="black"/>
</svg>
