<svg width="26" height="26" viewBox="0 0 26 26" fill="none" xmlns="http://www.w3.org/2000/svg">
<path d="M18.182 9.78731V7.67286C18.182 4.71262 15.8561 2.38672 12.8958 2.38672C9.93557 2.38672 7.60967 4.71262 7.60967 7.67286V9.78731C5.81238 9.78731 4.43799 11.1617 4.43799 12.959V20.3596C4.43799 22.1569 5.81238 23.5313 7.60967 23.5313H18.182C19.9792 23.5313 21.3536 22.1569 21.3536 20.3596V12.959C21.3536 11.1617 19.9792 9.78731 18.182 9.78731ZM9.72413 7.67286C9.72413 5.87557 11.0985 4.50117 12.8958 4.50117C14.6931 4.50117 16.0675 5.87557 16.0675 7.67286V9.78731H9.72413V7.67286Z" fill="black"/>
</svg>
