<svg width="29" height="41" viewBox="0 0 29 41" fill="none" xmlns="http://www.w3.org/2000/svg">
<path d="M1.42567 11.606C2.01542 10.6057 2.82527 9.75635 3.62806 8.91687L11.4712 0.716797L28.5951 18.9172V29.0869C23.0673 23.2021 16.7437 17.052 11.2102 11.1686C10.3672 11.4155 9.60427 11.8806 8.99856 12.5167C8.39285 13.1529 7.9658 13.9377 7.76055 14.7918C7.07768 17.7899 9.24622 20.6188 11.2723 22.9312L22.9897 36.3135C21.3794 37.7413 19.7691 39.1686 18.1588 40.5955L4.98111 25.0758C3.31485 23.1132 1.60909 21.0844 0.809116 18.6379C0.0571137 16.3311 0.199613 13.6955 1.42567 11.606Z" fill="#053772"/>
</svg>
