<svg width="82" height="35" viewBox="0 0 82 35" fill="none" xmlns="http://www.w3.org/2000/svg">
<path d="M0.23118 1.95982L0.19873 1.92173C4.54144 -1.86509 9.5007 3.15343 12.2576 6.4027L28.329 25.3481C28.8073 25.9124 29.3519 26.5121 30.0827 26.6179C30.9292 26.735 31.6925 26.1481 32.3401 25.5865C35.3605 22.9541 38.2049 20.1262 40.8548 17.1212L48.5216 25.6289C49.1438 26.3202 49.9494 27.0778 50.8623 26.8987C51.3829 26.7942 51.7892 26.3978 52.1617 26.0183C58.4824 19.5809 64.4815 12.8472 70.1589 5.81719C71.6178 4.01125 73.1373 2.11925 75.2593 1.17396C77.3813 0.228663 80.2891 0.601138 81.4474 2.61447L56.2363 31.3528C55.0723 32.6805 53.7997 34.0758 52.0869 34.5033C50.185 34.9788 48.1773 34.121 46.6508 32.8921C45.1242 31.6632 43.9292 30.0703 42.4971 28.7356C42.0569 28.3237 41.5504 27.9159 40.9451 27.8651C40.1818 27.8002 39.5004 28.3222 38.953 28.8527C37.583 30.1959 36.4938 31.8156 35.0533 33.0854C33.6128 34.3552 31.6488 35.261 29.7935 34.7785C28.2584 34.3749 27.1199 33.1193 26.0772 31.9242C17.4078 21.9822 8.79244 11.994 0.23118 1.95982Z" fill="#FF6C08"/>
</svg>
