<svg width="20" height="20" viewBox="0 0 20 20" fill="none" xmlns="http://www.w3.org/2000/svg">
<path fill-rule="evenodd" clip-rule="evenodd" d="M12.8481 4.7025C12.7332 4.51887 12.5638 4.37563 12.3637 4.29274C12.1636 4.20984 11.9425 4.19141 11.7314 4.24L10.2331 4.58417C10.0795 4.61946 9.91998 4.61946 9.76643 4.58417L8.26809 4.24C8.05698 4.19141 7.83597 4.20984 7.63582 4.29274C7.43568 4.37563 7.26635 4.51887 7.15143 4.7025L6.33476 6.00584C6.25143 6.13917 6.13893 6.25167 6.00559 6.33584L4.70226 7.1525C4.51894 7.26733 4.37592 7.43638 4.29304 7.63618C4.21016 7.83598 4.19154 8.05663 4.23976 8.2675L4.58393 9.7675C4.61909 9.92079 4.61909 10.08 4.58393 10.2333L4.23976 11.7325C4.19135 11.9435 4.20988 12.1643 4.29277 12.3643C4.37565 12.5643 4.51878 12.7335 4.70226 12.8483L6.00559 13.665C6.13893 13.7483 6.25143 13.8608 6.33559 13.9942L7.15226 15.2975C7.38726 15.6733 7.83559 15.8592 8.26809 15.76L9.76643 15.4158C9.91998 15.3805 10.0795 15.3805 10.2331 15.4158L11.7323 15.76C11.9433 15.8084 12.1641 15.7899 12.3641 15.707C12.564 15.6241 12.7332 15.481 12.8481 15.2975L13.6648 13.9942C13.7481 13.8608 13.8606 13.7483 13.9939 13.665L15.2981 12.8483C15.4816 12.7333 15.6246 12.5639 15.7074 12.3638C15.7901 12.1636 15.8084 11.9427 15.7598 11.7317L15.4164 10.2333C15.3811 10.0798 15.3811 9.92022 15.4164 9.76667L15.7606 8.2675C15.8091 8.0566 15.7907 7.83583 15.7079 7.63586C15.6252 7.4359 15.4823 7.26666 15.2989 7.15167L13.9948 6.335C13.8616 6.25152 13.7491 6.13898 13.6656 6.00584L12.8481 4.7025ZM12.4289 8.14167C12.4805 8.04689 12.4932 7.93582 12.4646 7.83181C12.4359 7.72781 12.368 7.63899 12.2751 7.58404C12.1823 7.52909 12.0717 7.51229 11.9668 7.53718C11.8618 7.56208 11.7705 7.62672 11.7123 7.7175L9.53309 11.4058L8.21726 10.1458C8.17822 10.1058 8.13151 10.0739 8.07992 10.0523C8.02832 10.0307 7.9729 10.0196 7.91695 10.0199C7.861 10.0201 7.80567 10.0316 7.75426 10.0537C7.70286 10.0758 7.65643 10.108 7.61774 10.1484C7.57906 10.1889 7.54891 10.2367 7.5291 10.289C7.50928 10.3413 7.50021 10.3971 7.50242 10.453C7.50463 10.5089 7.51808 10.5638 7.54196 10.6144C7.56584 10.665 7.59967 10.7103 7.64143 10.7475L9.33643 12.3717C9.38179 12.415 9.43637 12.4476 9.49609 12.4669C9.55581 12.4863 9.61912 12.4919 9.6813 12.4833C9.74347 12.4747 9.80291 12.4522 9.85517 12.4174C9.90743 12.3827 9.95116 12.3365 9.98309 12.2825L12.4289 8.14167Z" fill="white"/>
</svg>
