<svg width="20" height="20" viewBox="0 0 20 20" fill="none" xmlns="http://www.w3.org/2000/svg">
<path d="M17.4998 8.33329H15.8332V3.33329H16.6665V1.66663H3.33317V3.33329H4.1665V8.33329H2.49984C2.27882 8.33329 2.06686 8.42109 1.91058 8.57737C1.7543 8.73365 1.6665 8.94561 1.6665 9.16663V16.6666H18.3332V9.16663C18.3332 8.94561 18.2454 8.73365 18.0891 8.57737C17.9328 8.42109 17.7208 8.33329 17.4998 8.33329ZM11.6665 15V11.6666H8.33317V15H5.83317V3.33329H14.1665V15H11.6665Z" fill="white"/>
<path d="M7.5 5H9.16667V6.66667H7.5V5ZM10.8333 5H12.5V6.66667H10.8333V5ZM7.5 8.33333H9.16667V10H7.5V8.33333ZM10.8333 8.33333H12.5V10H10.8333V8.33333Z" fill="white"/>
</svg>
