<svg width="17" height="17" viewBox="0 0 17 17" fill="none" xmlns="http://www.w3.org/2000/svg">
<mask id="mask0_136_291" style="mask-type:luminance" maskUnits="userSpaceOnUse" x="0" y="0" width="17" height="17">
<path d="M0 0H17V17H0V0Z" fill="white"/>
</mask>
<g mask="url(#mask0_136_291)">
<path d="M8.5 17C3.81274 17 0 13.1873 0 8.5C0 3.81319 3.81274 0 8.5 0C13.1868 0 17 3.81319 17 8.5C17 13.1873 13.1868 17 8.5 17ZM8.5 0.809589C4.25908 0.809589 0.809589 4.25954 0.809589 8.5C0.809589 12.7405 4.25908 16.1904 8.5 16.1904C12.7405 16.1904 16.1904 12.7405 16.1904 8.5C16.1904 4.25954 12.7405 0.809589 8.5 0.809589Z" fill="white"/>
<path d="M8.5 0C3.80548 0 0 3.80548 0 8.5C0 13.1945 3.80548 17 8.5 17C13.1945 17 17 13.1945 17 8.5C17 3.80548 13.1941 0 8.5 0ZM12.7137 8.05775C12.7137 8.1976 12.6006 8.31066 12.4617 8.31066H10.7453C10.6645 8.56902 10.551 8.81875 10.412 9.04215C10.2182 9.35409 9.99613 9.61608 9.75275 9.81995C9.6297 9.92302 9.46397 10.0556 9.27735 10.1682C9.09936 10.2749 8.9141 10.3544 8.74065 10.4243C8.51816 10.5138 8.27342 10.5769 8.01052 10.6118L10.8352 13.9092C10.8993 13.9841 10.9142 14.0899 10.8729 14.1798C10.8321 14.2697 10.7426 14.3274 10.6445 14.3274H8.84645C8.77334 14.3274 8.70387 14.2952 8.65574 14.2393L4.34717 9.20924C4.28315 9.13432 4.26816 9.02853 4.30903 8.93862C4.34989 8.84872 4.43934 8.79105 4.53787 8.79105H7.64864C7.68088 8.78969 7.71311 8.78833 7.7449 8.78606C7.8793 8.76245 8.01189 8.72703 8.13948 8.67935C8.25435 8.62487 8.3656 8.55994 8.47003 8.48638C8.53496 8.43144 8.59717 8.37286 8.65574 8.31111H4.54468C4.40574 8.31111 4.29314 8.1976 4.29314 8.0582V7.38982C4.29314 7.38846 4.29314 7.3871 4.29314 7.38619C4.29314 7.38483 4.29314 7.38392 4.29314 7.38256V6.71418C4.29314 6.57479 4.40574 6.46127 4.54468 6.46127H5.21442C5.21533 6.46127 5.21669 6.46127 5.21806 6.46127H8.7856C8.77107 6.43948 8.75654 6.41768 8.74111 6.39634C8.65892 6.29826 8.56765 6.20745 8.46958 6.12527C8.3656 6.05171 8.25435 5.98678 8.13902 5.93229C8.01143 5.88462 7.87885 5.84874 7.7449 5.82559C7.7004 5.82196 7.65227 5.81878 7.59733 5.81696H4.54468C4.40574 5.81696 4.29314 5.7039 4.29314 5.56405V4.89704C4.29314 4.89522 4.29268 4.89386 4.29268 4.89204C4.29268 4.89022 4.29268 4.88841 4.29314 4.88659V4.22003C4.29314 4.08018 4.40574 3.96712 4.54468 3.96712H12.4617C12.6006 3.96712 12.7137 4.08018 12.7137 4.22003V5.56405C12.7137 5.70345 12.6006 5.81696 12.4617 5.81696H10.5474C10.5524 5.8274 10.5573 5.83739 10.5619 5.84829C10.6368 6.01084 10.7208 6.20473 10.7771 6.40724C10.7821 6.42449 10.7866 6.44266 10.7912 6.46127H11.7883C11.7897 6.46127 11.791 6.46127 11.7919 6.46127H12.4617C12.6006 6.46127 12.7137 6.57433 12.7137 6.71418V8.05775Z" fill="white"/>
</g>
</svg>
