<svg width="16" height="18" viewBox="0 0 16 18" fill="none" xmlns="http://www.w3.org/2000/svg">
<mask id="mask0_136_306" style="mask-type:luminance" maskUnits="userSpaceOnUse" x="0" y="0" width="16" height="18">
<path d="M0 0H15.6901V17.1385H0V0Z" fill="white"/>
</mask>
<g mask="url(#mask0_136_306)">
<path d="M7.24821 0.0490145C6.73861 0.0871503 6.38073 0.504129 6.12677 0.862019C5.877 1.21069 5.47092 1.22661 4.71616 1.22661C4.17849 1.22661 3.44092 1.28612 3.24018 1.79865C3.14631 2.03668 3.15427 2.42936 3.70787 2.93937L3.77618 3.00558C4.24009 3.44519 4.74759 4.01555 4.95462 4.5021C5.56521 4.90776 6.57308 5.24218 7.47241 5.24218C8.96222 5.24218 9.98644 4.43295 9.98644 4.43295C10.1507 3.56379 10.8418 2.64602 10.9285 2.5379L10.9629 2.48928C11.2168 2.09116 11.5643 1.54511 11.33 1.11933C11.2453 0.964692 11.0568 0.780718 10.6381 0.780718C10.3431 0.780718 10.0543 0.850284 9.77565 0.917336C9.27234 1.03803 8.95384 1.10131 8.74682 0.894706C8.32062 0.453002 7.79678 0.00962161 7.24821 0.0490145ZM7.30353 0.790357C7.49379 0.780718 7.79929 0.984388 8.21418 1.41562C8.73257 1.93275 9.40686 1.76973 9.94956 1.63982C10.1138 1.60043 10.2693 1.57193 10.4177 1.5514C10.4219 1.66916 10.1055 1.91306 9.82426 2.12972C9.60299 2.30028 9.35238 2.49347 9.08292 2.73779C8.87673 2.92596 8.62571 3.03659 8.43335 3.02235C8.32439 3.0148 8.24016 2.97164 8.17436 2.89243C7.81103 2.4348 7.49295 2.2194 7.14302 2.19467C6.64181 2.15738 6.2571 2.53077 5.877 2.8895C5.73577 3.02193 5.56018 3.07431 5.35316 3.04246C4.93869 2.98086 4.48944 2.61584 4.09468 2.02663C4.21411 1.99729 4.4073 1.97005 4.71616 1.97005C5.50402 1.97005 6.24914 1.97089 6.734 1.29325C6.96575 0.966787 7.15182 0.801672 7.30353 0.790357ZM12.6002 4.12828C11.5358 4.1396 10.6712 4.73133 10.0803 5.13532C9.92777 5.23967 9.79073 5.33396 9.67507 5.39976C8.73844 5.91605 7.8676 5.98017 7.29431 5.98478C6.17077 6.00322 5.39925 5.65036 5.39255 5.64701L5.27772 5.59421L5.15409 5.62228C2.51686 6.22198 0.0229492 9.48699 0.0229492 12.3426C0.0229492 16.3967 2.65725 17.1384 7.84497 17.1384C13.0323 17.1384 15.6666 16.3967 15.6666 12.3426C15.6666 9.48154 13.3893 6.93482 10.978 5.82512C11.1372 5.80626 11.3032 5.79494 11.4754 5.79955C12.1019 5.81631 12.7704 6.00364 13.3474 6.61297C13.3814 6.6486 13.4208 6.67667 13.466 6.69679C13.5109 6.71691 13.5582 6.7278 13.6077 6.72906C13.6571 6.73032 13.7049 6.72235 13.751 6.70475C13.7971 6.68715 13.8382 6.66117 13.8742 6.62722C13.9098 6.5937 13.9379 6.55389 13.958 6.50904C13.9781 6.4642 13.989 6.41685 13.9903 6.3674C13.992 6.31837 13.9836 6.27059 13.966 6.22449C13.9484 6.17839 13.9224 6.13774 13.8884 6.1017C13.2225 5.39892 12.4146 5.1261 11.6908 5.06911C12.3027 4.8273 13.0096 4.7569 13.8109 5.19608C13.9915 5.29499 14.2178 5.22835 14.3172 5.04899C14.4161 4.86879 14.3498 4.64291 14.1692 4.54442C13.6098 4.23766 13.0842 4.12284 12.6002 4.12828ZM5.23749 8.21635H9.70734C9.91268 8.21635 10.0795 8.38273 10.0795 8.58807C10.0795 8.793 9.91268 8.95979 9.70734 8.95979H8.20789C8.37259 9.17687 8.49579 9.42706 8.55195 9.70323H9.70734C9.91268 9.70323 10.0795 9.8696 10.0795 10.0749C10.0795 10.2803 9.91268 10.4467 9.70734 10.4467H8.55195C8.37887 11.294 7.62705 11.934 6.7273 11.934H6.05804L8.12575 14.2917C8.26111 14.4463 8.24477 14.6806 8.09013 14.8159C8.01931 14.8775 7.93214 14.9081 7.84497 14.9081C7.74146 14.9081 7.63795 14.8645 7.56419 14.7807L4.95671 11.8066C4.86074 11.6972 4.83811 11.5417 4.89846 11.4089C4.95881 11.2756 5.09123 11.1901 5.23749 11.1901H6.7273C7.21259 11.1901 7.62244 10.8783 7.77624 10.4467H5.23749C5.03214 10.4467 4.86493 10.2803 4.86493 10.0749C4.86493 9.8696 5.03214 9.70323 5.23749 9.70323H7.77624C7.62244 9.27158 7.21259 8.95979 6.7273 8.95979H5.23749C5.03214 8.95979 4.86493 8.793 4.86493 8.58807C4.86493 8.38273 5.03214 8.21635 5.23749 8.21635Z" fill="white"/>
</g>
</svg>
