<svg width="20" height="20" viewBox="0 0 20 20" fill="none" xmlns="http://www.w3.org/2000/svg">
<path d="M2.17165 5.71463H16.8038L16.8659 5.71642C17.4198 5.7372 17.9441 5.97182 18.3287 6.37099C18.7133 6.77016 18.9283 7.30283 18.9284 7.85713V16.4286C18.9284 16.9969 18.7027 17.5419 18.3008 17.9438C17.8989 18.3457 17.3539 18.5714 16.7856 18.5714H3.21415C2.64583 18.5714 2.10078 18.3457 1.69892 17.9438C1.29705 17.5419 1.07129 16.9969 1.07129 16.4286V7.85713L1.07236 7.78392L1.07593 7.71963C1.05118 7.31611 1.14089 6.91379 1.33474 6.55902C1.52859 6.20424 1.81869 5.91178 2.17165 5.71463ZM13.2141 10.7143C12.8353 10.7143 12.4719 10.8648 12.204 11.1327C11.9361 11.4006 11.7856 11.764 11.7856 12.1428C11.7856 12.5217 11.9361 12.8851 12.204 13.153C12.4719 13.4209 12.8353 13.5714 13.2141 13.5714C13.593 13.5714 13.9564 13.4209 14.2243 13.153C14.4922 12.8851 14.6427 12.5217 14.6427 12.1428C14.6427 11.764 14.4922 11.4006 14.2243 11.1327C13.9564 10.8648 13.593 10.7143 13.2141 10.7143ZM16.7309 3.01785C16.7794 3.19839 16.804 3.38449 16.8041 3.57142L16.8038 4.64285H5.15129L14.1066 1.50177C14.6556 1.35474 15.2405 1.43178 15.7326 1.71597C16.2248 2.00015 16.5839 2.46819 16.7309 3.01713" fill="white"/>
</svg>
