<svg width="19" height="24" viewBox="0 0 19 24" fill="none" xmlns="http://www.w3.org/2000/svg">
<g clip-path="url(#clip0_278_143)">
<path d="M13.7179 0.428571C13.7179 0.303571 13.7581 0.200893 13.8385 0.120536C13.9188 0.0401786 14.0215 0 14.1465 0H18.0036C18.2358 0 18.4367 0.0848214 18.6063 0.254464C18.7759 0.424107 18.8608 0.625 18.8608 0.857143V4.71429C18.8608 4.83929 18.8206 4.94196 18.7402 5.02232C18.6599 5.10268 18.5572 5.14286 18.4322 5.14286H17.5751C17.4501 5.14286 17.3474 5.10268 17.267 5.02232C17.1867 4.94196 17.1465 4.83929 17.1465 4.71429V2.91964L13.7447 6.33482C14.8697 7.74554 15.4322 9.34821 15.4322 11.1429C15.4322 13.1161 14.7737 14.8326 13.4568 16.2924C12.1398 17.7522 10.5126 18.5893 8.57506 18.8036V20.5714H9.86077C9.98577 20.5714 10.0885 20.6116 10.1688 20.692C10.2492 20.7723 10.2893 20.875 10.2893 21V21.8571C10.2893 21.9821 10.2492 22.0848 10.1688 22.1652C10.0885 22.2455 9.98577 22.2857 9.86077 22.2857H8.57506V23.5714C8.57506 23.6964 8.53488 23.7991 8.45452 23.8795C8.37417 23.9598 8.27149 24 8.14649 24H7.28934C7.16434 24 7.06167 23.9598 6.98131 23.8795C6.90095 23.7991 6.86077 23.6964 6.86077 23.5714V22.2857H5.57506C5.45006 22.2857 5.34738 22.2455 5.26702 22.1652C5.18667 22.0848 5.14649 21.9821 5.14649 21.8571V21C5.14649 20.875 5.18667 20.7723 5.26702 20.692C5.34738 20.6116 5.45006 20.5714 5.57506 20.5714H6.86077V18.8036C5.53042 18.6607 4.32283 18.2009 3.23801 17.4241C2.15318 16.6473 1.3206 15.6496 0.740239 14.4308C0.159882 13.2121 -0.0767254 11.9107 0.0304175 10.5268C0.173275 8.70536 0.88756 7.12723 2.17327 5.79241C3.45899 4.45759 5.00809 3.6875 6.82059 3.48214C7.87417 3.35714 8.89202 3.44196 9.87417 3.73661C10.8563 4.03125 11.7402 4.49107 12.526 5.11607L15.9411 1.71429H14.1465C14.0215 1.71429 13.9188 1.67411 13.8385 1.59375C13.7581 1.51339 13.7179 1.41071 13.7179 1.28571V0.428571ZM7.71792 17.1429C9.3697 17.1429 10.7826 16.5558 11.9568 15.3817C13.1309 14.2076 13.7179 12.7946 13.7179 11.1429C13.7179 9.49107 13.1309 8.07812 11.9568 6.90402C10.7826 5.72991 9.3697 5.14286 7.71792 5.14286C6.06613 5.14286 4.65318 5.72991 3.47908 6.90402C2.30497 8.07812 1.71792 9.49107 1.71792 11.1429C1.71792 12.7946 2.30497 14.2076 3.47908 15.3817C4.65318 16.5558 6.06613 17.1429 7.71792 17.1429Z" fill="#EC4899"/>
</g>
<defs>
<clipPath id="clip0_278_143">
<rect width="18.864" height="24" fill="white"/>
</clipPath>
</defs>
</svg>
