<svg width="20" height="20" viewBox="0 0 20 20" fill="none" xmlns="http://www.w3.org/2000/svg">
<path d="M12.2948 8.33333C12.609 8.33316 12.9149 8.43447 13.1668 8.62216C13.4188 8.80986 13.6034 9.07391 13.6932 9.375H13.1248C12.517 9.375 11.9342 9.61644 11.5044 10.0462C11.0746 10.476 10.8332 11.0589 10.8332 11.6667V11.7083C10.3626 11.8044 9.93967 12.0601 9.63596 12.4321C9.33225 12.8042 9.16641 13.2697 9.1665 13.75V17.4067C8.33812 17.2175 7.59854 16.7525 7.06895 16.088C6.53935 15.4235 6.25113 14.5989 6.2515 13.7492V9.79167C6.2515 8.98667 6.904 8.33333 7.70984 8.33333H12.2948ZM16.0415 9.375C16.6476 9.37499 17.2289 9.61506 17.6584 10.0427C18.0879 10.4703 18.3305 11.0506 18.3332 11.6567V9.79167C18.3332 9.40489 18.1795 9.03396 17.906 8.76047C17.6325 8.48698 17.2616 8.33333 16.8748 8.33333H14.0623C14.3057 8.6275 14.4765 8.98333 14.549 9.375H16.0415ZM5.94234 8.33333C5.64122 8.69397 5.46055 9.13981 5.42567 9.60833L5.41734 9.79167V13.7492C5.41734 14.455 5.57734 15.1233 5.86234 15.72C5.58678 15.795 5.29928 15.8328 4.99984 15.8333C4.56203 15.8333 4.12851 15.7471 3.72403 15.5795C3.31956 15.412 2.95206 15.1663 2.64252 14.8567C2.33298 14.5471 2.08747 14.1795 1.92 13.775C1.75253 13.3705 1.66639 12.937 1.6665 12.4992V9.79167C1.66652 9.42567 1.80415 9.07307 2.05207 8.80384C2.29999 8.53461 2.64009 8.36845 3.00484 8.33833L3.12484 8.33333H5.94234ZM9.99984 2.5C10.6629 2.5 11.2988 2.76339 11.7676 3.23223C12.2364 3.70107 12.4998 4.33696 12.4998 5C12.4998 5.66304 12.2364 6.29893 11.7676 6.76777C11.2988 7.23661 10.6629 7.5 9.99984 7.5C9.3368 7.5 8.70091 7.23661 8.23207 6.76777C7.76323 6.29893 7.49984 5.66304 7.49984 5C7.49984 4.33696 7.76323 3.70107 8.23207 3.23223C8.70091 2.76339 9.3368 2.5 9.99984 2.5ZM15.4165 3.33333C15.969 3.33333 16.4989 3.55283 16.8896 3.94353C17.2803 4.33423 17.4998 4.86413 17.4998 5.41667C17.4998 5.9692 17.2803 6.4991 16.8896 6.88981C16.4989 7.28051 15.969 7.5 15.4165 7.5C14.864 7.5 14.3341 7.28051 13.9434 6.88981C13.5527 6.4991 13.3332 5.9692 13.3332 5.41667C13.3332 4.86413 13.5527 4.33423 13.9434 3.94353C14.3341 3.55283 14.864 3.33333 15.4165 3.33333ZM4.58317 3.33333C5.1357 3.33333 5.66561 3.55283 6.05631 3.94353C6.44701 4.33423 6.6665 4.86413 6.6665 5.41667C6.6665 5.9692 6.44701 6.4991 6.05631 6.88981C5.66561 7.28051 5.1357 7.5 4.58317 7.5C4.03064 7.5 3.50073 7.28051 3.11003 6.88981C2.71933 6.4991 2.49984 5.9692 2.49984 5.41667C2.49984 4.86413 2.71933 4.33423 3.11003 3.94353C3.50073 3.55283 4.03064 3.33333 4.58317 3.33333ZM11.6665 12.5H11.2498C10.9183 12.5 10.6004 12.6317 10.366 12.8661C10.1315 13.1005 9.99984 13.4185 9.99984 13.75V15H12.0832V14.7917C12.0832 14.6259 12.149 14.4669 12.2662 14.3497C12.3834 14.2325 12.5424 14.1667 12.7082 14.1667C12.8739 14.1667 13.0329 14.2325 13.1501 14.3497C13.2673 14.4669 13.3332 14.6259 13.3332 14.7917V15H15.8332V14.7917C15.8332 14.6259 15.899 14.4669 16.0162 14.3497C16.1334 14.2325 16.2924 14.1667 16.4582 14.1667C16.6239 14.1667 16.7829 14.2325 16.9001 14.3497C17.0173 14.4669 17.0832 14.6259 17.0832 14.7917V15H19.1665V13.75C19.1665 13.4185 19.0348 13.1005 18.8004 12.8661C18.566 12.6317 18.248 12.5 17.9165 12.5H17.4998V11.6667C17.4998 11.2799 17.3462 10.909 17.0727 10.6355C16.7992 10.362 16.4283 10.2083 16.0415 10.2083H13.1248C12.7381 10.2083 12.3671 10.362 12.0936 10.6355C11.8201 10.909 11.6665 11.2799 11.6665 11.6667V12.5ZM12.9165 11.6667C12.9165 11.6114 12.9385 11.5584 12.9775 11.5194C13.0166 11.4803 13.0696 11.4583 13.1248 11.4583H16.0415C16.0968 11.4583 16.1497 11.4803 16.1888 11.5194C16.2279 11.5584 16.2498 11.6114 16.2498 11.6667V12.5H12.9165V11.6667ZM9.99984 17.9167V16.25H12.0832V16.875C12.0832 17.0408 12.149 17.1997 12.2662 17.3169C12.3834 17.4342 12.5424 17.5 12.7082 17.5C12.8739 17.5 13.0329 17.4342 13.1501 17.3169C13.2673 17.1997 13.3332 17.0408 13.3332 16.875V16.25H15.8332V16.875C15.8332 17.0408 15.899 17.1997 16.0162 17.3169C16.1334 17.4342 16.2924 17.5 16.4582 17.5C16.6239 17.5 16.7829 17.4342 16.9001 17.3169C17.0173 17.1997 17.0832 17.0408 17.0832 16.875V16.25H19.1665V17.9167C19.1665 18.2482 19.0348 18.5661 18.8004 18.8005C18.566 19.035 18.248 19.1667 17.9165 19.1667H11.2498C10.9183 19.1667 10.6004 19.035 10.366 18.8005C10.1315 18.5661 9.99984 18.2482 9.99984 17.9167Z" fill="white"/>
</svg>
