<svg width="18" height="19" viewBox="0 0 18 19" fill="none" xmlns="http://www.w3.org/2000/svg">
<g clip-path="url(#clip0_278_74)">
<path d="M5.54881 14.6595C6.48168 15.0168 7.52506 15.2407 8.67752 15.2407C13.1266 15.2407 15.9683 11.8968 16.9872 10.4472C17.3891 9.88749 17.3891 9.11249 16.9872 8.55277C16.2599 7.51874 15.3847 6.59709 14.3896 5.81731L12.0186 8.18823C12.274 8.83828 12.3341 9.54872 12.1916 10.2324C12.049 10.9161 11.71 11.5434 11.2162 12.0372C10.7223 12.5311 10.0951 12.8701 9.41139 13.0126C8.72768 13.1551 8.01724 13.095 7.36719 12.8397L5.54881 14.6595ZM8.5584 11.6499L8.67752 11.6528C8.97029 11.6528 9.26 11.5932 9.52893 11.4774C9.79786 11.3617 10.0404 11.1923 10.2416 10.9797C10.4428 10.767 10.5986 10.5156 10.6993 10.2407C10.8 9.96576 10.8436 9.6732 10.8274 9.38087L8.55696 11.6485L8.5584 11.6499ZM8.79664 7.35009L6.52905 9.62055C6.51222 9.31816 6.55939 9.01563 6.66747 8.73272C6.77555 8.44981 6.94211 8.19288 7.15626 7.97873C7.37041 7.76458 7.62733 7.59803 7.91024 7.48995C8.19316 7.38187 8.49569 7.3347 8.79807 7.35152L8.79664 7.35009ZM9.98928 6.15888C9.33923 5.90351 8.62879 5.84341 7.94508 5.98595C7.26137 6.12849 6.63413 6.46747 6.14028 6.96132C5.64643 7.45517 5.30745 8.08241 5.16491 8.76612C5.02237 9.44983 5.08247 10.1603 5.33784 10.8103L2.96548 13.1841C1.97028 12.4039 1.09505 11.4818 0.367795 10.4472C-0.0340567 9.88749 -0.0340567 9.12685 0.367795 8.55277C1.38678 7.10323 4.22844 3.75925 8.67752 3.75925C9.82997 3.75925 10.8734 3.98314 11.8062 4.3405L9.98928 6.15888ZM8.5584 11.6499L8.67752 11.6528C8.97029 11.6528 9.26 11.5932 9.52893 11.4774C9.79786 11.3617 10.0404 11.1923 10.2416 10.9797C10.4428 10.767 10.5986 10.5156 10.6993 10.2407C10.8 9.96576 10.8436 9.6732 10.8274 9.38087L8.55696 11.6485L8.5584 11.6499ZM8.79664 7.35009C8.49425 7.33326 8.19172 7.38043 7.90881 7.48851C7.6259 7.59659 7.36897 7.76315 7.15482 7.9773C6.94067 8.19145 6.77412 8.44837 6.66604 8.73128C6.55796 9.01419 6.51079 9.31673 6.52761 9.61911L8.79807 7.35152L8.79664 7.35009ZM15.6626 3.43777C15.7754 3.32206 15.8413 3.16862 15.8476 3.00713C15.8538 2.84563 15.8 2.68755 15.6964 2.56347C15.5929 2.43938 15.447 2.35811 15.287 2.33536C15.1269 2.31261 14.9642 2.35001 14.8302 2.44032L14.7397 2.51495L1.69391 15.5622C1.58227 15.678 1.51731 15.831 1.51149 15.9918C1.50566 16.1525 1.55938 16.3098 1.66235 16.4334C1.76532 16.557 1.91028 16.6382 2.06946 16.6615C2.22863 16.6848 2.3908 16.6486 2.52488 16.5597L2.6153 16.485L15.6626 3.43777Z" fill="white"/>
</g>
<defs>
<clipPath id="clip0_278_74">
<rect width="17.2222" height="17.2222" fill="white" transform="translate(0.0664062 0.888916)"/>
</clipPath>
</defs>
</svg>
