<svg width="16" height="17" viewBox="0 0 16 17" fill="none" xmlns="http://www.w3.org/2000/svg">
<path d="M0.5 0.5H15.5V4.15417H13.8333V2.16667H2.16667V9.66667H5.7775V11.3333H0.5V0.5Z" fill="white"/>
<path d="M8.56997 6.57246C9.29831 7.34329 9.91914 7.99996 11.3333 7.99996H13C13.442 7.99996 13.8659 8.17555 14.1785 8.48811C14.491 8.80068 14.6666 9.2246 14.6666 9.66663V10.5C14.6666 10.7925 14.5896 11.0799 14.4433 11.3333C14.2971 11.5866 14.0867 11.797 13.8333 11.9433V16.3333H11.3333V9.66663C9.15247 9.66663 8.03664 8.45829 7.29997 7.66246C7.20009 7.55275 7.09813 7.44495 6.99414 7.33913L8.17247 6.16079C8.31081 6.29968 8.44331 6.4369 8.56997 6.57246ZM13.8333 5.91663C13.8333 6.24815 13.7016 6.56609 13.4672 6.80051C13.2328 7.03493 12.9148 7.16663 12.5833 7.16663C12.2518 7.16663 11.9338 7.03493 11.6994 6.80051C11.465 6.56609 11.3333 6.24815 11.3333 5.91663C11.3333 5.58511 11.465 5.26716 11.6994 5.03274C11.9338 4.79832 12.2518 4.66663 12.5833 4.66663C12.9148 4.66663 13.2328 4.79832 13.4672 5.03274C13.7016 5.26716 13.8333 5.58511 13.8333 5.91663Z" fill="white"/>
</svg>
