<svg width="16" height="16" viewBox="0 0 16 16" fill="none" xmlns="http://www.w3.org/2000/svg">
<path fill-rule="evenodd" clip-rule="evenodd" d="M12.1663 4.66667C12.1663 6.96792 10.3009 8.83333 7.99967 8.83333C5.69842 8.83333 3.83301 6.96792 3.83301 4.66667C3.83301 2.36542 5.69842 0.5 7.99967 0.5C10.3009 0.5 12.1663 2.36542 12.1663 4.66667ZM11.333 4.66667C11.333 5.55072 10.9818 6.39857 10.3567 7.02369C9.73158 7.64881 8.88373 8 7.99967 8C7.11562 8 6.26777 7.64881 5.64265 7.02369C5.01753 6.39857 4.66634 5.55072 4.66634 4.66667C4.66634 3.78261 5.01753 2.93477 5.64265 2.30964C6.26777 1.68452 7.11562 1.33333 7.99967 1.33333C8.88373 1.33333 9.73158 1.68452 10.3567 2.30964C10.9818 2.93477 11.333 3.78261 11.333 4.66667Z" fill="white"/>
<path d="M10.7082 9.66666C10.6638 9.65658 10.6174 9.6619 10.5765 9.68174C10.5356 9.70159 10.5027 9.73477 10.4832 9.77583L8.83317 14.4883V13L8.59359 11.3246C8.67007 11.3085 8.74048 11.2712 8.79677 11.2169C8.85306 11.1627 8.89296 11.0937 8.91192 11.0179L9.12025 10.1846C9.13564 10.1232 9.13683 10.0591 9.12373 9.99715C9.11064 9.93521 9.08361 9.87708 9.04469 9.82716C9.00577 9.77723 8.95599 9.73683 8.89912 9.70903C8.84226 9.68122 8.7798 9.66673 8.7165 9.66666H7.284C7.22071 9.66668 7.15826 9.68112 7.10138 9.70888C7.0445 9.73663 6.99469 9.77698 6.95574 9.82686C6.91678 9.87675 6.8897 9.93485 6.87655 9.99675C6.8634 10.0587 6.86452 10.1228 6.87984 10.1842L7.08817 11.0175C7.10706 11.0934 7.14693 11.1625 7.20323 11.2168C7.25952 11.2711 7.32997 11.3084 7.4065 11.3246L7.1665 13V14.1233L5.5165 9.77583C5.49699 9.73477 5.46407 9.70159 5.42317 9.68174C5.38227 9.6619 5.33583 9.65658 5.2915 9.66666C5.13222 9.70512 4.97277 9.7429 4.81317 9.78C3.87067 10.0008 2.70567 10.2733 2.0865 10.68C1.35192 11.1621 0.916504 11.7304 0.916504 12.375V15.0833H15.0832V12.375C15.0832 11.7304 14.6478 11.1625 13.9132 10.68C13.294 10.2733 12.129 10.0008 11.1865 9.78C11.0186 9.74083 10.8573 9.70333 10.7082 9.66666Z" fill="white"/>
</svg>
