<svg width="14" height="17" viewBox="0 0 14 17" fill="none" xmlns="http://www.w3.org/2000/svg">
<path d="M12.9038 2.93145C13.1018 2.93145 13.2916 3.01008 13.4315 3.15004C13.5715 3.29 13.6501 3.47982 13.6501 3.67775C13.6501 3.87568 13.5715 4.0655 13.4315 4.20546C13.2916 4.34542 13.1018 4.42405 12.9038 4.42405H12.1575L12.1553 4.47703L11.459 14.2319C11.4322 14.6084 11.2637 14.9609 10.9874 15.2182C10.7112 15.4755 10.3477 15.6185 9.97014 15.6185H3.89604C3.51852 15.6185 3.15502 15.4755 2.87875 15.2182C2.60248 14.9609 2.43398 14.6084 2.40718 14.2319L1.71088 4.47778L1.70939 4.42405H0.963093C0.765163 4.42405 0.57534 4.34542 0.435382 4.20546C0.295424 4.0655 0.216797 3.87568 0.216797 3.67775C0.216797 3.47982 0.295424 3.29 0.435382 3.15004C0.57534 3.01008 0.765163 2.93145 0.963093 2.93145H12.9038ZM8.42606 0.692566C8.62399 0.692566 8.81381 0.771193 8.95377 0.911151C9.09373 1.05111 9.17235 1.24093 9.17235 1.43886C9.17235 1.63679 9.09373 1.82662 8.95377 1.96657C8.81381 2.10653 8.62399 2.18516 8.42606 2.18516H5.44087C5.24294 2.18516 5.05312 2.10653 4.91316 1.96657C4.7732 1.82662 4.69457 1.63679 4.69457 1.43886C4.69457 1.24093 4.7732 1.05111 4.91316 0.911151C5.05312 0.771193 5.24294 0.692566 5.44087 0.692566H8.42606Z" fill="white"/>
</svg>
