<svg width="16" height="16" viewBox="0 0 16 16" fill="none" xmlns="http://www.w3.org/2000/svg">
<path opacity="0.16" d="M13.8333 7.16667C13.8333 8.93478 13.131 10.6305 11.8807 11.8807C10.6305 13.131 8.93478 13.8333 7.16667 13.8333C5.39856 13.8333 3.70286 13.131 2.45262 11.8807C1.20238 10.6305 0.5 8.93478 0.5 7.16667C0.5 5.39856 1.20238 3.70286 2.45262 2.45262C3.70286 1.20238 5.39856 0.5 7.16667 0.5C8.93478 0.5 10.6305 1.20238 11.8807 2.45262C13.131 3.70286 13.8333 5.39856 13.8333 7.16667Z" fill="#0C6FFF"/>
<path d="M15.5002 15.5L11.881 11.8808M11.881 11.8808C12.5001 11.2617 12.9912 10.5268 13.3262 9.71794C13.6612 8.90909 13.8337 8.04216 13.8337 7.16666C13.8337 6.29115 13.6612 5.42422 13.3262 4.61537C12.9912 3.80651 12.5001 3.07156 11.881 2.45249C11.2619 1.83342 10.527 1.34234 9.71813 1.0073C8.90927 0.67226 8.04234 0.499817 7.16684 0.499817C6.29134 0.499817 5.42441 0.67226 4.61555 1.0073C3.80669 1.34234 3.07174 1.83342 2.45267 2.45249C1.2024 3.70276 0.5 5.3985 0.5 7.16666C0.5 8.93481 1.2024 10.6305 2.45267 11.8808C3.70295 13.1311 5.39868 13.8335 7.16684 13.8335C8.93499 13.8335 10.6307 13.1311 11.881 11.8808Z" stroke="#0C6FFF" stroke-width="1.66667" stroke-linecap="round" stroke-linejoin="round"/>
</svg>
