<svg width="14" height="19" viewBox="0 0 14 19" fill="none" xmlns="http://www.w3.org/2000/svg">
<path fill-rule="evenodd" clip-rule="evenodd" d="M9.50016 0.666672C9.79272 0.666679 10.0801 0.743693 10.3335 0.889973C10.5868 1.03625 10.7972 1.24665 10.9435 1.50001H12.0002C12.4422 1.50001 12.8661 1.6756 13.1787 1.98816C13.4912 2.30072 13.6668 2.72464 13.6668 3.16667V13.1667C13.6668 14.2717 13.2278 15.3315 12.4464 16.1129C11.665 16.8944 10.6052 17.3333 9.50016 17.3333H2.00016C1.55814 17.3333 1.13421 17.1577 0.821651 16.8452C0.509091 16.5326 0.333496 16.1087 0.333496 15.6667V3.16667C0.333496 2.72464 0.509091 2.30072 0.821651 1.98816C1.13421 1.6756 1.55814 1.50001 2.00016 1.50001H3.05683C3.20311 1.24665 3.4135 1.03625 3.66685 0.889973C3.92021 0.743693 4.20761 0.666679 4.50016 0.666672H9.50016ZM9.3535 6.81584L5.8185 10.3517L4.63933 9.1725C4.48216 9.02071 4.27166 8.93671 4.05316 8.93861C3.83466 8.94051 3.62565 9.02815 3.47115 9.18266C3.31664 9.33716 3.229 9.54617 3.2271 9.76467C3.2252 9.98317 3.3092 10.1937 3.461 10.3508L5.16933 12.06C5.25446 12.1452 5.35553 12.2127 5.46677 12.2588C5.57801 12.3049 5.69725 12.3286 5.81766 12.3286C5.93808 12.3286 6.05731 12.3049 6.16856 12.2588C6.2798 12.2127 6.38087 12.1452 6.466 12.06L10.5327 7.99417C10.61 7.91675 10.6714 7.82484 10.7132 7.7237C10.7551 7.62256 10.7766 7.51417 10.7766 7.40471C10.7765 7.29525 10.7549 7.18688 10.713 7.08577C10.6711 6.98465 10.6097 6.89279 10.5322 6.81542C10.4548 6.73805 10.3629 6.67669 10.2618 6.63484C10.1606 6.59299 10.0522 6.57146 9.94278 6.5715C9.83333 6.57154 9.72495 6.59314 9.62384 6.63506C9.52273 6.67699 9.43087 6.73841 9.3535 6.81584ZM9.0835 2.33334H4.91683C4.81931 2.33331 4.72486 2.36748 4.64995 2.42991C4.57503 2.49234 4.52438 2.57908 4.50683 2.675L4.50016 2.75001V3.58334C4.50013 3.68086 4.53431 3.7753 4.59674 3.85022C4.65917 3.92514 4.7459 3.97578 4.84183 3.99334L4.91683 4.00001H9.0835C9.18102 4.00004 9.27546 3.96586 9.35038 3.90343C9.4253 3.841 9.47594 3.75427 9.4935 3.65834L9.50016 3.58334V2.75001C9.5002 2.65248 9.46602 2.55804 9.40359 2.48312C9.34116 2.4082 9.25442 2.35756 9.1585 2.34L9.0835 2.33334Z" fill="white"/>
</svg>
