<svg width="19" height="19" viewBox="0 0 19 19" fill="none" xmlns="http://www.w3.org/2000/svg">
<path d="M9.5 4.90527C7.01883 4.90527 5 6.92399 5 9.40527C5 11.8866 7.01883 13.9053 9.5 13.9053C11.9812 13.9053 14 11.8866 14 9.40527C14 6.92399 11.9812 4.90527 9.5 4.90527ZM11.8537 8.25871L9.35357 10.7589C9.15818 10.954 8.84186 10.954 8.64648 10.7589L7.14675 9.25861C6.95137 9.06348 6.95137 8.74675 7.14675 8.55161C7.34173 8.35648 7.65846 8.35648 7.85384 8.55161L9.00023 9.69818L11.1466 7.5517C11.3415 7.35616 11.6583 7.35616 11.8537 7.5517C12.0486 7.74684 12.0486 8.06357 11.8537 8.25871Z" fill="white"/>
<mask id="mask0_136_297" style="mask-type:luminance" maskUnits="userSpaceOnUse" x="0" y="0" width="19" height="19">
<path d="M0 0H18.4676V18.9052H0V0Z" fill="white"/>
</mask>
<g mask="url(#mask0_136_297)">
<path d="M17.9594 9.45093L18.4152 7.60882C18.4572 7.43787 18.4161 7.25735 18.3044 7.12151L17.0969 5.65867L16.7058 3.80106C16.6697 3.62921 16.5544 3.4847 16.3953 3.41131L14.6736 2.61812L13.5193 1.11289C13.414 0.976131 13.2517 0.8959 13.0799 0.8959C12.986 0.8959 13.5727 0.887239 11.1749 0.929633L9.48091 0.0776408C9.3241 -0.00122206 9.13993 -0.00122206 8.98357 0.0776408L7.28962 0.929633L5.39417 0.8959C5.20864 0.894077 5.04727 0.979778 4.9447 1.11289L3.79048 2.61812L2.06871 3.41131C1.90962 3.4847 1.79429 3.62921 1.75828 3.80106L1.36761 5.65867L0.159592 7.12197C0.0479075 7.25735 0.00688045 7.43787 0.049275 7.60882L0.504674 9.45093L0.0488192 11.293C0.00688054 11.4635 0.0479075 11.6445 0.159592 11.7799L1.36761 13.2432L1.75828 15.1003C1.79429 15.2722 1.90962 15.4167 2.06871 15.4901L3.79048 16.2833L4.9447 17.7885C5.05 17.9257 5.21229 18.0055 5.38414 18.0055C5.47805 18.0055 4.89137 18.0142 7.28962 17.9722L8.98312 18.8242C9.14084 18.9031 9.32501 18.9022 9.48091 18.8242L11.1744 17.9722L13.0699 18.0055C13.2554 18.0078 13.4168 17.9221 13.5193 17.7885L14.6736 16.2833L16.3953 15.4901C16.5544 15.4167 16.6697 15.2722 16.7058 15.1003L17.0964 13.2432L18.3044 11.7799C18.4161 11.6445 18.4572 11.4635 18.4152 11.293L17.9594 9.45093ZM9.23202 15.5539C5.871 15.5539 3.13678 12.816 3.13678 9.45093C3.13678 6.08535 5.871 3.34749 9.23202 3.34749C12.593 3.34749 15.3273 6.08535 15.3273 9.45093C15.3273 12.816 12.593 15.5539 9.23202 15.5539Z" fill="white"/>
</g>
</svg>
