<svg width="16" height="17" viewBox="0 0 16 17" fill="none" xmlns="http://www.w3.org/2000/svg">
<path fill-rule="evenodd" clip-rule="evenodd" d="M15.6669 11.8096V2.28574C15.6669 1.78057 15.4662 1.29609 15.109 0.938873C14.7517 0.581661 14.2673 0.380981 13.7621 0.380981H6.14304C5.63787 0.380981 5.15339 0.581661 4.79617 0.938873C4.43896 1.29609 4.23828 1.78057 4.23828 2.28574V11.8096C4.23828 12.3147 4.43896 12.7992 4.79617 13.1564C5.15339 13.5136 5.63787 13.7143 6.14304 13.7143H13.7621C14.2673 13.7143 14.7517 13.5136 15.109 13.1564C15.4662 12.7992 15.6669 12.3147 15.6669 11.8096Z" stroke="white" stroke-width="0.952381" stroke-linecap="round" stroke-linejoin="round"/>
<path d="M4.05256 2.70007L2.14399 3.39531C1.66944 3.56816 1.28296 3.9224 1.06954 4.38014C0.856116 4.83788 0.833223 5.36165 1.00589 5.83626L4.26304 14.7858C4.34862 15.0209 4.47967 15.2368 4.64871 15.4212C4.81776 15.6057 5.02148 15.755 5.24824 15.8607C5.475 15.9664 5.72036 16.0263 5.9703 16.0372C6.22024 16.048 6.46988 16.0095 6.70494 15.9239L12.0078 13.8305M7.09542 5.14293H11.8573M7.09542 7.04769H12.8097M7.09542 8.95245H9.95256" stroke="white" stroke-width="0.952381" stroke-linecap="round" stroke-linejoin="round"/>
</svg>
