<svg width="20" height="20" viewBox="0 0 20 20" fill="none" xmlns="http://www.w3.org/2000/svg">
<path d="M14.635 7.68497L14.1967 8.4583C13.7842 9.1858 13.5775 9.54913 13.1283 9.5808C12.6783 9.61247 12.4883 9.35247 12.1075 8.83247C11.6842 8.25 11.4127 7.57121 11.3175 6.85747C11.2283 6.19163 11.1842 5.85913 11.0758 5.69497C10.9042 5.43413 10.5575 5.2908 10.2992 5.13913C9.61833 4.73913 9.2775 4.53913 9.18833 4.1983C9.09833 3.85913 9.295 3.51247 9.68833 2.81913C10.0817 2.1258 10.2783 1.77913 10.6125 1.6883C10.9458 1.59663 11.2875 1.79747 11.9683 2.19747C12.2267 2.34997 12.5217 2.58247 12.83 2.60413C13.0233 2.61747 13.3292 2.48997 13.94 2.2358C14.5953 1.96145 15.3103 1.86099 16.0158 1.94413C16.6492 2.01997 16.9658 2.0583 17.1625 2.46913C17.3608 2.88163 17.1542 3.24497 16.7417 3.97247L16.3033 4.74413M14.635 7.68497L14.9967 7.89747C15.1865 8.00864 15.3966 8.08081 15.6147 8.10975C15.8328 8.13869 16.0545 8.12382 16.2667 8.066C16.479 8.00818 16.6776 7.90858 16.8508 7.77303C17.0241 7.63749 17.1686 7.46873 17.2758 7.27663C17.4978 6.88689 17.5581 6.42569 17.4439 5.99197C17.3297 5.55825 17.0501 5.18656 16.665 4.95663L16.3033 4.74413M14.635 7.68497L16.3033 4.74413M5 9.99997L10.8333 5.8333M5.83333 18.3333H11.6667M5 12.5L9.16667 18.3333M5.83333 10.8333C5.83333 11.2753 5.65774 11.6993 5.34518 12.0118C5.03262 12.3244 4.60869 12.5 4.16667 12.5C3.72464 12.5 3.30072 12.3244 2.98816 12.0118C2.67559 11.6993 2.5 11.2753 2.5 10.8333C2.5 10.3913 2.67559 9.96735 2.98816 9.65479C3.30072 9.34223 3.72464 9.16663 4.16667 9.16663C4.60869 9.16663 5.03262 9.34223 5.34518 9.65479C5.65774 9.96735 5.83333 10.3913 5.83333 10.8333Z" stroke="white" stroke-width="1.25" stroke-linecap="round" stroke-linejoin="round"/>
</svg>
