<svg width="20" height="20" viewBox="0 0 20 20" fill="none" xmlns="http://www.w3.org/2000/svg">
<path d="M9.99984 1.66666C5.39984 1.66666 1.6665 5.39999 1.6665 9.99999C1.6665 14.6 5.39984 18.3333 9.99984 18.3333C14.5998 18.3333 18.3332 14.6 18.3332 9.99999C18.3332 5.39999 14.5998 1.66666 9.99984 1.66666ZM9.99984 4.99999C11.6082 4.99999 12.9165 6.30832 12.9165 7.91666C12.9165 9.52499 11.6082 10.8333 9.99984 10.8333C8.3915 10.8333 7.08317 9.52499 7.08317 7.91666C7.08317 6.30832 8.3915 4.99999 9.99984 4.99999ZM9.99984 16.6667C8.30817 16.6667 6.30817 15.9833 4.88317 14.2667C6.34302 13.1218 8.14463 12.4997 9.99984 12.4997C11.855 12.4997 13.6567 13.1218 15.1165 14.2667C13.6915 15.9833 11.6915 16.6667 9.99984 16.6667Z" fill="white"/>
</svg>
