<svg width="20" height="20" viewBox="0 0 20 20" fill="none" xmlns="http://www.w3.org/2000/svg">
<path opacity="0.3" d="M3.3335 15L5.00016 13.3333H16.6668V3.33333H3.3335V15ZM12.5002 7.49999H14.1668V9.16666H12.5002V7.49999ZM9.16683 7.49999H10.8335V9.16666H9.16683V7.49999ZM5.8335 7.49999H7.50016V9.16666H5.8335V7.49999Z" fill="white"/>
<path d="M16.6665 1.66667H3.33317C2.4165 1.66667 1.6665 2.41667 1.6665 3.33334V18.3333L4.99984 15H16.6665C17.5832 15 18.3332 14.25 18.3332 13.3333V3.33334C18.3332 2.41667 17.5832 1.66667 16.6665 1.66667ZM16.6665 13.3333H4.99984L3.33317 15V3.33334H16.6665V13.3333ZM5.83317 7.5H7.49984V9.16667H5.83317V7.5ZM9.1665 7.5H10.8332V9.16667H9.1665V7.5ZM12.4998 7.5H14.1665V9.16667H12.4998V7.5Z" fill="white"/>
</svg>
