<svg width="25" height="25" viewBox="0 0 25 25" fill="none" xmlns="http://www.w3.org/2000/svg">
<path opacity="0.3" d="M12.4998 4.16666C9.62484 4.16666 7.2915 6.49999 7.2915 9.37499C7.2915 12.3437 10.3332 16.8854 12.4998 19.6667C14.6978 16.8646 17.7082 12.375 17.7082 9.37499C17.7082 6.49999 15.3748 4.16666 12.4998 4.16666ZM12.4998 11.9792C11.8092 11.9792 11.1468 11.7048 10.6584 11.2164C10.17 10.728 9.89567 10.0657 9.89567 9.37499C9.89567 8.68432 10.17 8.02194 10.6584 7.53357C11.1468 7.04519 11.8092 6.77082 12.4998 6.77082C13.1905 6.77082 13.8529 7.04519 14.3413 7.53357C14.8296 8.02194 15.104 8.68432 15.104 9.37499C15.104 10.0657 14.8296 10.728 14.3413 11.2164C13.8529 11.7048 13.1905 11.9792 12.4998 11.9792Z" fill="#008000"/>
<path d="M12.5002 2.08334C8.46891 2.08334 5.2085 5.34376 5.2085 9.37501C5.2085 14.8438 12.5002 22.9167 12.5002 22.9167C12.5002 22.9167 19.7918 14.8438 19.7918 9.37501C19.7918 5.34376 16.5314 2.08334 12.5002 2.08334ZM7.29183 9.37501C7.29183 6.50001 9.62516 4.16668 12.5002 4.16668C15.3752 4.16668 17.7085 6.50001 17.7085 9.37501C17.7085 12.375 14.7085 16.8646 12.5002 19.6667C10.3335 16.8854 7.29183 12.3438 7.29183 9.37501Z" fill="#008000"/>
<path d="M12.5002 11.9792C13.9384 11.9792 15.1043 10.8133 15.1043 9.37501C15.1043 7.93677 13.9384 6.77084 12.5002 6.77084C11.0619 6.77084 9.896 7.93677 9.896 9.37501C9.896 10.8133 11.0619 11.9792 12.5002 11.9792Z" fill="#008000"/>
</svg>
