<svg width="20" height="20" viewBox="0 0 20 20" fill="none" xmlns="http://www.w3.org/2000/svg">
<path d="M6.6665 1.66667H13.3332C14.6593 1.66667 15.931 2.19346 16.8687 3.13114C17.8064 4.06882 18.3332 5.34059 18.3332 6.66667V13.3333C18.3332 14.6594 17.8064 15.9312 16.8687 16.8689C15.931 17.8066 14.6593 18.3333 13.3332 18.3333H6.6665C5.34042 18.3333 4.06865 17.8066 3.13097 16.8689C2.19329 15.9312 1.6665 14.6594 1.6665 13.3333L1.6665 6.66667C1.6665 5.34059 2.19329 4.06882 3.13097 3.13114C4.06865 2.19346 5.34042 1.66667 6.6665 1.66667ZM6.6665 3.33334C5.78245 3.33334 4.9346 3.68453 4.30948 4.30965C3.68436 4.93477 3.33317 5.78262 3.33317 6.66667V13.3333C3.33317 14.2174 3.68436 15.0652 4.30948 15.6904C4.9346 16.3155 5.78245 16.6667 6.6665 16.6667H13.3332C14.2172 16.6667 15.0651 16.3155 15.6902 15.6904C16.3153 15.0652 16.6665 14.2174 16.6665 13.3333V6.66667C16.6665 5.78262 16.3153 4.93477 15.6902 4.30965C15.0651 3.68453 14.2172 3.33334 13.3332 3.33334H6.6665ZM11.6665 9.16667H14.1665C14.3875 9.16667 14.5995 9.25447 14.7558 9.41075C14.912 9.56703 14.9998 9.77899 14.9998 10C14.9998 10.221 14.912 10.433 14.7558 10.5893C14.5995 10.7455 14.3875 10.8333 14.1665 10.8333H11.6665C11.4455 10.8333 11.2335 10.7455 11.0772 10.5893C10.921 10.433 10.8332 10.221 10.8332 10C10.8332 9.77899 10.921 9.56703 11.0772 9.41075C11.2335 9.25447 11.4455 9.16667 11.6665 9.16667ZM9.99984 12.5H14.1665C14.3875 12.5 14.5995 12.5878 14.7558 12.7441C14.912 12.9004 14.9998 13.1123 14.9998 13.3333C14.9998 13.5544 14.912 13.7663 14.7558 13.9226C14.5995 14.0789 14.3875 14.1667 14.1665 14.1667H9.99984C9.77882 14.1667 9.56686 14.0789 9.41058 13.9226C9.2543 13.7663 9.1665 13.5544 9.1665 13.3333C9.1665 13.1123 9.2543 12.9004 9.41058 12.7441C9.56686 12.5878 9.77882 12.5 9.99984 12.5ZM9.99984 5.83334H14.1665C14.3875 5.83334 14.5995 5.92114 14.7558 6.07742C14.912 6.2337 14.9998 6.44566 14.9998 6.66667C14.9998 6.88769 14.912 7.09965 14.7558 7.25593C14.5995 7.41221 14.3875 7.5 14.1665 7.5H9.99984C9.77882 7.5 9.56686 7.41221 9.41058 7.25593C9.2543 7.09965 9.1665 6.88769 9.1665 6.66667C9.1665 6.44566 9.2543 6.2337 9.41058 6.07742C9.56686 5.92114 9.77882 5.83334 9.99984 5.83334ZM6.52317 10.2025L8.2915 8.43334C8.36893 8.35597 8.46083 8.2946 8.56198 8.25275C8.66312 8.2109 8.77151 8.18938 8.88096 8.18942C8.99042 8.18946 9.0988 8.21106 9.19991 8.25298C9.30102 8.2949 9.39288 8.35633 9.47025 8.43375C9.54762 8.51118 9.60899 8.60309 9.65084 8.70423C9.69269 8.80537 9.71421 8.91376 9.71417 9.02322C9.71413 9.13267 9.69254 9.24105 9.65061 9.34216C9.60869 9.44327 9.54726 9.53513 9.46984 9.6125L7.11317 11.9692C7.03578 12.0467 6.94387 12.1081 6.8427 12.1501C6.74154 12.192 6.6331 12.2136 6.52359 12.2136C6.41407 12.2136 6.30563 12.192 6.20447 12.1501C6.1033 12.1081 6.0114 12.0467 5.934 11.9692L4.75567 10.7917C4.60387 10.6345 4.51988 10.424 4.52178 10.2055C4.52367 9.98701 4.61132 9.778 4.76582 9.62349C4.92033 9.46898 5.12934 9.38134 5.34784 9.37944C5.56633 9.37754 5.77683 9.46154 5.934 9.61334L6.52317 10.2025Z" fill="white"/>
</svg>
