<svg width="22" height="22" viewBox="0 0 22 22" fill="none" xmlns="http://www.w3.org/2000/svg">
<g clip-path="url(#clip0_278_137)">
<path d="M0.468689 10.8684C0.468177 12.7168 0.951154 14.5216 1.86953 16.1125L0.380859 21.5478L5.94328 20.0893C7.48178 20.9269 9.20554 21.3657 10.9572 21.3658H10.9618C16.7445 21.3658 21.4517 16.6603 21.4542 10.8766C21.4553 8.07401 20.3649 5.43862 18.3837 3.45589C16.4028 1.47333 13.7684 0.380918 10.9614 0.379639C5.17805 0.379639 0.471162 5.08491 0.468774 10.8684" fill="url(#paint0_linear_278_137)"/>
<path d="M0.09417 10.8649C0.0935731 12.7799 0.59386 14.6493 1.54498 16.2971L0.00292969 21.9273L5.7648 20.4165C7.35238 21.2821 9.13984 21.7385 10.9587 21.7392H10.9634C16.9535 21.7392 21.8298 16.8644 21.8324 10.8736C21.8334 7.97031 20.7037 5.24018 18.6518 3.18642C16.5995 1.13291 13.8709 0.0011938 10.9634 0C4.9722 0 0.0965576 4.87411 0.09417 10.8649ZM3.52557 16.0133L3.31043 15.6718C2.40605 14.2337 1.9287 12.572 1.92938 10.8656C1.93125 5.88619 5.98369 1.83504 10.9668 1.83504C13.38 1.83606 15.6478 2.77678 17.3536 4.48357C19.0593 6.19053 19.9979 8.4596 19.9973 10.8729C19.995 15.8524 15.9425 19.904 10.9634 19.904H10.9598C9.33852 19.9032 7.74846 19.4678 6.36178 18.645L6.03178 18.4493L2.61257 19.3458L3.52557 16.0133Z" fill="url(#paint1_linear_278_137)"/>
<path d="M8.24671 6.32267C8.04325 5.87048 7.82913 5.86136 7.63565 5.85343C7.47722 5.8466 7.2961 5.84712 7.11516 5.84712C6.93404 5.84712 6.63977 5.91525 6.39103 6.18684C6.14204 6.45868 5.44043 7.11561 5.44043 8.45173C5.44043 9.78784 6.41363 11.0792 6.5493 11.2606C6.68514 11.4416 8.42808 14.2712 11.1885 15.3598C13.4826 16.2645 13.9495 16.0845 14.4474 16.0392C14.9454 15.994 16.0542 15.3824 16.2805 14.7482C16.5069 14.1142 16.5069 13.5707 16.439 13.4571C16.3711 13.3439 16.19 13.276 15.9184 13.1402C15.6468 13.0044 14.3115 12.3473 14.0626 12.2567C13.8136 12.1661 13.6326 12.121 13.4515 12.3929C13.2704 12.6644 12.7503 13.276 12.5918 13.4571C12.4334 13.6386 12.2749 13.6612 12.0034 13.5254C11.7317 13.3891 10.857 13.1027 9.81937 12.1776C9.01202 11.4577 8.46696 10.5688 8.30853 10.2968C8.1501 10.0253 8.29156 9.87815 8.42774 9.74282C8.54976 9.62114 8.69941 9.4257 8.83534 9.26718C8.97075 9.10857 9.01594 8.99542 9.1065 8.8143C9.19714 8.63301 9.15178 8.47441 9.08399 8.33857C9.01594 8.20274 8.4882 6.85963 8.24671 6.32267Z" fill="white"/>
</g>
<defs>
<linearGradient id="paint0_linear_278_137" x1="1054.05" y1="2117.2" x2="1054.05" y2="0.379639" gradientUnits="userSpaceOnUse">
<stop stop-color="#1FAF38"/>
<stop offset="1" stop-color="#60D669"/>
</linearGradient>
<linearGradient id="paint1_linear_278_137" x1="1091.48" y1="2192.73" x2="1091.48" y2="0" gradientUnits="userSpaceOnUse">
<stop stop-color="#F9F9F9"/>
<stop offset="1" stop-color="white"/>
</linearGradient>
<clipPath id="clip0_278_137">
<rect width="21.835" height="22" fill="white"/>
</clipPath>
</defs>
</svg>
