<svg width="20" height="20" viewBox="0 0 20 20" fill="none" xmlns="http://www.w3.org/2000/svg">
<g clip-path="url(#clip0_136_172)">
<path d="M0.426036 9.88032C0.425571 11.5607 0.864641 13.2015 1.69952 14.6477L0.346191 19.5889L5.40294 18.263C6.80157 19.0244 8.36863 19.4234 9.96107 19.4235H9.96526C15.2222 19.4235 19.5015 15.1457 19.5038 9.88784C19.5048 7.34001 18.5135 4.94419 16.7124 3.14171C14.9116 1.33939 12.5167 0.346286 9.96487 0.345123C4.70728 0.345123 0.428284 4.62264 0.426114 9.88032" fill="url(#paint0_linear_136_172)"/>
<path d="M0.0853871 9.87721C0.0848445 11.6181 0.539651 13.3175 1.4043 14.8155L0.00244141 19.9339L5.2405 18.5605C6.68376 19.3474 8.30872 19.7622 9.96221 19.7629H9.96647C15.4121 19.7629 19.8451 15.3312 19.8474 9.88512C19.8483 7.24574 18.8214 4.7638 16.9559 2.89674C15.0903 1.02992 12.6097 0.00108527 9.96647 0C4.51996 0 0.0875577 4.43101 0.0853871 9.87721ZM3.20484 14.5575L3.00926 14.2471C2.18709 12.9398 1.75314 11.4291 1.75376 9.87783C1.75546 5.35109 5.4395 1.66822 9.96957 1.66822C12.1634 1.66915 14.2251 2.52434 15.7758 4.07597C17.3264 5.62775 18.1797 7.69054 18.1791 9.8845C18.1771 14.4112 14.493 18.0946 9.96647 18.0946H9.96322C8.48934 18.0938 7.04384 17.698 5.78322 16.95L5.48322 16.7721L2.37484 17.5871L3.20484 14.5575Z" fill="url(#paint1_linear_136_172)"/>
<path d="M7.49696 5.7479C7.312 5.33682 7.11735 5.32852 6.94146 5.32131C6.79743 5.31511 6.63278 5.31557 6.46828 5.31557C6.30363 5.31557 6.03611 5.37751 5.80999 5.62441C5.58363 5.87154 4.9458 6.46875 4.9458 7.6834C4.9458 8.89806 5.83053 10.072 5.95386 10.2369C6.07735 10.4015 7.66185 12.9739 10.1713 13.9635C12.2569 14.7859 12.6813 14.6223 13.1339 14.5811C13.5867 14.54 14.5947 13.984 14.8004 13.4075C15.0062 12.8311 15.0062 12.337 14.9445 12.2337C14.8828 12.1308 14.7181 12.0691 14.4712 11.9457C14.2243 11.8222 13.0105 11.2249 12.7842 11.1425C12.5578 11.0601 12.3932 11.0191 12.2286 11.2663C12.0639 11.5131 11.5911 12.0691 11.447 12.2337C11.3031 12.3988 11.159 12.4193 10.9122 12.2958C10.6651 12.1719 9.86999 11.9115 8.92665 11.0705C8.1927 10.4161 7.6972 9.60798 7.55316 9.36077C7.40913 9.11395 7.53774 8.98015 7.66154 8.85713C7.77247 8.74651 7.90851 8.56883 8.03208 8.42472C8.15518 8.28054 8.19627 8.17767 8.27859 8.01302C8.36099 7.84821 8.31975 7.70402 8.25813 7.58054C8.19627 7.45705 7.7165 6.23604 7.49696 5.7479Z" fill="white"/>
</g>
<defs>
<linearGradient id="paint0_linear_136_172" x1="958.226" y1="1924.73" x2="958.226" y2="0.345123" gradientUnits="userSpaceOnUse">
<stop stop-color="#1FAF38"/>
<stop offset="1" stop-color="#60D669"/>
</linearGradient>
<linearGradient id="paint1_linear_136_172" x1="992.251" y1="1993.39" x2="992.251" y2="0" gradientUnits="userSpaceOnUse">
<stop stop-color="#F9F9F9"/>
<stop offset="1" stop-color="white"/>
</linearGradient>
<clipPath id="clip0_136_172">
<rect width="19.85" height="20" fill="white"/>
</clipPath>
</defs>
</svg>
