<svg width="24" height="24" viewBox="0 0 24 24" fill="none" xmlns="http://www.w3.org/2000/svg">
<path d="M12 22C10.6167 22 9.31667 21.7373 8.1 21.212C6.88333 20.6867 5.825 19.97 4.925 19.062C4.025 18.154 3.31267 17.0917 2.788 15.875C2.26333 14.6583 2.00067 13.3667 2 12C2 9.38332 2.86667 7.13332 4.6 5.24999C6.33333 3.36665 8.46667 2.29999 11 2.04999V5.04999C9.28333 5.28332 7.854 6.05432 6.712 7.36299C5.57 8.67165 4.99933 10.2173 5 12C5 13.9333 5.68333 15.5833 7.05 16.95C8.41667 18.3167 10.0667 19 12 19C13.1 19 14.1293 18.7667 15.088 18.3C16.0467 17.8333 16.8507 17.2 17.5 16.4L20.1 17.9C19.2 19.15 18.0417 20.146 16.625 20.888C15.2083 21.63 13.6667 22.0007 12 22ZM21.15 16.05L18.55 14.55C18.7 14.15 18.8123 13.7377 18.887 13.313C18.9617 12.8883 18.9993 12.4507 19 12C19 10.2167 18.429 8.67099 17.287 7.36299C16.145 6.05499 14.716 5.28399 13 5.04999V2.04999C15.5333 2.29999 17.6667 3.36665 19.4 5.24999C21.1333 7.13332 22 9.38332 22 12C22 12.7333 21.9333 13.4417 21.8 14.125C21.6667 14.8083 21.45 15.45 21.15 16.05Z" fill="#7015FF"/>
</svg>
