<svg width="20" height="20" viewBox="0 0 20 20" fill="none" xmlns="http://www.w3.org/2000/svg">
<path d="M9.16651 10.8333H4.99984C4.76373 10.8333 4.56595 10.7533 4.40651 10.5933C4.24706 10.4333 4.16706 10.2355 4.16651 9.99999C4.16595 9.76444 4.24595 9.56666 4.40651 9.40666C4.56706 9.24666 4.76484 9.16666 4.99984 9.16666H9.16651V4.99999C9.16651 4.76388 9.24651 4.5661 9.40651 4.40666C9.56651 4.24722 9.76428 4.16721 9.99984 4.16666C10.2354 4.1661 10.4335 4.2461 10.594 4.40666C10.7546 4.56721 10.8343 4.76499 10.8332 4.99999V9.16666H14.9998C15.236 9.16666 15.434 9.24666 15.594 9.40666C15.754 9.56666 15.8337 9.76444 15.8332 9.99999C15.8326 10.2355 15.7526 10.4336 15.5932 10.5942C15.4337 10.7547 15.236 10.8344 14.9998 10.8333H10.8332V15C10.8332 15.2361 10.7532 15.4342 10.5932 15.5942C10.4332 15.7542 10.2354 15.8339 9.99984 15.8333C9.76428 15.8328 9.56651 15.7528 9.40651 15.5933C9.24651 15.4339 9.16651 15.2361 9.16651 15V10.8333Z" fill="black"/>
</svg>
