<svg width="22" height="22" viewBox="0 0 22 22" fill="none" xmlns="http://www.w3.org/2000/svg">
<path d="M11.0002 20.1667C9.73211 20.1667 8.54044 19.9259 7.42516 19.4443C6.30989 18.9628 5.33975 18.3058 4.51475 17.4735C3.68975 16.6412 3.03677 15.6673 2.55583 14.5521C2.07489 13.4368 1.83411 12.2528 1.8335 11C1.8335 8.60137 2.62794 6.53887 4.21683 4.81248C5.80572 3.08609 7.76127 2.10832 10.0835 1.87915V4.62915C8.50988 4.84304 7.19966 5.54979 6.15283 6.7494C5.106 7.94901 4.58288 9.36587 4.5835 11C4.5835 12.7722 5.20989 14.2847 6.46266 15.5375C7.71544 16.7903 9.22794 17.4167 11.0002 17.4167C12.0085 17.4167 12.9521 17.2028 13.8308 16.775C14.7096 16.3472 15.4466 15.7666 16.0418 15.0333L18.4252 16.4083C17.6002 17.5541 16.5384 18.4672 15.2397 19.1473C13.9411 19.8275 12.5279 20.1673 11.0002 20.1667ZM19.3877 14.7125L17.0043 13.3375C17.1418 12.9708 17.2448 12.5928 17.3132 12.2036C17.3817 11.8143 17.4162 11.4131 17.4168 11C17.4168 9.36526 16.8934 7.9484 15.8466 6.7494C14.7997 5.5504 13.4898 4.84365 11.9168 4.62915V1.87915C14.2391 2.10832 16.1946 3.08609 17.7835 4.81248C19.3724 6.53887 20.1668 8.60137 20.1668 11C20.1668 11.6722 20.1057 12.3215 19.9835 12.9479C19.8613 13.5743 19.6627 14.1625 19.3877 14.7125Z" fill="#7015FF"/>
</svg>
