<svg width="17" height="17" viewBox="0 0 17 17" fill="none" xmlns="http://www.w3.org/2000/svg">
<path d="M7.0835 9.91665C6.49322 9.91665 5.99148 9.71005 5.57829 9.29685C5.16509 8.88366 4.9585 8.38192 4.9585 7.79165C4.9585 7.53192 4.99982 7.28708 5.08245 7.0571C5.16509 6.82713 5.28905 6.61747 5.45433 6.4281C5.40711 6.31005 5.37169 6.18609 5.34808 6.05623C5.32447 5.92637 5.31266 5.79651 5.31266 5.66665C5.31266 5.21804 5.43379 4.81972 5.67604 4.47169C5.91829 4.12366 6.23397 3.86677 6.62308 3.70102C6.85919 3.42949 7.13662 3.21699 7.45537 3.06352C7.77412 2.91005 8.12239 2.83331 8.50016 2.83331C8.87794 2.83331 9.2262 2.91005 9.54496 3.06352C9.86371 3.21699 10.1411 3.42949 10.3772 3.70102C10.7668 3.8663 11.0827 4.12319 11.325 4.47169C11.5672 4.82019 11.6881 5.21851 11.6877 5.66665C11.6877 5.79651 11.6759 5.92637 11.6522 6.05623C11.6286 6.18609 11.5932 6.31005 11.546 6.4281C11.7113 6.61699 11.8352 6.82666 11.9179 7.0571C12.0005 7.28755 12.0418 7.5324 12.0418 7.79165C12.0418 8.38192 11.8352 8.88366 11.422 9.29685C11.0088 9.71005 10.5071 9.91665 9.91683 9.91665H7.0835ZM2.8335 14.1666V13.6C2.8335 13.1986 2.93691 12.8298 3.14375 12.4936C3.35058 12.1573 3.62494 11.9005 3.96683 11.7229C4.69877 11.3569 5.44252 11.0826 6.19808 10.8998C6.95364 10.7171 7.721 10.6255 8.50016 10.625C9.27933 10.6245 10.0467 10.7161 10.8022 10.8998C11.5578 11.0835 12.3016 11.3579 13.0335 11.7229C13.3759 11.9 13.6505 12.1569 13.8573 12.4936C14.0641 12.8303 14.1673 13.1991 14.1668 13.6V14.1666C14.1668 14.5562 14.0282 14.8899 13.751 15.1675C13.4738 15.4452 13.1402 15.5838 12.7502 15.5833H4.25016C3.86058 15.5833 3.52719 15.4447 3.25 15.1675C2.9728 14.8903 2.83397 14.5567 2.8335 14.1666Z" fill="white"/>
</svg>
