<svg width="17" height="17" viewBox="0 0 17 17" fill="none" xmlns="http://www.w3.org/2000/svg">
<path d="M16.2207 15.0167L13.3165 12.1125C13.5998 11.4042 13.4582 10.4833 12.8207 9.91667C12.1832 9.27917 11.2623 9.1375 10.4832 9.49167L11.829 10.8375L10.8373 11.8292L9.42067 10.4125C9.0665 11.1917 9.20817 12.1125 9.84567 12.8208C10.4832 13.4583 11.3332 13.6 12.0415 13.3167L14.9457 16.2208C15.0873 16.3625 15.2998 16.3625 15.3707 16.2208L16.079 15.5125C16.2915 15.3 16.2915 15.0875 16.2207 15.0167ZM9.20817 14.1667H1.4165V12.75C1.4165 11.1917 3.9665 9.91667 7.08317 9.91667C7.43734 9.91667 7.7915 9.91667 8.07484 9.9875C7.86234 10.4125 7.7915 10.8375 7.7915 11.3333C7.7915 12.4667 8.35817 13.5292 9.20817 14.1667ZM7.08317 2.83334C5.52484 2.83334 4.24984 4.10834 4.24984 5.66667C4.24984 7.225 5.52484 8.5 7.08317 8.5C8.6415 8.5 9.9165 7.225 9.9165 5.66667C9.9165 4.10834 8.6415 2.83334 7.08317 2.83334Z" fill="white"/>
</svg>
