<svg width="25" height="25" viewBox="0 0 25 25" fill="none" xmlns="http://www.w3.org/2000/svg">
<path d="M12.4998 2.08331C15.9478 2.08331 18.7498 4.85415 18.7498 8.28123C18.7498 12.9271 12.4998 19.7916 12.4998 19.7916C12.4998 19.7916 6.24984 12.9271 6.24984 8.28123C6.24984 4.85415 9.05192 2.08331 12.4998 2.08331ZM12.4998 6.24998C11.9473 6.24998 11.4174 6.46947 11.0267 6.86017C10.636 7.25087 10.4165 7.78078 10.4165 8.33331C10.4165 8.88585 10.636 9.41575 11.0267 9.80645C11.4174 10.1972 11.9473 10.4166 12.4998 10.4166C13.0524 10.4166 13.5823 10.1972 13.973 9.80645C14.3637 9.41575 14.5832 8.88585 14.5832 8.33331C14.5832 7.78078 14.3637 7.25087 13.973 6.86017C13.5823 6.46947 13.0524 6.24998 12.4998 6.24998ZM20.8332 19.7916C20.8332 22.0937 17.104 23.9583 12.4998 23.9583C7.89567 23.9583 4.1665 22.0937 4.1665 19.7916C4.1665 18.4479 5.43734 17.25 7.40609 16.4896L8.07275 17.4375C6.94775 17.9062 6.24984 18.5521 6.24984 19.2708C6.24984 20.7083 9.05192 21.875 12.4998 21.875C15.9478 21.875 18.7498 20.7083 18.7498 19.2708C18.7498 18.5521 18.0519 17.9062 16.9269 17.4375L17.5936 16.4896C19.5623 17.25 20.8332 18.4479 20.8332 19.7916Z" fill="#1FAF38"/>
</svg>
