<svg width="17" height="17" viewBox="0 0 17 17" fill="none" xmlns="http://www.w3.org/2000/svg">
<path d="M12.0418 12.75C11.2556 12.75 10.6252 13.3804 10.6252 14.1667C10.6252 14.5424 10.7744 14.9027 11.0401 15.1684C11.3058 15.4341 11.6661 15.5833 12.0418 15.5833C12.4176 15.5833 12.7779 15.4341 13.0436 15.1684C13.3092 14.9027 13.4585 14.5424 13.4585 14.1667C13.4585 13.7909 13.3092 13.4306 13.0436 13.1649C12.7779 12.8993 12.4176 12.75 12.0418 12.75ZM0.708496 1.41667V2.83333H2.12516L4.67516 8.20958L3.71183 9.945C3.60558 10.1433 3.54183 10.3771 3.54183 10.625C3.54183 11.0007 3.69108 11.3611 3.95676 11.6267C4.22244 11.8924 4.58277 12.0417 4.9585 12.0417H13.4585V10.625H5.256C5.20903 10.625 5.16399 10.6063 5.13078 10.5731C5.09757 10.5399 5.07891 10.4949 5.07891 10.4479C5.07891 10.4125 5.086 10.3842 5.10016 10.3629L5.73766 9.20833H11.0147C11.546 9.20833 12.0135 8.91083 12.2543 8.47875L14.7902 3.89583C14.8397 3.7825 14.8752 3.66208 14.8752 3.54167C14.8752 3.35381 14.8005 3.17364 14.6677 3.0408C14.5349 2.90796 14.3547 2.83333 14.1668 2.83333H3.69058L3.02475 1.41667M4.9585 12.75C4.17225 12.75 3.54183 13.3804 3.54183 14.1667C3.54183 14.5424 3.69108 14.9027 3.95676 15.1684C4.22244 15.4341 4.58277 15.5833 4.9585 15.5833C5.33422 15.5833 5.69455 15.4341 5.96023 15.1684C6.22591 14.9027 6.37516 14.5424 6.37516 14.1667C6.37516 13.7909 6.22591 13.4306 5.96023 13.1649C5.69455 12.8993 5.33422 12.75 4.9585 12.75Z" fill="white"/>
</svg>
