<svg width="25" height="25" viewBox="0 0 25 25" fill="none" xmlns="http://www.w3.org/2000/svg">
<path d="M13.5418 19.7917C13.5418 16.3438 16.3439 13.5417 19.7918 13.5417C20.9377 13.5417 22.0002 13.8542 22.9168 14.3854V6.25002C22.9168 5.69749 22.6973 5.16758 22.3066 4.77688C21.9159 4.38618 21.386 4.16669 20.8335 4.16669H4.16683C3.01058 4.16669 2.0835 5.09377 2.0835 6.25002V18.75C2.0835 19.3026 2.30299 19.8325 2.69369 20.2232C3.08439 20.6139 3.61429 20.8334 4.16683 20.8334H13.6356C13.5835 20.4896 13.5418 20.1459 13.5418 19.7917ZM4.16683 8.33335V6.25002L12.5002 11.4584L20.8335 6.25002V8.33335L12.5002 13.5417L4.16683 8.33335ZM18.4897 23.0834L15.6252 19.9584L16.8335 18.75L18.4897 20.4063L22.2293 16.6667L23.4377 18.1354L18.4897 23.0834Z" fill="#4F3E99"/>
</svg>
