<svg width="26" height="26" viewBox="0 0 26 26" fill="none" xmlns="http://www.w3.org/2000/svg">
<path d="M17.7232 15.1667C17.8098 14.4517 17.8748 13.7367 17.8748 13C17.8748 12.2634 17.8098 11.5484 17.7232 10.8334H21.3848C21.5582 11.5267 21.6665 12.2525 21.6665 13C21.6665 13.7475 21.5582 14.4734 21.3848 15.1667M15.8057 21.19C16.4557 19.9875 16.954 18.6875 17.3007 17.3334H20.4965C19.4469 19.1407 17.7818 20.5097 15.8057 21.19ZM15.5348 15.1667H10.4648C10.3565 14.4517 10.2915 13.7367 10.2915 13C10.2915 12.2634 10.3565 11.5375 10.4648 10.8334H15.5348C15.6323 11.5375 15.7082 12.2634 15.7082 13C15.7082 13.7367 15.6323 14.4517 15.5348 15.1667ZM12.9998 21.6234C12.1007 20.3234 11.3748 18.8825 10.9307 17.3334H15.069C14.6248 18.8825 13.899 20.3234 12.9998 21.6234ZM8.6665 8.66669H5.50317C6.5417 6.85431 8.20572 5.48303 10.1832 4.81002C9.53317 6.01252 9.04567 7.31252 8.6665 8.66669ZM5.50317 17.3334H8.6665C9.04567 18.6875 9.53317 19.9875 10.1832 21.19C8.20963 20.51 6.54782 19.1406 5.50317 17.3334ZM4.61484 15.1667C4.4415 14.4734 4.33317 13.7475 4.33317 13C4.33317 12.2525 4.4415 11.5267 4.61484 10.8334H8.2765C8.18984 11.5484 8.12484 12.2634 8.12484 13C8.12484 13.7367 8.18984 14.4517 8.2765 15.1667M12.9998 4.36585C13.899 5.66585 14.6248 7.11752 15.069 8.66669H10.9307C11.3748 7.11752 12.1007 5.66585 12.9998 4.36585ZM20.4965 8.66669H17.3007C16.9611 7.3251 16.459 6.02997 15.8057 4.81002C17.799 5.49252 19.4565 6.86835 20.4965 8.66669ZM12.9998 2.16669C7.009 2.16669 2.1665 7.04169 2.1665 13C2.1665 15.8732 3.30787 18.6287 5.33951 20.6603C6.34548 21.6663 7.53974 22.4643 8.8541 23.0087C10.1685 23.5531 11.5772 23.8334 12.9998 23.8334C15.873 23.8334 18.6285 22.692 20.6602 20.6603C22.6918 18.6287 23.8332 15.8732 23.8332 13C23.8332 11.5774 23.553 10.1686 23.0085 8.85428C22.4641 7.53992 21.6661 6.34566 20.6602 5.3397C19.6542 4.33373 18.4599 3.53575 17.1456 2.99133C15.8312 2.4469 14.4225 2.16669 12.9998 2.16669Z" fill="#1FAF38"/>
</svg>
