<svg width="20" height="20" viewBox="0 0 20 20" fill="none" xmlns="http://www.w3.org/2000/svg">
<path d="M15.5998 12.3C15.8915 11.5916 16.0498 10.8333 16.0498 9.99998C16.0498 9.39998 15.9582 8.82498 15.7998 8.29164C15.2582 8.41664 14.6915 8.48331 14.0998 8.48331C12.8881 8.48461 11.6939 8.19458 10.6178 7.63766C9.54165 7.08075 8.6152 6.27327 7.9165 5.28331C7.1698 7.09226 5.7596 8.54718 3.97484 9.34998C3.9415 9.55831 3.9415 9.78331 3.9415 9.99998C3.9415 10.7956 4.09821 11.5834 4.40267 12.3184C4.70713 13.0534 5.15338 13.7213 5.71595 14.2839C6.85211 15.42 8.39307 16.0583 9.99984 16.0583C10.8748 16.0583 11.7165 15.8666 12.4748 15.525C12.9498 16.4333 13.1665 16.8833 13.1498 16.8833C11.7832 17.3416 10.7248 17.5666 9.99984 17.5666C7.98317 17.5666 6.05817 16.775 4.6415 15.35C3.77904 14.4916 3.1384 13.4362 2.77484 12.275H1.6665V8.48331H2.57484C2.85004 7.14374 3.48275 5.90365 4.40583 4.89464C5.32891 3.88562 6.50793 3.14532 7.81778 2.75227C9.12763 2.35923 10.5195 2.32812 11.8456 2.66223C13.1717 2.99634 14.3826 3.68322 15.3498 4.64998C16.3997 5.69629 17.1159 7.03021 17.4082 8.48331H18.3332V12.275H18.2832L15.3165 15L10.8998 14.5V13.1083H14.9248L15.5998 12.3ZM7.72484 9.80831C7.97484 9.80831 8.2165 9.90831 8.3915 10.0916C8.56738 10.2689 8.66606 10.5086 8.66606 10.7583C8.66606 11.008 8.56738 11.2477 8.3915 11.425C8.2165 11.6 7.97484 11.7 7.72484 11.7C7.19984 11.7 6.77484 11.2833 6.77484 10.7583C6.77484 10.2333 7.19984 9.80831 7.72484 9.80831ZM12.2665 9.80831C12.7915 9.80831 13.2082 10.2333 13.2082 10.7583C13.2082 11.2833 12.7915 11.7 12.2665 11.7C11.7415 11.7 11.3165 11.2833 11.3165 10.7583C11.3165 10.5064 11.4166 10.2647 11.5948 10.0866C11.7729 9.9084 12.0145 9.80831 12.2665 9.80831Z" fill="white"/>
</svg>
