<svg width="19" height="19" viewBox="0 0 19 19" fill="none" xmlns="http://www.w3.org/2000/svg">
<path d="M16.4883 4.9122L13.7759 3.20897L9.35971 10.2424L12.0704 11.944L16.4883 4.9122ZM8.94607 12.4052L8.88618 14.0032L10.3006 13.2549L11.6159 12.5608L9.00037 10.9175L8.94607 12.4052ZM17.2121 2.32461L15.7943 1.43297C15.6228 1.32539 15.4156 1.29031 15.2183 1.33544C15.021 1.38058 14.8497 1.50223 14.742 1.67365L14.1823 2.56249L16.893 4.26516L17.4527 3.37744C17.6766 3.01922 17.5703 2.54738 17.2121 2.32349V2.32461ZM14.9928 15.6572C14.9928 15.8111 14.8668 15.9371 14.7129 15.9371H4.07817C4.00394 15.9371 3.93276 15.9076 3.88028 15.8551C3.82779 15.8026 3.79831 15.7314 3.79831 15.6572V5.02247C3.79831 4.94824 3.82779 4.87706 3.88028 4.82458C3.93276 4.77209 4.00394 4.74261 4.07817 4.74261H11.4911L12.5456 3.06344H4.07817C2.9979 3.06344 2.11914 3.9422 2.11914 5.02247V15.6572C2.11914 16.7375 2.9979 17.6162 4.07817 17.6162H14.7129C15.7932 17.6162 16.6719 16.7375 16.6719 15.6572V6.72234L14.9928 9.39558V15.6589V15.6572Z" fill="white"/>
</svg>
