<svg width="24" height="24" viewBox="0 0 24 24" fill="none" xmlns="http://www.w3.org/2000/svg">
<g clip-path="url(#clip0_278_34)">
<path d="M0 17.25C0 17.3826 0.0526784 17.5098 0.146447 17.6036C0.240215 17.6973 0.367392 17.75 0.5 17.75H2.31C2.37298 17.7498 2.43372 17.7734 2.48007 17.816C2.52641 17.8587 2.55496 17.9172 2.56 17.98L3 23.29C3.01008 23.4156 3.06717 23.5327 3.15987 23.618C3.25257 23.7032 3.37404 23.7504 3.5 23.75H7.5C7.62596 23.7504 7.74743 23.7032 7.84013 23.618C7.93283 23.5327 7.98992 23.4156 8 23.29L8.44 18C8.44504 17.9372 8.47359 17.8787 8.51993 17.836C8.56628 17.7934 8.62702 17.7698 8.69 17.77H9.26C9.29386 17.7695 9.32727 17.7622 9.35821 17.7485C9.38915 17.7347 9.41698 17.7148 9.44 17.69C9.48558 17.6412 9.51064 17.5768 9.51 17.51C9.5052 17.4301 9.5052 17.3499 9.51 17.27C9.51043 15.6936 9.97661 14.1524 10.85 12.84C10.8642 12.8103 10.8716 12.7779 10.8716 12.745C10.8716 12.7121 10.8642 12.6797 10.85 12.65C10.5431 11.3516 9.77467 10.2091 8.6879 9.43516C7.60114 8.66125 6.27012 8.30875 4.94276 8.44332C3.6154 8.57789 2.3822 9.19036 1.47288 10.1666C0.563551 11.1429 0.0400913 12.4164 0 13.75L0 17.25ZM2 3.75C2 4.20963 2.09053 4.66475 2.26642 5.08939C2.44231 5.51403 2.70012 5.89987 3.02513 6.22487C3.35013 6.54988 3.73597 6.80769 4.16061 6.98358C4.58525 7.15947 5.04037 7.25 5.5 7.25C5.95963 7.25 6.41475 7.15947 6.83939 6.98358C7.26403 6.80769 7.64987 6.54988 7.97487 6.22487C8.29988 5.89987 8.55769 5.51403 8.73358 5.08939C8.90947 4.66475 9 4.20963 9 3.75C9 3.29037 8.90947 2.83525 8.73358 2.41061C8.55769 1.98597 8.29988 1.60013 7.97487 1.27513C7.64987 0.950121 7.26403 0.692313 6.83939 0.516422C6.41475 0.34053 5.95963 0.25 5.5 0.25C5.04037 0.25 4.58525 0.34053 4.16061 0.516422C3.73597 0.692313 3.35013 0.950121 3.02513 1.27513C2.70012 1.60013 2.44231 1.98597 2.26642 2.41061C2.09053 2.83525 2 3.29037 2 3.75ZM17.5 23.75C18.7856 23.75 20.0423 23.3688 21.1112 22.6546C22.1801 21.9403 23.0132 20.9252 23.5052 19.7374C23.9972 18.5497 24.1259 17.2428 23.8751 15.9819C23.6243 14.721 23.0052 13.5628 22.0962 12.6538C21.1872 11.7448 20.029 11.1257 18.7681 10.8749C17.5072 10.6241 16.2003 10.7528 15.0126 11.2448C13.8248 11.7368 12.8097 12.5699 12.0954 13.6388C11.3812 14.7077 11 15.9644 11 17.25C11.0026 18.9731 11.6883 20.6249 12.9067 21.8433C14.1251 23.0617 15.7769 23.7474 17.5 23.75ZM21 14.53C21.1051 14.6088 21.1936 14.7075 21.2605 14.8205C21.3274 14.9335 21.3714 15.0586 21.3899 15.1886C21.4085 15.3186 21.4013 15.451 21.3687 15.5782C21.3361 15.7054 21.2788 15.8249 21.2 15.93L18.05 20.13C17.892 20.3374 17.6917 20.5088 17.4624 20.633C17.2331 20.7571 16.98 20.8311 16.72 20.85H16.6C16.1204 20.8479 15.6607 20.6576 15.32 20.32L13.7 18.69C13.5953 18.6004 13.5103 18.49 13.4503 18.366C13.3903 18.2419 13.3565 18.1068 13.3512 17.9691C13.3459 17.8313 13.3691 17.694 13.4194 17.5657C13.4696 17.4374 13.5459 17.3208 13.6433 17.2233C13.7408 17.1259 13.8574 17.0496 13.9857 16.9994C14.114 16.9491 14.2513 16.9259 14.3891 16.9312C14.5268 16.9365 14.6619 16.9702 14.786 17.0303C14.91 17.0903 15.0204 17.1753 15.11 17.28L16.38 18.55C16.4062 18.5756 16.4377 18.5951 16.4722 18.6072C16.5068 18.6193 16.5436 18.6237 16.58 18.62C16.6159 18.6193 16.651 18.6098 16.6824 18.5924C16.7138 18.5749 16.7404 18.5501 16.76 18.52L19.61 14.73C19.7689 14.5207 20.0039 14.3824 20.264 14.345C20.5241 14.3075 20.7885 14.374 21 14.53Z" fill="#0C6FFF"/>
</g>
<defs>
<clipPath id="clip0_278_34">
<rect width="24" height="24" fill="white"/>
</clipPath>
</defs>
</svg>
