<svg width="20" height="20" viewBox="0 0 20 20" fill="none" xmlns="http://www.w3.org/2000/svg">
<path d="M10 1.66667C8.78442 1.66667 7.61864 2.14956 6.75909 3.0091C5.89955 3.86864 5.41667 5.03443 5.41667 6.25C5.41667 7.46558 5.89955 8.63137 6.75909 9.49091C7.61864 10.3505 8.78442 10.8333 10 10.8333C11.2156 10.8333 12.3814 10.3505 13.2409 9.49091C14.1004 8.63137 14.5833 7.46558 14.5833 6.25C14.5833 5.03443 14.1004 3.86864 13.2409 3.0091C12.3814 2.14956 11.2156 1.66667 10 1.66667ZM6.66667 11.6667C5.5616 11.6667 4.50179 12.1057 3.72039 12.8871C2.93899 13.6685 2.5 14.7283 2.5 15.8333V18.3333H17.5V15.8333C17.5 14.7283 17.061 13.6685 16.2796 12.8871C15.4982 12.1057 14.4384 11.6667 13.3333 11.6667H12.1817L10 16.03L7.81833 11.6667H6.66667Z" fill="white"/>
</svg>
