<svg width="16" height="16" viewBox="0 0 16 16" fill="none" xmlns="http://www.w3.org/2000/svg">
<rect width="16" height="16" fill="white"/>
<path opacity="0.5" d="M14.6668 6.66668H1.3335V12.6667C1.3335 13.1971 1.54421 13.7058 1.91928 14.0809C2.29436 14.456 2.80306 14.6667 3.3335 14.6667H12.6668C13.1973 14.6667 13.706 14.456 14.081 14.0809C14.4561 13.7058 14.6668 13.1971 14.6668 12.6667V6.66668ZM4.66683 5.33334C4.49002 5.33334 4.32045 5.26311 4.19542 5.13808C4.0704 5.01306 4.00016 4.84349 4.00016 4.66668V2.00001C4.00016 1.8232 4.0704 1.65363 4.19542 1.52861C4.32045 1.40358 4.49002 1.33334 4.66683 1.33334C4.84364 1.33334 5.01321 1.40358 5.13823 1.52861C5.26326 1.65363 5.3335 1.8232 5.3335 2.00001V4.66668C5.3335 4.84349 5.26326 5.01306 5.13823 5.13808C5.01321 5.26311 4.84364 5.33334 4.66683 5.33334ZM11.3335 5.33334C11.1567 5.33334 10.9871 5.26311 10.8621 5.13808C10.7371 5.01306 10.6668 4.84349 10.6668 4.66668V2.00001C10.6668 1.8232 10.7371 1.65363 10.8621 1.52861C10.9871 1.40358 11.1567 1.33334 11.3335 1.33334C11.5103 1.33334 11.6799 1.40358 11.8049 1.52861C11.9299 1.65363 12.0002 1.8232 12.0002 2.00001V4.66668C12.0002 4.84349 11.9299 5.01306 11.8049 5.13808C11.6799 5.26311 11.5103 5.33334 11.3335 5.33334Z" fill="black" fill-opacity="0.61"/>
<path d="M12.6668 2.66666H12.0002V4.66666C12.0002 4.84347 11.9299 5.01304 11.8049 5.13806C11.6799 5.26309 11.5103 5.33332 11.3335 5.33332C11.1567 5.33332 10.9871 5.26309 10.8621 5.13806C10.7371 5.01304 10.6668 4.84347 10.6668 4.66666V2.66666H5.3335V4.66666C5.3335 4.84347 5.26326 5.01304 5.13823 5.13806C5.01321 5.26309 4.84364 5.33332 4.66683 5.33332C4.49002 5.33332 4.32045 5.26309 4.19542 5.13806C4.0704 5.01304 4.00016 4.84347 4.00016 4.66666V2.66666H3.3335C2.80306 2.66666 2.29436 2.87737 1.91928 3.25244C1.54421 3.62752 1.3335 4.13622 1.3335 4.66666V6.66666H14.6668V4.66666C14.6668 4.13622 14.4561 3.62752 14.081 3.25244C13.706 2.87737 13.1973 2.66666 12.6668 2.66666Z" fill="black" fill-opacity="0.61"/>
</svg>
