<svg width="81" height="35" viewBox="0 0 81 35" fill="none" xmlns="http://www.w3.org/2000/svg">
<path d="M0.0556197 1.68798L0.0234375 1.6502C4.33034 -2.1054 9.24872 2.87175 11.9829 6.09423L27.9218 24.8834C28.3961 25.4431 28.9362 26.0378 29.661 26.1427C30.5006 26.2589 31.2576 25.6768 31.8998 25.1199C34.8953 22.5092 37.7162 19.7046 40.3443 16.7244L47.9479 25.1619C48.5649 25.8475 49.3639 26.5989 50.2692 26.4212C50.7856 26.3176 51.1885 25.9245 51.5579 25.5481C57.8266 19.1637 63.7762 12.4856 69.4068 5.51354C70.8537 3.72249 72.3606 1.84609 74.4651 0.908593C76.5696 -0.0289073 79.4535 0.340497 80.6023 2.33723L55.599 30.8386C54.4446 32.1553 53.1825 33.5392 51.4838 33.9632C49.5976 34.4347 47.6065 33.584 46.0925 32.3652C44.5785 31.1465 43.3933 29.5667 41.9731 28.243C41.5365 27.8344 41.0342 27.4301 40.4339 27.3797C39.6769 27.3153 39.001 27.833 38.4581 28.3592C37.0995 29.6912 36.0192 31.2976 34.5906 32.5569C33.162 33.8162 31.2142 34.7146 29.3742 34.236C27.8518 33.8358 26.7226 32.5905 25.6885 31.4053C17.0906 21.5453 8.54629 11.6395 0.0556197 1.68798Z" fill="#FF6C08"/>
</svg>
