<svg width="29" height="41" viewBox="0 0 29 41" fill="none" xmlns="http://www.w3.org/2000/svg">
<path d="M27.0337 11.4361C26.453 10.4496 25.647 9.60169 24.8508 8.77053L17.078 0.636669C11.4166 6.65066 5.75566 12.6675 0.0952148 18.687V28.7729C5.57749 22.9366 11.8489 16.8372 17.3368 11.0023C18.1729 11.2472 18.9295 11.7084 19.5302 12.3393C20.1309 12.9702 20.5544 13.7486 20.758 14.5956C21.4352 17.569 19.2846 20.3745 17.2752 22.6679L5.65445 35.9398L10.4441 40.1866C14.8014 35.056 19.1582 29.9254 23.5145 24.7948C25.167 22.8484 26.8573 20.8363 27.6521 18.41C28.3951 16.1222 28.2524 13.5084 27.0337 11.4361Z" fill="#0968D8"/>
</svg>
