<svg width="4" height="4" viewBox="0 0 4 4" fill="none" xmlns="http://www.w3.org/2000/svg">
<path d="M1.75564 0.254937C1.81701 0.254937 1.86675 0.205191 1.86675 0.143826C1.86675 0.0824614 1.81701 0.0327148 1.75564 0.0327148C1.69428 0.0327148 1.64453 0.0824614 1.64453 0.143826C1.64453 0.205191 1.69428 0.254937 1.75564 0.254937Z" fill="#000080"/>
<path d="M1.28396 0.381646C1.34533 0.381646 1.39507 0.3319 1.39507 0.270535C1.39507 0.20917 1.34533 0.159424 1.28396 0.159424C1.2226 0.159424 1.17285 0.20917 1.17285 0.270535C1.17285 0.3319 1.2226 0.381646 1.28396 0.381646Z" fill="#000080"/>
<path d="M0.860134 0.625542C0.921499 0.625542 0.971246 0.575796 0.971246 0.514431C0.971246 0.453066 0.921499 0.40332 0.860134 0.40332C0.798769 0.40332 0.749023 0.453066 0.749023 0.514431C0.749023 0.575796 0.798769 0.625542 0.860134 0.625542Z" fill="#000080"/>
<path d="M0.514431 0.971002C0.575796 0.971002 0.625542 0.921255 0.625542 0.85989C0.625542 0.798525 0.575796 0.748779 0.514431 0.748779C0.453066 0.748779 0.40332 0.798525 0.40332 0.85989C0.40332 0.921255 0.453066 0.971002 0.514431 0.971002Z" fill="#000080"/>
<path d="M0.271267 1.39434C0.332632 1.39434 0.382378 1.34459 0.382378 1.28323C0.382378 1.22186 0.332632 1.17212 0.271267 1.17212C0.209902 1.17212 0.160156 1.22186 0.160156 1.28323C0.160156 1.34459 0.209902 1.39434 0.271267 1.39434Z" fill="#000080"/>
<path d="M0.144315 1.86651C0.20568 1.86651 0.255426 1.81676 0.255426 1.7554C0.255426 1.69403 0.20568 1.64429 0.144315 1.64429C0.0829497 1.64429 0.0332031 1.69403 0.0332031 1.7554C0.0332031 1.81676 0.0829497 1.86651 0.144315 1.86651Z" fill="#000080"/>
<path d="M0.144315 2.35552C0.20568 2.35552 0.255426 2.30578 0.255426 2.24441C0.255426 2.18305 0.20568 2.1333 0.144315 2.1333C0.0829497 2.1333 0.0332031 2.18305 0.0332031 2.24441C0.0332031 2.30578 0.0829497 2.35552 0.144315 2.35552Z" fill="#000080"/>
<path d="M0.271267 2.82769C0.332632 2.82769 0.382378 2.77795 0.382378 2.71658C0.382378 2.65522 0.332632 2.60547 0.271267 2.60547C0.209902 2.60547 0.160156 2.65522 0.160156 2.71658C0.160156 2.77795 0.209902 2.82769 0.271267 2.82769Z" fill="#000080"/>
<path d="M0.514431 3.25103C0.575796 3.25103 0.625542 3.20129 0.625542 3.13992C0.625542 3.07856 0.575796 3.02881 0.514431 3.02881C0.453066 3.02881 0.40332 3.07856 0.40332 3.13992C0.40332 3.20129 0.453066 3.25103 0.514431 3.25103Z" fill="#000080"/>
<path d="M0.860134 3.59649C0.921499 3.59649 0.971246 3.54674 0.971246 3.48538C0.971246 3.42401 0.921499 3.37427 0.860134 3.37427C0.798769 3.37427 0.749023 3.42401 0.749023 3.48538C0.749023 3.54674 0.798769 3.59649 0.860134 3.59649Z" fill="#000080"/>
<path d="M1.28396 3.84039C1.34533 3.84039 1.39507 3.79064 1.39507 3.72928C1.39507 3.66791 1.34533 3.61816 1.28396 3.61816C1.2226 3.61816 1.17285 3.66791 1.17285 3.72928C1.17285 3.79064 1.2226 3.84039 1.28396 3.84039Z" fill="#000080"/>
<path d="M1.75564 3.9671C1.81701 3.9671 1.86675 3.91735 1.86675 3.85598C1.86675 3.79462 1.81701 3.74487 1.75564 3.74487C1.69428 3.74487 1.64453 3.79462 1.64453 3.85598C1.64453 3.91735 1.69428 3.9671 1.75564 3.9671Z" fill="#000080"/>
<path d="M2.2449 3.9671C2.30627 3.9671 2.35601 3.91735 2.35601 3.85598C2.35601 3.79462 2.30627 3.74487 2.2449 3.74487C2.18354 3.74487 2.13379 3.79462 2.13379 3.85598C2.13379 3.91735 2.18354 3.9671 2.2449 3.9671Z" fill="#000080"/>
<path d="M2.71756 3.84039C2.77892 3.84039 2.82867 3.79064 2.82867 3.72928C2.82867 3.66791 2.77892 3.61816 2.71756 3.61816C2.65619 3.61816 2.60645 3.66791 2.60645 3.72928C2.60645 3.79064 2.65619 3.84039 2.71756 3.84039Z" fill="#000080"/>
<path d="M3.14041 3.59649C3.20177 3.59649 3.25152 3.54674 3.25152 3.48538C3.25152 3.42401 3.20177 3.37427 3.14041 3.37427C3.07904 3.37427 3.0293 3.42401 3.0293 3.48538C3.0293 3.54674 3.07904 3.59649 3.14041 3.59649Z" fill="#000080"/>
<path d="M3.48611 3.25103C3.54748 3.25103 3.59722 3.20129 3.59722 3.13992C3.59722 3.07856 3.54748 3.02881 3.48611 3.02881C3.42475 3.02881 3.375 3.07856 3.375 3.13992C3.375 3.20129 3.42475 3.25103 3.48611 3.25103Z" fill="#000080"/>
<path d="M3.73025 2.82769C3.79162 2.82769 3.84136 2.77795 3.84136 2.71658C3.84136 2.65522 3.79162 2.60547 3.73025 2.60547C3.66889 2.60547 3.61914 2.65522 3.61914 2.71658C3.61914 2.77795 3.66889 2.82769 3.73025 2.82769Z" fill="#000080"/>
<path d="M3.85623 2.35552C3.91759 2.35552 3.96734 2.30578 3.96734 2.24441C3.96734 2.18305 3.91759 2.1333 3.85623 2.1333C3.79486 2.1333 3.74512 2.18305 3.74512 2.24441C3.74512 2.30578 3.79486 2.35552 3.85623 2.35552Z" fill="#000080"/>
<path d="M3.85623 1.86651C3.91759 1.86651 3.96734 1.81676 3.96734 1.7554C3.96734 1.69403 3.91759 1.64429 3.85623 1.64429C3.79486 1.64429 3.74512 1.69403 3.74512 1.7554C3.74512 1.81676 3.79486 1.86651 3.85623 1.86651Z" fill="#000080"/>
<path d="M3.73025 1.39434C3.79162 1.39434 3.84136 1.34459 3.84136 1.28323C3.84136 1.22186 3.79162 1.17212 3.73025 1.17212C3.66889 1.17212 3.61914 1.22186 3.61914 1.28323C3.61914 1.34459 3.66889 1.39434 3.73025 1.39434Z" fill="#000080"/>
<path d="M3.48611 0.971002C3.54748 0.971002 3.59722 0.921255 3.59722 0.85989C3.59722 0.798525 3.54748 0.748779 3.48611 0.748779C3.42475 0.748779 3.375 0.798525 3.375 0.85989C3.375 0.921255 3.42475 0.971002 3.48611 0.971002Z" fill="#000080"/>
<path d="M3.14041 0.625542C3.20177 0.625542 3.25152 0.575796 3.25152 0.514431C3.25152 0.453066 3.20177 0.40332 3.14041 0.40332C3.07904 0.40332 3.0293 0.453066 3.0293 0.514431C3.0293 0.575796 3.07904 0.625542 3.14041 0.625542Z" fill="#000080"/>
<path d="M2.71756 0.381646C2.77892 0.381646 2.82867 0.3319 2.82867 0.270535C2.82867 0.20917 2.77892 0.159424 2.71756 0.159424C2.65619 0.159424 2.60645 0.20917 2.60645 0.270535C2.60645 0.3319 2.65619 0.381646 2.71756 0.381646Z" fill="#000080"/>
<path d="M2.2449 0.254937C2.30627 0.254937 2.35601 0.205191 2.35601 0.143826C2.35601 0.0824614 2.30627 0.0327148 2.2449 0.0327148C2.18354 0.0327148 2.13379 0.0824614 2.13379 0.143826C2.13379 0.205191 2.18354 0.254937 2.2449 0.254937Z" fill="#000080"/>
<path d="M2 2.5C2.27614 2.5 2.5 2.27614 2.5 2C2.5 1.72386 2.27614 1.5 2 1.5C1.72386 1.5 1.5 1.72386 1.5 2C1.5 2.27614 1.72386 2.5 2 2.5Z" fill="#000080"/>
</svg>
