<svg width="18" height="14" viewBox="0 0 18 14" fill="none" xmlns="http://www.w3.org/2000/svg">
<path d="M17.3337 3.27954V11.167C17.3337 11.8047 17.0901 12.4183 16.6526 12.8823C16.2151 13.3462 15.6169 13.6255 14.9803 13.6629L14.8337 13.667H3.16699C2.52932 13.6671 1.91573 13.4234 1.45177 12.986C0.98782 12.5485 0.708569 11.9503 0.671159 11.3137L0.666992 11.167V3.27954L8.53783 8.52704L8.63449 8.58204C8.74841 8.6377 8.87353 8.66664 9.00033 8.66664C9.12712 8.66664 9.25224 8.6377 9.36616 8.58204L9.46283 8.52704L17.3337 3.27954Z" fill="black"/>
<path d="M14.8339 0.333496C15.7339 0.333496 16.5231 0.808496 16.9631 1.52266L9.00059 6.831L1.03809 1.52266C1.24708 1.18335 1.53416 0.898913 1.8754 0.693071C2.21663 0.487228 2.60213 0.365944 2.99975 0.339329L3.16725 0.333496H14.8339Z" fill="black"/>
</svg>
